<?xml version="1.0" encoding="utf-8"?>
<!-- Generator: Adobe Illustrator 18.1.1, SVG Export Plug-In . SVG Version: 6.00 Build 0)  -->
<svg version="1.2" baseProfile="tiny" xmlns="http://www.w3.org/2000/svg" xmlns:xlink="http://www.w3.org/1999/xlink" x="0px"
	 y="0px" width="930px" height="410px" viewBox="167 215.9 930 410" xml:space="preserve">
<g id="New_Layouts">
	<g id="First_1_">
		<g id="Layer_18">
			<circle fill="none" stroke="#000000" stroke-width="0.25" cx="677.8" cy="322.5" r="8.7"/>
			<g id="G-wc_PROP_x24_0_x24__x5F_TMD-Floor">
				<g>
					<path fill="none" stroke="#000000" stroke-width="0.25" d="M632,420.3l-0.1,1.8"/>
				</g>
				<g>
					<path fill="none" stroke="#000000" stroke-width="0.25" d="M631.9,422.4l-0.1,3.5"/>
				</g>
			</g>
			<g id="_x32_40_x5F_Stairs_x5F_Ramps_x5F_Lift_Shafts">
				<g>
					<path fill="none" stroke="#000000" stroke-width="0.25" d="M669,422.5l15.2,0.5 M684.1,426.8L684.1,426.8 M684.1,426.8
						l-15.3-0.6"/>
				</g>
				<g>
					<path fill="none" stroke="#000000" stroke-width="0.25" d="M669.2,414.2l15.2,0.5 M684.3,418.9L684.3,418.9 M684.3,418.9
						l-15.1-0.4"/>
				</g>
				<g>
					<path fill="none" stroke="#000000" stroke-width="0.25" d="M684.3,446.1l-0.9,0 M683.4,446.1l1.2-35.2 M684.6,410.9l0.9,0
						 M685.5,410.9L685.5,410.9"/>
				</g>
				<g>
					<path fill="none" stroke="#000000" stroke-width="0.25" d="M683.4,446.1L683.4,446.1"/>
				</g>
				<g>
					<path fill="none" stroke="#000000" stroke-width="0.25" d="M683.5,446.8L683.5,446.8 M683.4,446.8l0-0.7 M683.4,446.1
						L683.4,446.1 M683.5,446.1l0,0.7"/>
				</g>
				<g>
					<path fill="none" stroke="#000000" stroke-width="0.25" d="M684.3,446.1l-0.8,0 M683.5,446l1.1-35.1 M684.7,410.9l0.7,0"/>
				</g>
				<g>
					<path fill="none" stroke="#000000" stroke-width="0.25" d="M684.3,446.1L684.3,446.1"/>
				</g>
				<g>
					<path fill="none" stroke="#000000" stroke-width="0.25" d="M684.3,446.1L684.3,446.1 M684.2,446.1l0-0.4 M684.2,445.6
						L684.2,445.6 M684.3,445.6l0,0.4"/>
				</g>
				<g>
					<path fill="none" stroke="#000000" stroke-width="0.25" d="M685.4,410.9l0-0.4 M685.4,410.5L685.4,410.5 M685.3,410.5l0,0.4
						 M685.3,410.9L685.3,410.9"/>
				</g>
				<g>
					<path fill="none" stroke="#000000" stroke-width="0.25" d="M685.4,411l-1.1,34.7 M684.2,445.6L684.2,445.6 M684.3,445.6
						l1.1-34.7"/>
				</g>
				<g>
					<path fill="none" stroke="#000000" stroke-width="0.25" d="M686.6,434.1l13.4,0.4 M700,434.6l-0.1,3.8 M699.8,438.4l-13.4-0.4"
						/>
				</g>
				<g>
					<path fill="none" stroke="#000000" stroke-width="0.25" d="M686.3,442.1l13.4,0.4 M699.7,442.5l-0.1,3.8 M699.6,446.3
						l-14.1-0.5"/>
				</g>
				<g>
					<path fill="none" stroke="#000000" stroke-width="0.25" d="M685.8,438l14.1,0.5 M699.8,438.4l-0.1,4.1 M699.7,442.5l-14.1-0.5"
						/>
				</g>
				<g>
					<path fill="none" stroke="#000000" stroke-width="0.25" d="M685.8,438l-1.2,0 M684.6,437.9l0.1-3.8 M684.7,434.1l1.2,0"/>
				</g>
				<g>
					<path fill="none" stroke="#000000" stroke-width="0.25" d="M685.5,445.9l-1.2,0 M684.3,445.8l0.1-3.8 M684.4,442l1.2,0"/>
				</g>
				<g>
					<path fill="none" stroke="#000000" stroke-width="0.25" d="M685.6,442l-1.2,0 M684.4,442l0.1-4.1 M684.6,437.9l1.2,0"/>
				</g>
				<g>
					<path fill="none" stroke="#000000" stroke-width="0.25" d="M685.9,434.1l-1.2,0 M684.7,434.1l0.1-3.9 M684.8,430.2l1.2,0"/>
				</g>
				<g>
					<path fill="none" stroke="#000000" stroke-width="0.25" d="M686.7,430.3l13.4,0.4 M700.1,430.7l-0.1,3.9 M700,434.6l-14.1-0.5"
						/>
				</g>
				<g>
					<path fill="none" stroke="#000000" stroke-width="0.25" d="M687,422.3l13.4,0.4 M700.3,422.8l-0.1,3.9 M700.2,426.6l-13.4-0.4"
						/>
				</g>
				<g>
					<path fill="none" stroke="#000000" stroke-width="0.25" d="M686,430.2l-1.2,0 M684.8,430.2l0.1-4.1 M685,426.1l1.2,0"/>
				</g>
				<g>
					<path fill="none" stroke="#000000" stroke-width="0.25" d="M686.2,426.2l-1.2,0 M685,426.1l0.1-3.9 M685.1,422.3l1.2,0"/>
				</g>
				<g>
					<path fill="none" stroke="#000000" stroke-width="0.25" d="M686.2,426.2l14.1,0.5 M700.2,426.6l-0.1,4.1 M700.1,430.7
						l-14.1-0.5"/>
				</g>
				<g>
					<path fill="none" stroke="#000000" stroke-width="0.25" d="M686.7,410.5l14.1,0.5 M700.7,411l-0.1,3.8 M700.6,414.8l-13.4-0.4"
						/>
				</g>
				<g>
					<path fill="none" stroke="#000000" stroke-width="0.25" d="M686.6,414.4l14.1,0.5 M700.6,414.8l-0.1,4.1 M700.5,418.9
						l-13.4-0.4"/>
				</g>
				<g>
					<path fill="none" stroke="#000000" stroke-width="0.25" d="M686.3,422.3l-1.2,0 M685.1,422.3l0.1-3.8 M685.2,418.4l1.2,0"/>
				</g>
				<g>
					<path fill="none" stroke="#000000" stroke-width="0.25" d="M686.6,414.4l-1.2,0 M685.3,414.3l0.1-3.8 M685.5,410.5l1.2,0"/>
				</g>
				<g>
					<path fill="none" stroke="#000000" stroke-width="0.25" d="M686.4,418.5l-1.2,0 M685.2,418.4l0.1-4.1 M685.3,414.3l1.2,0"/>
				</g>
				<g>
					<path fill="none" stroke="#000000" stroke-width="0.25" d="M686.4,418.5l14.1,0.5 M700.5,418.9l-0.1,3.8 M700.3,422.8
						l-14.1-0.5"/>
				</g>
				<g>
					<path fill="none" stroke="#000000" stroke-width="0.25" d="M692.4,410.7"/>
					<path fill="none" stroke="#000000" stroke-width="0.25" d="M691.3,446.1"/>
				</g>
				<g>
					<path fill="none" stroke="#000000" stroke-width="0.25" d="M668.6,434.5l15.5-7.7"/>
				</g>
				<g>
					<path fill="none" stroke="#000000" stroke-width="0.25" d="M684.1,426.8L684.1,426.8 M684.1,426.8l-0.1,4.1 M683.9,430.9
						L683.9,430.9 M683.9,430.9l-7.7-0.3"/>
				</g>
				<g>
					<path fill="none" stroke="#000000" stroke-width="0.25" d="M676.3,430.7l7.7,0.3 M683.9,430.9l-0.1,4.1 M683.8,435l-1.2,0"/>
				</g>
				<g>
					<path fill="none" stroke="#000000" stroke-width="0.25" d="M684.3,418.9l-0.1,4.1"/>
				</g>
				<g>
					<path fill="none" stroke="#000000" stroke-width="0.25" d="M669.2,414.2l0.1-3.9 M669.3,410.4l15.2,0.5 M684.6,410.9l-0.1,3.9"
						/>
				</g>
				<g>
					<path fill="none" stroke="#000000" stroke-width="0.25" d="M676.1,430.7l-7.6-0.2 M668.6,430.4L668.6,430.4 M668.6,430.4
						l-0.1,4.1"/>
				</g>
				<g>
					<path fill="none" stroke="#000000" stroke-width="0.25" d="M676.3,430.7"/>
				</g>
				<g>
					<path fill="none" stroke="#000000" stroke-width="0.25" d="M682.6,435l1.2,0 M683.8,435l-0.1,3.8 M683.7,438.9l-1.2,0"/>
				</g>
				<g>
					<path fill="none" stroke="#000000" stroke-width="0.25" d="M682.3,442.9l1.2,0 M683.5,443l-0.1,3.8 M683.4,446.8l-1.2,0"/>
				</g>
				<g>
					<path fill="none" stroke="#000000" stroke-width="0.25" d="M682.5,438.8l1.2,0 M683.7,438.9l-0.1,4.1 M683.5,443l-1.2,0"/>
				</g>
				<g>
					<path fill="none" stroke="#000000" stroke-width="0.25" d="M681.8,438.8l-13.3-0.4 M668.4,438.4l0.1-3.8 M668.6,434.5l13.3,0.4
						"/>
				</g>
				<g>
					<path fill="none" stroke="#000000" stroke-width="0.25" d="M682.2,446.8l-14-0.5 M668.2,446.3l0.1-3.8 M668.3,442.5l13.3,0.4"
						/>
				</g>
				<g>
					<path fill="none" stroke="#000000" stroke-width="0.25" d="M682.3,442.9l-14-0.5 M668.3,442.5l0.1-4.1 M668.4,438.4l14,0.5"/>
				</g>
				<g>
					<path fill="none" stroke="#000000" stroke-width="0.25" d="M682.6,435l-14-0.5"/>
				</g>
				<g>
					<path fill="none" stroke="#000000" stroke-width="0.25" d="M700.7,411L700.7,411 M700.8,411l-1.2,35.4 M699.7,446.3
						L699.7,446.3 M699.6,446.3l1.2-35.4"/>
				</g>
				<g>
					<path fill="none" stroke="#000000" stroke-width="0.25" d="M669.2,410.9l0.1,0 M669.3,411l-1.2,35.4 M668.2,446.3l-0.1,0
						 M668.1,446.3l1.2-35.4"/>
				</g>
				<g>
					<path fill="none" stroke="#000000" stroke-width="0.25" d="M699.6,373.2l0.4-11.3"/>
				</g>
				<g>
					<path fill="none" stroke="#000000" stroke-width="0.25" d="M703.1,373.3l0.4-11.3"/>
				</g>
				<g>
					<path fill="none" stroke="#000000" stroke-width="0.25" d="M706.7,373.4l0.4-11.3"/>
				</g>
			</g>
			<g id="_x31_-first_PROP_x24_0_x24__x5F_TMD-building_outline">
				<g>
					<path fill="none" stroke="#000000" stroke-width="0.25" d="M565.6,560.7l0.4,0 M566,560.7l-7.1-26.7 M558.9,534l47.1-15.6
						 M606.1,518.4l68.8-21.5 M674.8,496.9l0.2-6.1 M675,490.8l26.7,0.9"/>
				</g>
				<g>
					<path fill="none" stroke="#000000" stroke-width="0.25" d="M461.2,545.3l59.9-0.5"/>
				</g>
				<g>
					<path fill="none" stroke="#000000" stroke-width="0.25" d="M521.1,544.8l3.9,0.4 M525,545.1l3.7,1.2 M528.7,546.4l3.3,2
						 M532,548.4l2.8,2.7 M534.8,551.2l2.1,3.3 M536.9,554.4l1.3,3.7 M538.2,558.1l0.5,3.9 M538.7,562l-0.4,3.9 M538.3,565.8
						l-1.3,3.7 M537,569.5l-2,3.3 M535,572.8l-2.7,2.8 M532.2,575.6l-3.3,2.1 M529,577.7l-3.7,1.3 M525.3,579l-3.9,0.5"/>
				</g>
				<g>
					<path fill="none" stroke="#000000" stroke-width="0.25" d="M550.4,566.9l18.2-2.2"/>
				</g>
				<g>
					<path fill="none" stroke="#000000" stroke-width="0.25" d="M565.9,560.8l-15.9,1.9"/>
				</g>
				<g>
					<path fill="none" stroke="#000000" stroke-width="0.25" d="M587.5,560.7l-21.6,0.1"/>
				</g>
				<g>
					<path fill="none" stroke="#000000" stroke-width="0.25" d="M568.6,564.7l14.9-0.1"/>
				</g>
				<g>
					<path fill="none" stroke="#000000" stroke-width="0.25" d="M549.9,562.7l0.5,4.2"/>
				</g>
				<g>
					<path fill="none" stroke="#000000" stroke-width="0.25" d="M453,518.2l-0.8,13.4 M452.2,531.7l8.9,0.5 M461.1,532.1l0.1,13.2"
						/>
				</g>
				<g>
					<path fill="none" stroke="#000000" stroke-width="0.25" d="M440,486l-1.7,31.5 M438.2,517.4l14.7,0.8"/>
				</g>
				<g>
					<path fill="none" stroke="#000000" stroke-width="0.25" d="M598.3,518.7l-43.2,13 M555.1,531.7l8.7,29.3"/>
				</g>
				<g>
					<path fill="none" stroke="#000000" stroke-width="0.25" d="M598.4,516l-0.1,2.7 M598.3,518.7l74.3-24.5 M672.6,494.2l0.2-5.7
						 M672.8,488.5l28.9,0.9 M701.7,489.4l0.7-21.5"/>
				</g>
				<g>
					<path fill="none" stroke="#000000" stroke-width="0.25" d="M587,569.3l0.5,0"/>
				</g>
				<g>
					<path fill="none" stroke="#000000" stroke-width="0.25" d="M587.5,569.3l0-8.6"/>
				</g>
				<g>
					<path fill="none" stroke="#000000" stroke-width="0.25" d="M583.5,564.7l0,4.7"/>
				</g>
				<g>
					<path fill="none" stroke="#000000" stroke-width="0.25" d="M583.5,569.3l-0.5,0"/>
				</g>
				<g>
					<path fill="none" stroke="#000000" stroke-width="0.25" d="M300.3,528.8l1.1,0 M301.4,528.8l-0.1-2.1 M301.4,526.7l0.1-2.8
						 M301.5,523.9l-1.1,0 M300.4,523.9l0.4-7.5 M300.8,516.4l1.1,0.1 M301.9,516.4l1.8-37.5 M303.7,478.9l-1.1-0.1 M302.6,478.9
						l0.4-7.5 M302.9,471.3l1.1,0.1 M304.1,471.4l1.8-37.5 M305.9,433.9l-1.1-0.1 M304.7,433.8l0.4-7.5 M305.1,426.3l1.1,0.1
						 M306.2,426.4l1.8-37.5 M308,388.8l-1.1-0.1 M306.9,388.8l0.4-7.5 M307.3,381.3l1.1,0 M308.4,381.3l1.8-37.5 M310.2,343.8
						l-1.1-0.1 M309.1,343.7l0.4-7.5 M309.4,336.2l1.1,0 M310.6,336.3l0.1-3.1 M310.7,333.2l2.6-8.3 M313.4,324.9l4.3-8.7
						 M317.6,316.2l6.4-9.1 M324.1,307.1l5-5.3 M329,301.8l6.9-5.7 M335.9,296.1l8.3-5 M344.2,291.1l8.1-3.4 M352.2,287.7l4.4-1.3
						 M356.6,286.4l4.8-1.1 M361.3,285.3l3.1,0.1 M364.5,285.4l0-1.1 M364.5,284.2l7.4,0.3 M371.9,284.5l0,1.1 M371.8,285.7
						l31.4,1.2 M403.3,286.9l0.1-1.1 M403.3,285.8l7.4,0.3 M410.7,286l0,1.1 M410.7,287.2l31.5,1.2 M442.1,288.4l0-1.1 M442.2,287.3
						l7.4,0.3 M449.5,287.6l-0.1,1.1 M449.5,288.7l4,0.2 M453.4,288.8l-0.3,6.7 M453.2,295.5l23.1,0.9 M476.3,296.4l0.3-6.6
						 M476.5,289.8l4,0.2 M480.5,289.9l0.1-1.1 M480.6,288.8l7.4,0.3 M487.9,289.1l0,0.7 M487.9,289.8l0.7,0 M488.6,289.8l0.2-3.3
						 M488.7,286.5l-6.4,174.4 M482.4,460.9l-1,26.6 M481.4,487.5L440,486"/>
				</g>
				<g>
					<path fill="none" stroke="#000000" stroke-width="0.25" d="M701.7,489.4L600,486.1 M600,486.1l0.7-21.5 M600.7,464.7l101.7,3.3
						 M702.4,468l-0.7,21.5"/>
				</g>
				<g>
					<path fill="none" stroke="#000000" stroke-width="0.25" d="M701.7,489.4l0,2.2"/>
				</g>
			</g>
			<g id="_x36_25_x5F_site_x5F_00_-_0075_x5F_Existing_Buildings">
				<g>
					<path fill="none" stroke="#000000" stroke-width="0.25" d="M453,518.2l-14.7-0.8 M438.2,517.4L440,486"/>
				</g>
				<g>
					<path fill="none" stroke="#000000" stroke-width="0.25" d="M453,518.2l-0.8,13.4 M452.2,531.7l8.9,0.5 M461.1,532.1l0.1,13.2"
						/>
				</g>
			</g>
			<g id="_x36_25_x5F_01_x5F_fitt_x5F_01_-_800_x5F_Loose_Furniture_and_Equipment">
				<g>
					<path fill="none" stroke="#000000" stroke-width="0.25" d="M619.1,460.1L619.1,460.1"/>
				</g>
				<g>
					<path fill="none" stroke="#000000" stroke-width="0.25" d="M709.2,397l0.1-6.1"/>
				</g>
			</g>
			<g id="_x31_-first_PROP_x24_0_x24__x5F_TMD-window_-_extg">
				<g>
					<path fill="none" stroke="#000000" stroke-width="0.25" d="M505.3,461l52.1,1.9"/>
				</g>
				<g>
					<path fill="none" stroke="#000000" stroke-width="0.25" d="M567,463.2l52.1,1.8"/>
				</g>
				<g>
					<path fill="none" stroke="#000000" stroke-width="0.25" d="M505.8,456l51.6,1.8"/>
				</g>
				<g>
					<path fill="none" stroke="#000000" stroke-width="0.25" d="M567.4,458.2l51.6,1.8"/>
				</g>
				<g>
					<path fill="none" stroke="#000000" stroke-width="0.25" d="M567.3,460.8l51.6,1.9"/>
				</g>
				<g>
					<path fill="none" stroke="#000000" stroke-width="0.25" d="M505.7,458.7l17.6,0.6"/>
				</g>
				<g>
					<path fill="none" stroke="#000000" stroke-width="0.25" d="M539.8,459.9l17.4,0.6"/>
				</g>
				<g>
					<path fill="none" stroke="#000000" stroke-width="0.25" d="M690.4,462.4l-17.1-0.6"/>
				</g>
				<g>
					<path fill="none" stroke="#000000" stroke-width="0.25" d="M633.9,465.6l17.8,0.6"/>
				</g>
				<g>
					<path fill="none" stroke="#000000" stroke-width="0.25" d="M672.8,466.9l17.8,0.6"/>
				</g>
				<g>
					<path fill="none" stroke="#000000" stroke-width="0.25" d="M673.1,464.5l17.1,0.6"/>
				</g>
				<g>
					<path fill="none" stroke="#000000" stroke-width="0.25" d="M576.6,288.5l14.7,0.5"/>
				</g>
				<g>
					<path fill="none" stroke="#000000" stroke-width="0.25" d="M610.2,289.7l14.8,0.5"/>
				</g>
				<g>
					<path fill="none" stroke="#000000" stroke-width="0.25" d="M677.5,292.1l14.8,0.5"/>
				</g>
				<g>
					<path fill="none" stroke="#000000" stroke-width="0.25" d="M509.1,286.1l14.7,0.5"/>
				</g>
				<g>
					<path fill="none" stroke="#000000" stroke-width="0.25" d="M542.7,287.3l14.8,0.5"/>
				</g>
				<g>
					<path fill="none" stroke="#000000" stroke-width="0.25" d="M576.9,287.3l14.2,0.5"/>
				</g>
				<g>
					<path fill="none" stroke="#000000" stroke-width="0.25" d="M543,286.1l14.2,0.5"/>
				</g>
				<g>
					<path fill="none" stroke="#000000" stroke-width="0.25" d="M610.5,288.5l14.2,0.5"/>
				</g>
				<g>
					<path fill="none" stroke="#000000" stroke-width="0.25" d="M644.1,289.7l14.2,0.5"/>
				</g>
				<g>
					<path fill="none" stroke="#000000" stroke-width="0.25" d="M677.8,290.9l14.2,0.5"/>
				</g>
				<g>
					<path fill="none" stroke="#000000" stroke-width="0.25" d="M509.4,284.9l14.2,0.5"/>
				</g>
				<g>
					<path fill="none" stroke="#000000" stroke-width="0.25" d="M550.2,285.2l7.1,0.3"/>
				</g>
				<g>
					<path fill="none" stroke="#000000" stroke-width="0.25" d="M550.2,285.2l-7.1-0.3"/>
				</g>
				<g>
					<path fill="none" stroke="#000000" stroke-width="0.25" d="M516.6,284.1l7.1,0.3"/>
				</g>
				<g>
					<path fill="none" stroke="#000000" stroke-width="0.25" d="M516.6,284.1l-7.1-0.3"/>
				</g>
				<g>
					<path fill="none" stroke="#000000" stroke-width="0.25" d="M584,286.4l7.1,0.3"/>
				</g>
				<g>
					<path fill="none" stroke="#000000" stroke-width="0.25" d="M584,286.4l-7.1-0.3"/>
				</g>
				<g>
					<path fill="none" stroke="#000000" stroke-width="0.25" d="M617.7,287.6l7.1,0.3"/>
				</g>
				<g>
					<path fill="none" stroke="#000000" stroke-width="0.25" d="M651.3,288.8l7.1,0.3"/>
				</g>
				<g>
					<path fill="none" stroke="#000000" stroke-width="0.25" d="M651.3,288.8l-7.1-0.3"/>
				</g>
				<g>
					<path fill="none" stroke="#000000" stroke-width="0.25" d="M685,290l7.1,0.3"/>
				</g>
				<g>
					<path fill="none" stroke="#000000" stroke-width="0.25" d="M685,290l-7.1-0.3"/>
				</g>
				<g>
					<path fill="none" stroke="#000000" stroke-width="0.25" d="M617.7,287.6l-7.1-0.3"/>
				</g>
				<g>
					<path fill="none" stroke="#000000" stroke-width="0.25" d="M524.1,283.2l-14.8-0.5"/>
				</g>
				<g>
					<path fill="none" stroke="#000000" stroke-width="0.25" d="M591.5,285.6l-14.8-0.5"/>
				</g>
				<g>
					<path fill="none" stroke="#000000" stroke-width="0.25" d="M625.1,286.8l-14.8-0.5"/>
				</g>
				<g>
					<path fill="none" stroke="#000000" stroke-width="0.25" d="M658.7,288l-14.8-0.5"/>
				</g>
				<g>
					<path fill="none" stroke="#000000" stroke-width="0.25" d="M692.5,289.2l-14.8-0.5"/>
				</g>
				<g>
					<path fill="none" stroke="#000000" stroke-width="0.25" d="M557.7,284.4l-14.9-0.5"/>
				</g>
				<g>
					<path fill="none" stroke="#000000" stroke-width="0.25" d="M651.3,461.5l-16.7-0.6"/>
				</g>
				<g>
					<path fill="none" stroke="#000000" stroke-width="0.25" d="M634.2,464.8l-0.3,0"/>
				</g>
				<g>
					<path fill="none" stroke="#000000" stroke-width="0.25" d="M634.5,463.4l16.7,0.5"/>
				</g>
				<g>
					<path fill="none" stroke="#000000" stroke-width="0.25" d="M489.7,486.3l-0.5,17.1 M489.2,503.4l100.3,3.1 M589.5,506.5
						l1.4-42.5"/>
				</g>
				<g>
					<path fill="none" stroke="#000000" stroke-width="0.25" d="M489,487l-0.5,17.1 M488.5,504.1l101.7,3.1 M590.2,507.2l1.4-43.2"
						/>
				</g>
				<g>
					<path fill="none" stroke="#000000" stroke-width="0.25" d="M489,487l-1.4,0"/>
				</g>
				<g>
					<path fill="none" stroke="#000000" stroke-width="0.25" d="M487.6,486.3l2.2,0.1"/>
				</g>
				<g>
					<path fill="none" stroke="#000000" stroke-width="0.25" d="M711.2,297.1"/>
				</g>
				<g>
					<path fill="none" stroke="#000000" stroke-width="0.25" d="M733.4,302.6"/>
				</g>
				<g>
					<path fill="none" stroke="#000000" stroke-width="0.25" d="M733.4,304.6"/>
				</g>
				<g>
					<path fill="none" stroke="#000000" stroke-width="0.25" d="M731.5,306.3"/>
				</g>
			</g>
			<g id="_x32_10_x5F_Ext_Walls">
				<g>
					<path fill="none" stroke="#000000" stroke-width="0.25" d="M699.1,462.7l-8.8-0.3"/>
				</g>
				<g>
					<path fill="none" stroke="#000000" stroke-width="0.25" d="M673.2,461.8l-5.5-0.2"/>
				</g>
				<g>
					<path fill="none" stroke="#000000" stroke-width="0.25" d="M619.1,465l14.8,0.5"/>
				</g>
				<g>
					<path fill="none" stroke="#000000" stroke-width="0.25" d="M651.7,466.2l21.1,0.7"/>
				</g>
				<g>
					<path fill="none" stroke="#000000" stroke-width="0.25" d="M669.6,394.6l-1.6,56.3"/>
				</g>
				<g>
					<path fill="none" stroke="#000000" stroke-width="0.25" d="M690.4,462.4l-0.1,2.6"/>
				</g>
				<g>
					<path fill="none" stroke="#000000" stroke-width="0.25" d="M673.2,461.8l-0.1,2.7"/>
				</g>
				<g>
					<path fill="none" stroke="#000000" stroke-width="0.25" d="M667.7,461.2l-1.8-0.1"/>
				</g>
				<g>
					<path fill="none" stroke="#000000" stroke-width="0.25" d="M668,450.9l-1.9-0.1"/>
				</g>
				<g>
					<path fill="none" stroke="#000000" stroke-width="0.25" d="M667.7,461.2l0,0.4"/>
				</g>
				<g>
					<path fill="none" stroke="#000000" stroke-width="0.25" d="M690.6,466.4l0,1.1"/>
				</g>
				<g>
					<path fill="none" stroke="#000000" stroke-width="0.25" d="M673.1,464.5l0,1.4"/>
				</g>
				<g>
					<path fill="none" stroke="#000000" stroke-width="0.25" d="M672.8,465.9l0,1.1"/>
				</g>
				<g>
					<path fill="none" stroke="#000000" stroke-width="0.25" d="M566.9,294.2l9.5,0.3"/>
				</g>
				<g>
					<path fill="none" stroke="#000000" stroke-width="0.25" d="M576.6,288.5l-0.2,6"/>
				</g>
				<g>
					<path fill="none" stroke="#000000" stroke-width="0.25" d="M591.3,289.1l-0.2,6"/>
				</g>
				<g>
					<path fill="none" stroke="#000000" stroke-width="0.25" d="M610.2,289.7l-0.2,6"/>
				</g>
				<g>
					<path fill="none" stroke="#000000" stroke-width="0.25" d="M625,290.3l-0.2,6"/>
				</g>
				<g>
					<path fill="none" stroke="#000000" stroke-width="0.25" d="M677.5,292.1l-0.2,6"/>
				</g>
				<g>
					<path fill="none" stroke="#000000" stroke-width="0.25" d="M692.3,292.6l-0.2,6"/>
				</g>
				<g>
					<path fill="none" stroke="#000000" stroke-width="0.25" d="M643.9,290.9l-0.2,6"/>
				</g>
				<g>
					<path fill="none" stroke="#000000" stroke-width="0.25" d="M658.6,291.5l-0.2,6"/>
				</g>
				<g>
					<path fill="none" stroke="#000000" stroke-width="0.25" d="M643.9,290.9l14.7,0.5"/>
				</g>
				<g>
					<path fill="none" stroke="#000000" stroke-width="0.25" d="M566.9,294.2l-9.6-0.3"/>
				</g>
				<g>
					<path fill="none" stroke="#000000" stroke-width="0.25" d="M557.5,287.9l-0.2,6"/>
				</g>
				<g>
					<path fill="none" stroke="#000000" stroke-width="0.25" d="M624.7,296.3l18.9,0.7"/>
				</g>
				<g>
					<path fill="none" stroke="#000000" stroke-width="0.25" d="M591.1,295.1l18.9,0.7"/>
				</g>
				<g>
					<path fill="none" stroke="#000000" stroke-width="0.25" d="M658.4,297.5l18.9,0.7"/>
				</g>
				<g>
					<path fill="none" stroke="#000000" stroke-width="0.25" d="M505.4,460.1l0,0.9"/>
				</g>
				<g>
					<path fill="none" stroke="#000000" stroke-width="0.25" d="M591.3,289.1l0-1.2"/>
				</g>
				<g>
					<path fill="none" stroke="#000000" stroke-width="0.25" d="M576.6,288.5l0-1.2"/>
				</g>
				<g>
					<path fill="none" stroke="#000000" stroke-width="0.25" d="M576.7,287.3l0.2,0"/>
				</g>
				<g>
					<path fill="none" stroke="#000000" stroke-width="0.25" d="M591,287.8l0.3,0"/>
				</g>
				<g>
					<path fill="none" stroke="#000000" stroke-width="0.25" d="M557.5,287.9l0-1.2"/>
				</g>
				<g>
					<path fill="none" stroke="#000000" stroke-width="0.25" d="M557.3,286.6l0.3,0"/>
				</g>
				<g>
					<path fill="none" stroke="#000000" stroke-width="0.25" d="M625,290.3l0-1.2"/>
				</g>
				<g>
					<path fill="none" stroke="#000000" stroke-width="0.25" d="M610.2,289.7l0-1.2"/>
				</g>
				<g>
					<path fill="none" stroke="#000000" stroke-width="0.25" d="M610.2,288.5l0.3,0"/>
				</g>
				<g>
					<path fill="none" stroke="#000000" stroke-width="0.25" d="M624.7,289l0.3,0"/>
				</g>
				<g>
					<path fill="none" stroke="#000000" stroke-width="0.25" d="M658.6,291.5l0-1.2"/>
				</g>
				<g>
					<path fill="none" stroke="#000000" stroke-width="0.25" d="M643.9,290.9l0-1.2"/>
				</g>
				<g>
					<path fill="none" stroke="#000000" stroke-width="0.25" d="M643.9,289.7l0.2,0"/>
				</g>
				<g>
					<path fill="none" stroke="#000000" stroke-width="0.25" d="M658.3,290.2l0.3,0"/>
				</g>
				<g>
					<path fill="none" stroke="#000000" stroke-width="0.25" d="M692.3,292.6l0-1.2"/>
				</g>
				<g>
					<path fill="none" stroke="#000000" stroke-width="0.25" d="M677.5,292.1l0-1.2"/>
				</g>
				<g>
					<path fill="none" stroke="#000000" stroke-width="0.25" d="M677.6,290.9l0.3,0"/>
				</g>
				<g>
					<path fill="none" stroke="#000000" stroke-width="0.25" d="M692,291.4l0.3,0"/>
				</g>
				<g>
					<path fill="none" stroke="#000000" stroke-width="0.25" d="M649.2,375.1l-0.1,4.9"/>
				</g>
				<g>
					<path fill="none" stroke="#000000" stroke-width="0.25" d="M660.4,380.2l0.1-5.1"/>
				</g>
				<g>
					<path fill="none" stroke="#000000" stroke-width="0.25" d="M660.4,380.2l4.5,0.1 M664.9,380.3l-0.5,19 M664.5,399.3l-10.2-0.3"
						/>
				</g>
				<g>
					<path fill="none" stroke="#000000" stroke-width="0.25" d="M649.1,380l-4.5-0.1 M644.6,379.8l-0.5,19 M644.1,398.8l10.2,0.2"/>
				</g>
				<g>
					<path fill="none" stroke="#000000" stroke-width="0.25" d="M557.3,285.5l0.3,0 M557.6,285.5l0.1-1.1"/>
				</g>
				<g>
					<path fill="none" stroke="#000000" stroke-width="0.25" d="M543.1,285l-0.3,0 M542.8,285l0-1.1 M542.8,283.9l-2.9-0.1
						 M539.9,283.8l-0.2,4.4"/>
				</g>
				<g>
					<path fill="none" stroke="#000000" stroke-width="0.25" d="M523.7,285.4l0-1.1 M523.7,284.3l0.3,0 M524,284.3l0-1.1
						 M524.1,283.2l2.9,0.1 M527,283.3l-0.2,4.4"/>
				</g>
				<g>
					<path fill="none" stroke="#000000" stroke-width="0.25" d="M509.5,283.8l-0.3,0 M509.2,283.8l0-1.1 M509.2,282.7l-2.9-0.1
						 M506.3,282.6l-0.1,4.4 M506.2,287l-17.4-0.5"/>
				</g>
				<g>
					<path fill="none" stroke="#000000" stroke-width="0.25" d="M591.1,286.7l0.3,0 M591.4,286.7l0-1.1"/>
				</g>
				<g>
					<path fill="none" stroke="#000000" stroke-width="0.25" d="M576.9,286.2l-0.3,0 M576.6,286.2l0-1.1"/>
				</g>
				<g>
					<path fill="none" stroke="#000000" stroke-width="0.25" d="M624.8,287.9l0.3,0 M625.1,287.9l0-1.1"/>
				</g>
				<g>
					<path fill="none" stroke="#000000" stroke-width="0.25" d="M658.4,289.1l0.3,0 M658.7,289.1l0-0.3"/>
				</g>
				<g>
					<path fill="none" stroke="#000000" stroke-width="0.25" d="M658.7,288.8l0-0.8"/>
				</g>
				<g>
					<path fill="none" stroke="#000000" stroke-width="0.25" d="M644.2,288.6l-0.3,0 M643.8,288.6l0.1-1.1"/>
				</g>
				<g>
					<path fill="none" stroke="#000000" stroke-width="0.25" d="M692.1,290.3l0.3,0 M692.4,290.3l0-1.1"/>
				</g>
				<g>
					<path fill="none" stroke="#000000" stroke-width="0.25" d="M677.9,289.8l-0.3,0 M677.6,289.8l0-1.1"/>
				</g>
				<g>
					<path fill="none" stroke="#000000" stroke-width="0.25" d="M610.6,287.4l-0.3,0 M610.2,287.4l0-1.1"/>
				</g>
				<g>
					<path fill="none" stroke="#000000" stroke-width="0.25" d="M594.2,290.1l0.2-4.4"/>
				</g>
				<g>
					<path fill="none" stroke="#000000" stroke-width="0.25" d="M594.4,285.7l-2.9-0.1"/>
				</g>
				<g>
					<path fill="none" stroke="#000000" stroke-width="0.25" d="M576.6,285.1l-2.9-0.1 M573.7,285l-0.1,4.4"/>
				</g>
				<g>
					<path fill="none" stroke="#000000" stroke-width="0.25" d="M627.9,291.3l0.1-4.5 M628,286.9l-2.9-0.1"/>
				</g>
				<g>
					<path fill="none" stroke="#000000" stroke-width="0.25" d="M610.3,286.3l-2.9-0.1"/>
				</g>
				<g>
					<path fill="none" stroke="#000000" stroke-width="0.25" d="M607.4,286.2l-0.2,4.4"/>
				</g>
				<g>
					<path fill="none" stroke="#000000" stroke-width="0.25" d="M661.5,292.5l0.2-4.4"/>
				</g>
				<g>
					<path fill="none" stroke="#000000" stroke-width="0.25" d="M661.6,288.1l-2.9-0.1"/>
				</g>
				<g>
					<path fill="none" stroke="#000000" stroke-width="0.25" d="M643.9,287.5l-2.9-0.1"/>
				</g>
				<g>
					<path fill="none" stroke="#000000" stroke-width="0.25" d="M641,287.4l-0.1,4.4"/>
				</g>
				<g>
					<path fill="none" stroke="#000000" stroke-width="0.25" d="M695.2,293.7l0.2-4.4"/>
				</g>
				<g>
					<path fill="none" stroke="#000000" stroke-width="0.25" d="M695.4,289.3l-2.9-0.1"/>
				</g>
				<g>
					<path fill="none" stroke="#000000" stroke-width="0.25" d="M677.6,288.7l-2.9-0.1"/>
				</g>
				<g>
					<path fill="none" stroke="#000000" stroke-width="0.25" d="M674.7,288.6l-0.1,4.4"/>
				</g>
				<g>
					<path fill="none" stroke="#000000" stroke-width="0.25" d="M695.2,293.7l12.8,0.4"/>
				</g>
				<g>
					<path fill="none" stroke="#000000" stroke-width="0.25" d="M661.5,292.5l13.1,0.5"/>
				</g>
				<g>
					<path fill="none" stroke="#000000" stroke-width="0.25" d="M627.9,291.3l13,0.4"/>
				</g>
				<g>
					<path fill="none" stroke="#000000" stroke-width="0.25" d="M594.2,290.1l13,0.5"/>
				</g>
				<g>
					<path fill="none" stroke="#000000" stroke-width="0.25" d="M560.4,288.9l13.2,0.5"/>
				</g>
				<g>
					<path fill="none" stroke="#000000" stroke-width="0.25" d="M526.8,287.7l13,0.5"/>
				</g>
				<g>
					<path fill="none" stroke="#000000" stroke-width="0.25" d="M624.7,289l0-1.1"/>
				</g>
				<g>
					<path fill="none" stroke="#000000" stroke-width="0.25" d="M610.5,288.5l0-1.1"/>
				</g>
				<g>
					<path fill="none" stroke="#000000" stroke-width="0.25" d="M658.3,290.2l0-1.1"/>
				</g>
				<g>
					<path fill="none" stroke="#000000" stroke-width="0.25" d="M644.1,289.7l0-1.1"/>
				</g>
				<g>
					<path fill="none" stroke="#000000" stroke-width="0.25" d="M692,291.4l0-1.1"/>
				</g>
				<g>
					<path fill="none" stroke="#000000" stroke-width="0.25" d="M677.8,290.9l0-1.1"/>
				</g>
				<g>
					<path fill="none" stroke="#000000" stroke-width="0.25" d="M591,287.8l0-1.1"/>
				</g>
				<g>
					<path fill="none" stroke="#000000" stroke-width="0.25" d="M576.9,287.3l0-1.1"/>
				</g>
				<g>
					<path fill="none" stroke="#000000" stroke-width="0.25" d="M557.3,286.6l0-1.1"/>
				</g>
				<g>
					<path fill="none" stroke="#000000" stroke-width="0.25" d="M543,286.1l0.1-1.1"/>
				</g>
				<g>
					<path fill="none" stroke="#000000" stroke-width="0.25" d="M509.4,284.9l0-1.1"/>
				</g>
				<g>
					<path fill="none" stroke="#000000" stroke-width="0.25" d="M626.7,374.5l22.5,0.5"/>
				</g>
				<g>
					<path fill="none" stroke="#000000" stroke-width="0.25" d="M690.6,466.4l-0.3,0"/>
				</g>
				<g>
					<path fill="none" stroke="#000000" stroke-width="0.25" d="M673.1,465.9l-0.3,0"/>
				</g>
				<g>
					<path fill="none" stroke="#000000" stroke-width="0.25" d="M560.4,288.9l0.1-4.4"/>
				</g>
				<g>
					<path fill="none" stroke="#000000" stroke-width="0.25" d="M560.5,284.5l-2.9-0.1"/>
				</g>
				<g>
					<path fill="none" stroke="#000000" stroke-width="0.25" d="M651.4,461.5l-0.2,0"/>
				</g>
				<g>
					<path fill="none" stroke="#000000" stroke-width="0.25" d="M665.8,461.8l0-0.7"/>
				</g>
				<g>
					<path fill="none" stroke="#000000" stroke-width="0.25" d="M653.4,461.4l0.4-12.5"/>
				</g>
				<g>
					<path fill="none" stroke="#000000" stroke-width="0.25" d="M653.4,461.4l12.5,0.5"/>
				</g>
				<g>
					<path fill="none" stroke="#000000" stroke-width="0.25" d="M653.7,448.9l0.7,0"/>
				</g>
				<g>
					<path fill="none" stroke="#000000" stroke-width="0.25" d="M666.2,450.9l0-1.5"/>
				</g>
				<g>
					<path fill="none" stroke="#000000" stroke-width="0.25" d="M651.8,447.4l2.7,0.1"/>
				</g>
				<g>
					<path fill="none" stroke="#000000" stroke-width="0.25" d="M665.5,449.3l0-1.4"/>
				</g>
				<g>
					<path fill="none" stroke="#000000" stroke-width="0.25" d="M654.5,448.9l0-1.4"/>
				</g>
				<g>
					<path fill="none" stroke="#000000" stroke-width="0.25" d="M665.6,447.9l0.7,0"/>
				</g>
				<g>
					<path fill="none" stroke="#000000" stroke-width="0.25" d="M665.5,449.3l0.7,0"/>
				</g>
				<g>
					<path fill="none" stroke="#000000" stroke-width="0.25" d="M651.7,466.2l0-0.8"/>
				</g>
				<g>
					<path fill="none" stroke="#000000" stroke-width="0.25" d="M651.7,465.4l-0.6,0"/>
				</g>
				<g>
					<path fill="none" stroke="#000000" stroke-width="0.25" d="M651.1,465.3l0.1-3.8"/>
				</g>
				<g>
					<path fill="none" stroke="#000000" stroke-width="0.25" d="M701.7,383.8l-2.6,79"/>
				</g>
				<g>
					<path fill="none" stroke="#000000" stroke-width="0.25" d="M651.4,461.5l0.4-14.1"/>
				</g>
				<g>
					<path fill="none" stroke="#000000" stroke-width="0.25" d="M567.5,371.3l-6.9-0.2"/>
				</g>
				<g>
					<path fill="none" stroke="#000000" stroke-width="0.25" d="M560.6,371l-0.3,9.2"/>
				</g>
				<g>
					<path fill="none" stroke="#000000" stroke-width="0.25" d="M560.3,380.3l6.9,0.2"/>
				</g>
				<g>
					<path fill="none" stroke="#000000" stroke-width="0.25" d="M567.2,380.5l0.3-9.2"/>
				</g>
				<g>
					<path fill="none" stroke="#000000" stroke-width="0.25" d="M505.8,456l-0.1,4 M505.7,460.1l-0.3,0"/>
				</g>
				<g>
					<path fill="none" stroke="#000000" stroke-width="0.25" d="M481.2,487.4l-1.1,37.4 M480,524.8l6.4,0.2 M486.4,525l1.1-37.3"/>
				</g>
				<g>
					<path fill="none" stroke="#000000" stroke-width="0.25" d="M509.1,286.1l-0.2,6 M508.9,292.2l-12.8-0.4 M496.1,291.7l-2.1,47.4
						 M494.1,339.1l-1.4,31.1 M492.7,370.1l3.7,0.1 M496.5,370.3l-0.4,9.2 M496.1,379.5l-3.7-0.1 M492.3,379.4l-2.5,54.7 M489.9,434
						l-0.9,15.7 M489,449.7l3.7,0.2 M492.7,449.9l0,2.8 M492.6,452.7l3.1,0.2 M495.7,452.9l-0.1,2.8 M495.6,455.7l10.2,0.4"/>
				</g>
				<g>
					<path fill="none" stroke="#000000" stroke-width="0.25" d="M509.1,286.1l0-1.2 M509.2,284.9l0.3,0"/>
				</g>
				<g>
					<path fill="none" stroke="#000000" stroke-width="0.25" d="M523.9,286.7l0.1-1.2 M523.9,285.4l-0.3,0"/>
				</g>
				<g>
					<path fill="none" stroke="#000000" stroke-width="0.25" d="M523.9,286.7l-0.2,6 M523.7,292.7l18.9,0.7 M542.5,293.4l0.2-6"/>
				</g>
				<g>
					<path fill="none" stroke="#000000" stroke-width="0.25" d="M542.7,287.3l0.1-1.2 M542.8,286.1l0.2,0"/>
				</g>
				<g>
					<path fill="none" stroke="#000000" stroke-width="0.25" d="M618.9,464.1l0.3,0 M619.1,464.1l0,0.9"/>
				</g>
				<g>
					<path fill="none" stroke="#000000" stroke-width="0.25" d="M618.9,464.1l0.2-4 M619,460.1l9.3,0.4 M628.3,460.4l2.1-58.6"/>
				</g>
				<g>
					<path fill="none" stroke="#000000" stroke-width="0.25" d="M634.4,464.8l-0.5,0 M633.9,464.8l0,0.8"/>
				</g>
				<g>
					<path fill="none" stroke="#000000" stroke-width="0.25" d="M666.3,447.9l1.2-43.4"/>
				</g>
				<g>
					<path fill="none" stroke="#000000" stroke-width="0.25" d="M667.5,404.5l-34.8-0.8"/>
				</g>
				<g>
					<path fill="none" stroke="#000000" stroke-width="0.25" d="M632.6,403.7l-1,34.1"/>
				</g>
				<g>
					<path fill="none" stroke="#000000" stroke-width="0.25" d="M631.6,437.8l3.6,0.1"/>
				</g>
				<g>
					<path fill="none" stroke="#000000" stroke-width="0.25" d="M635.2,437.9l-0.7,23"/>
				</g>
				<g>
					<path fill="none" stroke="#000000" stroke-width="0.25" d="M634.5,460.9l-0.1,2.7"/>
				</g>
				<g>
					<path fill="none" stroke="#000000" stroke-width="0.25" d="M634.5,463.6l0,1.2"/>
				</g>
				<g>
					<path fill="none" stroke="#000000" stroke-width="0.25" d="M557.2,461.9l0.3,0 M557.5,461.9l0,0.9 M557.5,462.8l9.5,0.3
						 M567,463.2l0-0.9 M567,462.3l0.3,0 M567.3,462.3l0.1-4 M567.4,458.2l-10-0.4 M557.4,457.9l-0.2,4"/>
				</g>
				<g>
					<path fill="none" stroke="#000000" stroke-width="0.25" d="M626.6,376.1l-0.5,13.7 M626.1,389.7l2.2,0.1 M628.3,389.8l0.3-13.2
						 M628.6,376.6l14,0.3 M642.7,376.9l-0.6,23.5 M642.1,400.4l-14-0.4 M628.1,400l0-0.4 M628.1,399.7l-2.3-0.1 M625.8,399.6
						l-0.1,2.1 M625.7,401.7l4.7,0.2"/>
				</g>
				<g>
					<path fill="none" stroke="#000000" stroke-width="0.25" d="M660.5,375.1l14.1,0.5"/>
				</g>
				<g>
					<path fill="none" stroke="#000000" stroke-width="0.25" d="M487.5,487.7l0.7-27.3 M488.2,460.4l17.1,0.6"/>
				</g>
				<g>
					<path fill="none" stroke="#000000" stroke-width="0.25" d="M690.6,467.6l16.3,0.6 M706.8,468.1l0.6-34"/>
				</g>
				<g>
					<path fill="none" stroke="#000000" stroke-width="0.25" d="M684.1,376l-7.6-0.3 M676.5,375.7l0.1-1.8 M676.6,373.9l-1.9-0.1"/>
				</g>
				<g>
					<path fill="none" stroke="#000000" stroke-width="0.25" d="M674.6,375.6l0.1-1.8"/>
				</g>
				<g>
					<path fill="none" stroke="#000000" stroke-width="0.25" d="M690.3,466.4l0-1.4 M690.3,465l0,1.4"/>
				</g>
				<g>
					<path fill="none" stroke="#000000" stroke-width="0.25" d="M684.1,377.4l-8.7-0.3 M675.4,377.1l-0.1,1.8 M675.3,378.9l-1.4,0
						 M673.9,378.9l0-1.5 M674,377.4l-3.7-0.1 M670.2,377.3l-0.5,15.9 M669.8,393.2l3.8,0.1 M673.5,393.3l0-0.2 M673.5,393.1l1.4,0
						 M674.9,393.1l-0.1,1.6 M674.9,394.8l-5.3-0.1"/>
				</g>
				<g>
					<path fill="none" stroke="#000000" stroke-width="0.25" d="M699.3,376.4l-1,0 M698.3,376.4l-0.2,7.2 M698.1,383.6l3.7,0.1"/>
				</g>
				<g>
					<path fill="none" stroke="#000000" stroke-width="0.25" d="M699.3,376.4l0.1-3.3 M699.4,373.2l10.4,0.3"/>
				</g>
				<g>
					<path fill="none" stroke="#000000" stroke-width="0.25" d="M710.2,362.2l-10.4-0.3 M699.8,361.8l0.1-3 M699.9,358.8l-22.8-0.7
						 M677.1,358.1l-0.1,2.2 M677,360.2l-1.4,0 M675.6,360.2l0-0.6 M675.6,359.6l-0.5,0 M675.2,359.6l0.1-3.4 M675.3,356.1l27.5,0.9
						 M702.7,357l1.9-57.9 M704.6,299.1l-12.5-0.4"/>
				</g>
				<g>
					<path fill="none" stroke="#000000" stroke-width="0.25" d="M731.5,306.3l0-1.7 M731.5,304.6l1.8,0 M733.4,304.6l0-2
						 M733.4,302.6l-0.1,0 M733.3,302.6l0.1-5.1"/>
				</g>
				<g>
					<path fill="none" stroke="#000000" stroke-width="0.25" d="M711.2,297.1l0.1-2.2 M711.3,294.9l-3.3-0.1 M708,294.8l0-0.7"/>
				</g>
				<g>
					<path fill="none" stroke="#000000" stroke-width="0.25" d="M626.6,376.1L626.6,376.1 M626.6,376.1L626.6,376.1 M626.6,376.1
						l-27-0.9 M599.6,375.2l-0.4,12.3 M599.2,387.5l-1.4,0 M597.8,387.4l0.5-13.8 M598.2,373.6l28.4,0.9"/>
				</g>
				<g>
					<path fill="none" stroke="#000000" stroke-width="0.25" d="M709.8,373.5l0.3-11.3"/>
				</g>
				<g>
					<path fill="none" stroke="#000000" stroke-width="0.25" d="M708.2,427 M708.2,427l1.7-53.5"/>
				</g>
				<g>
					<path fill="none" stroke="#000000" stroke-width="0.25" d="M710.2,362.2l1.7-56.2 M711.9,305.9l19.6,0.3"/>
				</g>
				<g>
					<path fill="none" stroke="#000000" stroke-width="0.25" d="M481.2,487.4l7.6-201"/>
				</g>
			</g>
			<g id="_x31_-first_PROP_x24_0_x24__x5F_TMD-wall_-_extg">
				<g>
					<path fill="none" stroke="#000000" stroke-width="0.25" d="M672.8,465.9l0.3,0"/>
				</g>
				<g>
					<path fill="none" stroke="#000000" stroke-width="0.25" d="M690.3,466.4l0.3,0"/>
				</g>
				<g>
					<path fill="none" stroke="#000000" stroke-width="0.25" d="M692.1,298.7l12.2,0.4"/>
				</g>
				<g>
					<path fill="none" stroke="#000000" stroke-width="0.25" d="M702.7,357l1.9-57.9"/>
				</g>
				<g>
					<path fill="none" stroke="#000000" stroke-width="0.25" d="M675.2,359.6l0.1-3.4 M675.3,356.1l27.5,0.9"/>
				</g>
			</g>
			<g id="_x31_-first_PROP_x24_0_x24__x5F_TMD-door_-_extg">
				<g>
					<path fill="none" stroke="#000000" stroke-width="0.25" d="M649.1,378.3l11.3,0.3"/>
				</g>
				<g>
					<path fill="none" stroke="#000000" stroke-width="0.25" d="M674.9,393.1l7.1,0.2 M682.1,393.3L682.1,393.3 M682.1,393.3
						l-0.3-2.2 M681.8,391.1l-1-2 M680.8,389.1l-1.5-1.6 M679.3,387.5l-2-1.1 M677.3,386.4l-2.2-0.4 M675.1,386L675.1,386
						 M675.1,386l2.2-0.3 M677.3,385.7l2-1 M679.4,384.8l1.6-1.5 M681,383.2l1.1-2 M682,381.3l0.4-2.2 M682.4,379.1l-7.1-0.2"/>
				</g>
				<g>
					<path fill="none" stroke="#000000" stroke-width="0.25" d="M666.2,450.9l-2.7,0.3 M663.5,451.1l-2.5,0.9 M661,452.1l-2.2,1.6
						 M658.8,453.7l-1.7,2.1 M657,455.7l-1.1,2.4 M655.9,458.2l-0.5,2.6 M655.4,460.8l10.5,0.3"/>
				</g>
				<g>
					<path fill="none" stroke="#000000" stroke-width="0.25" d="M665.6,447.9l0.4-11.1 M665.9,436.8L665.9,436.8 M665.9,436.8
						l-2.9,0.3 M663.1,437.1l-2.7,1 M660.4,438.1l-2.4,1.7 M658,439.8l-1.8,2.2 M656.2,442l-1.2,2.6 M655,444.7l-0.5,2.8"/>
				</g>
				<g>
					<path fill="none" stroke="#000000" stroke-width="0.25" d="M626.4,389.8l-2.6,0.2 M623.8,390l-2.4,0.9 M621.4,390.9l-2.1,1.5
						 M619.3,392.4l-1.6,2 M617.7,394.4l-1,2.4 M616.7,396.7l-0.4,2.6"/>
				</g>
				<g>
					<path fill="none" stroke="#000000" stroke-width="0.25" d="M626.1,399.6l-9.8-0.3"/>
				</g>
				<g>
					<path fill="none" stroke="#000000" stroke-width="0.25" d="M660.5,375.4l-11.3-0.3"/>
				</g>
				<g>
					<path fill="none" stroke="#000000" stroke-width="0.25" d="M709.8,373.5l11.1,0.4 M720.9,373.9L720.9,373.9 M720.9,373.9
						l-0.3-2.9 M720.6,371l-1-2.7 M719.6,368.3l-1.7-2.4 M717.9,366l-2.2-1.8 M715.7,364.1l-2.6-1.2 M713.1,362.9l-2.8-0.5"/>
				</g>
			</g>
			<g id="_x30_">
				<g>
					<path fill="none" stroke="#000000" stroke-width="0.25" d="M523.3,459.3l0.6,0 M523.8,459.3l0,1.4 M523.8,460.7l-0.6,0"/>
				</g>
				<g>
					<path fill="none" stroke="#000000" stroke-width="0.25" d="M523.8,460.7l-0.6,15.4 M523.3,476.1l0.6,0 M523.8,476.1l0.6-15.4
						 M524.4,460.7l-0.6,0"/>
				</g>
				<g>
					<path fill="none" stroke="#000000" stroke-width="0.25" d="M539.8,459.9l-0.6,0 M539.2,459.9l0,1.4 M539.2,461.3l0.6,0"/>
				</g>
				<g>
					<path fill="none" stroke="#000000" stroke-width="0.25" d="M523.3,459.3l-0.1,1.4"/>
				</g>
				<g>
					<path fill="none" stroke="#000000" stroke-width="0.25" d="M539.8,459.9l0,1.4"/>
				</g>
				<g>
					<path fill="none" stroke="#000000" stroke-width="0.25" d="M539.2,461.3l-0.5,3.4 M538.7,464.7l-1.3,3.2 M537.4,467.9l-1.9,2.9
						 M535.5,470.7l-2.5,2.3 M533,473.1l-3,1.7 M530,474.8l-3.3,1 M526.7,475.8l-3.4,0.3"/>
				</g>
				<g>
					<path fill="none" stroke="#000000" stroke-width="0.25" d="M676.6,373.9l0-0.6 M676.6,373.2l-1.4,0 M675.2,373.2l0,0.6"/>
				</g>
				<g>
					<path fill="none" stroke="#000000" stroke-width="0.25" d="M675.2,373.2l-13-0.4 M662.1,372.8l0-0.6 M662.2,372.2l13,0.4
						 M675.2,372.6l0,0.6"/>
				</g>
				<g>
					<path fill="none" stroke="#000000" stroke-width="0.25" d="M677.1,359.7l0,0.6 M677,360.2l-1.4,0 M675.6,360.2l0-0.6"/>
				</g>
				<g>
					<path fill="none" stroke="#000000" stroke-width="0.25" d="M676.6,373.9l-1.4,0"/>
				</g>
				<g>
					<path fill="none" stroke="#000000" stroke-width="0.25" d="M677.1,359.7l-1.4,0"/>
				</g>
				<g>
					<path fill="none" stroke="#000000" stroke-width="0.25" d="M662.1,372.8l0.6-3.4 M662.7,369.4l1.4-3.1 M664.1,366.3l2.1-2.6
						 M666.3,363.7l2.8-2 M669,361.7l3.2-1.2 M672.2,360.5l3.4-0.3"/>
				</g>
				<g>
					<path fill="none" stroke="#000000" stroke-width="0.25" d="M698.3,376.4l-0.6,0 M697.7,376.4l0,1.4 M697.7,377.8l0.6,0"/>
				</g>
				<g>
					<path fill="none" stroke="#000000" stroke-width="0.25" d="M697.3,390.8l-0.6,0 M696.7,390.8l0.4-13 M697.1,377.8l0.6,0
						 M697.7,377.8L697.7,377.8 M697.7,377.8l-0.4,13"/>
				</g>
				<g>
					<path fill="none" stroke="#000000" stroke-width="0.25" d="M684.1,376l0.6,0 M684.7,376l0,1.4 M684.7,377.4l-0.6,0"/>
				</g>
				<g>
					<path fill="none" stroke="#000000" stroke-width="0.25" d="M698.3,376.4l0,1.4"/>
				</g>
				<g>
					<path fill="none" stroke="#000000" stroke-width="0.25" d="M684.1,376l0,1.4"/>
				</g>
				<g>
					<path fill="none" stroke="#000000" stroke-width="0.25" d="M697.3,390.8l-3.4-0.5 M693.9,390.3l-3.1-1.4 M690.8,388.9l-2.6-2.1
						 M688.2,386.7l-2-2.8 M686.2,383.9l-1.2-3.2 M685,380.8l-0.3-3.4"/>
				</g>
			</g>
			<g id="_x31_-first_PROP_x24_0_x24__x5F_TMD-Cill">
				<g>
					<path fill="none" stroke="#000000" stroke-width="0.25" d="M600,464.4l-1.6,51.6 M598.4,516l-111.6-3.4"/>
				</g>
			</g>
			<g id="_x31_-first_PROP_x24_0_x24__x5F_TMD-stairs">
				<g>
					<path fill="none" stroke="#000000" stroke-width="0.25" d="M601.9,462.1l-0.1,2.3"/>
				</g>
				<g>
					<path fill="none" stroke="#000000" stroke-width="0.25" d="M601.5,462.1l-0.1,2.3"/>
				</g>
				<g>
					<path fill="none" stroke="#000000" stroke-width="0.25" d="M584.7,461.5l-0.1,2.3"/>
				</g>
				<g>
					<path fill="none" stroke="#000000" stroke-width="0.25" d="M584.3,461.4l-0.1,2.3"/>
				</g>
			</g>
			<g id="_x36_25_x5F_21_x5F_plan_x5F_01_-_302_x5F_Door_x5F_Window_Swings">
				<g>
					<path fill="none" stroke="#000000" stroke-width="0.25" d="M707.8,373.4L707.8,373.4 M707.8,373.4l0.8,0"/>
				</g>
				<g>
					<path fill="none" stroke="#000000" stroke-width="0.25" d="M708.2,362.1L708.2,362.1 M708.2,362.1l0.8,0"/>
				</g>
			</g>
			<g id="_x36_25_x5F_21_x5F_plan_x5F_01_-_422_x5F_Timber_Int_Wall_Finish">
				<g>
					<path fill="none" stroke="#000000" stroke-width="0.25" d="M709.1,373.5l-6.9-0.2"/>
				</g>
			</g>
			<g id="_x38_00_x5F_Loose_Furniture_and_Equipment">
				<g>
					<path fill="none" stroke="#000000" stroke-width="0.25" d="M494.2,332.1l0.2-6.1"/>
				</g>
				<g>
					<path fill="none" stroke="#000000" stroke-width="0.25" d="M505.8,292.8l-8.2-0.4 M497.5,292.4l-1.1,25.7 M496.4,318.1l8.2,0.4
						 M504.6,318.5l1.1-25.7"/>
				</g>
			</g>
			<g id="_x36_25_x5F_01_x5F_fitt_x5F_03_-_800_x5F_Loose_Furniture_and_Equipment">
				<g>
					<path fill="none" stroke="#000000" stroke-width="0.25" d="M493.3,382L493.3,382 M495.1,389.5L495.1,389.5 M495.1,389.5
						L495.1,389.5 M495.1,389.5L495.1,389.5"/>
				</g>
				<g>
					<path fill="none" stroke="#000000" stroke-width="0.25" d="M492.7,401.8L492.7,401.8 M494.9,394.5L494.9,394.5 M494.9,394.5
						L494.9,394.5 M494.9,394.5L494.9,394.5"/>
				</g>
				<g>
					<path fill="none" stroke="#000000" stroke-width="0.25" d="M610.8,449.3l-12.7-0.4 M598,448.9l0.9-28.3 M599,420.5l12.7,0.4
						 M611.7,420.9l-0.9,28.3"/>
				</g>
			</g>
			<g id="_x30_81_x5F_Timber-Timber_Products">
				<g>
					<path fill="none" stroke="#000000" stroke-width="0.25" d="M566.7,395.7l-14-0.5 M552.7,395.3l0.4-12.9 M553.1,382.4l14,0.5
						 M567.1,382.8l-0.4,12.9"/>
				</g>
				<g>
					<path fill="none" stroke="#000000" stroke-width="0.25" d="M711.5,318.8l0.4-12.9 M711.9,305.9l14,0.5"/>
				</g>
			</g>
			<g id="_x37_31_x5F_Worktops_x5F_Surfaces">
				<g>
					<path fill="none" stroke="#000000" stroke-width="0.25" d="M626.3,386.4l-27-0.9"/>
				</g>
			</g>
			<polygon fill="none" stroke="#000000" stroke-width="0.25" points="565.7,419.5 565,442.5 571.4,442.7 572.2,419.7 			"/>
			<polygon fill="none" stroke="#000000" stroke-width="0.25" points="545,376 544.6,399.1 551.1,399.2 551.5,376.1 			"/>
			<polygon fill="none" stroke="#000000" stroke-width="0.25" points="529.3,349.6 552.3,350.1 552.4,343.6 529.4,343.2 			"/>
			<polygon fill="none" stroke="#000000" stroke-width="0.25" points="575,350.7 598,351.1 598.2,344.7 575.1,344.2 			"/>
			<polygon fill="none" stroke="#000000" stroke-width="0.25" points="620.8,351.8 643.8,352.2 643.9,345.7 620.9,345.3 			"/>
			<polyline fill="none" stroke="#2D2D2D" stroke-width="0.25" points="1063.9,303.8 740.9,298.9 712,297.2 			"/>
			<polyline fill="none" stroke="#2D2D2D" stroke-width="0.25" points="707.8,435.2 885.7,438.3 890.6,439.1 899.9,472.2 709,529.8 
				708.4,574.3 			"/>
		</g>
		<g id="Layer_17">
			<g>
				<polyline fill="none" stroke="#2D2D2D" stroke-miterlimit="10" points="708.2,427 707.4,434.1 707.4,434.1 708.1,428.3 
					708.1,427.5 708.2,427 708.9,404.6 709.8,373.5 709.4,373.5 709.1,373.5 708.6,373.5 707.8,373.4 706.7,373.4 705.5,373.4 
					703.1,373.3 702.2,373.3 702.2,373.3 702.1,373.3 699.6,373.2 699.4,373.2 699.1,383.7 699.2,383.7 701.7,383.8 700.8,411 
					699.7,446.3 701.7,383.8 701.7,383.8 699.3,458.1 699.7,446.3 699.1,462.7 696.7,462.6 696.5,462.6 696.5,462.6 695.5,462.6 
					690.7,462.4 690.6,467.6 695.3,467.7 696.3,467.8 696.3,467.8 696.5,467.8 699,467.9 699.1,467.9 699.1,467.9 700,467.9 
					702.4,468 703.6,468 704.7,468.1 705.5,468.1 706,468.1 706.3,468.1 706.8,468.1 706.8,468.1 706.9,464.5 707.4,434.1 
					707.4,434.1 708,434.1 				"/>
				<polygon fill="none" stroke="#2D2D2D" stroke-miterlimit="10" points="699.4,373.2 699.4,373.2 699.3,376.4 				"/>
				<polygon fill="none" stroke="#2D2D2D" stroke-miterlimit="10" points="699.3,376.4 699.3,376.4 698.3,376.4 698.1,383.6 
					699.1,383.7 699.1,383.7 				"/>
				
					<rect x="690.3" y="462.4" transform="matrix(-0.9995 -3.260693e-02 3.260693e-02 -0.9995 1365.4611 951.0967)" fill="none" stroke="#2D2D2D" stroke-miterlimit="10" width="0.3" height="4"/>
				<polygon fill="none" stroke="#2D2D2D" stroke-miterlimit="10" points="610.2,289.7 610.2,288.5 610.5,288.5 610.6,287.4 
					610.3,287.4 610.2,287.4 610,295.7 610,295.7 				"/>
				<polygon fill="none" stroke="#2D2D2D" stroke-miterlimit="10" points="607.1,295.7 610,295.7 610.3,286.3 607.4,286.2 
					607.2,290.6 594.2,290.1 594.2,290.1 594,295.2 594,295.2 607.1,295.7 				"/>
				<polygon fill="none" stroke="#2D2D2D" stroke-miterlimit="10" points="594.2,290.1 594.4,285.7 594.3,285.7 				"/>
				<polygon fill="none" stroke="#2D2D2D" stroke-miterlimit="10" points="594.3,285.7 591.5,285.6 591.4,286.7 591.4,286.7 
					591.1,286.7 591.1,287.3 591,287.8 591.4,287.8 591.4,287.8 591.4,287 591.1,295.1 594,295.2 				"/>
				<polygon fill="none" stroke="#2D2D2D" stroke-miterlimit="10" points="591.3,289.7 591.3,289.6 591.4,287.8 591.3,289.1 
					591.3,290.8 591.1,295.1 591.1,295.1 591.3,290.8 				"/>
				<polygon fill="none" stroke="#2D2D2D" stroke-miterlimit="10" points="625,289 625,289.3 625,290.3 624.7,296.3 624.8,296.3 
					624.8,296.3 627.7,296.4 640.7,296.8 643.6,296.9 643.6,296.9 643.7,296.9 643.9,290.9 643.9,289.7 644.1,289.7 644.2,288.6 
					644,288.6 644,288.6 643.9,288.6 643.8,288.6 643.8,288.6 643.9,287.5 643.9,287.5 641,287.4 640.8,291.8 627.9,291.3 
					628,286.9 625.1,286.8 625.1,287.9 625,287.9 625,287.9 624.8,287.9 624.7,289 625,289 				"/>
				<polygon fill="none" stroke="#2D2D2D" stroke-miterlimit="10" points="677.5,292.1 677.6,290.9 677.8,290.9 677.9,289.8 
					677.6,289.8 677.6,289.8 677.6,289.8 677.3,298.1 677.3,298.1 				"/>
				<polygon fill="none" stroke="#2D2D2D" stroke-miterlimit="10" points="658.7,290.2 658.6,291 658.6,291.2 658.6,292.3 
					658.4,297.5 658.4,297.5 661.3,297.6 661.3,297.6 674.4,298 677.3,298.1 677.6,288.7 674.7,288.6 674.6,293 661.5,292.5 
					661.5,292.5 661.5,292.5 661.6,288.1 661.6,288.1 658.7,288 658.7,289.1 658.7,289.1 658.4,289.1 658.3,290.2 658.6,290.2 				
					"/>
				<polygon fill="none" stroke="#2D2D2D" stroke-miterlimit="10" points="576.7,286.2 576.6,286.2 576.3,294.5 576.4,294.6 
					576.6,288.5 576.7,287.3 576.9,287.3 576.9,286.2 576.7,286.2 				"/>
				<polygon fill="none" stroke="#2D2D2D" stroke-miterlimit="10" points="576.6,285.1 573.7,285 573.6,289.4 567,289.2 
					560.4,288.9 560.5,284.5 557.7,284.4 557.6,285.5 557.6,285.5 557.5,285.5 557.3,285.5 557.3,286.6 557.5,286.6 557.5,286.6 
					557.5,287.9 557.3,293.9 557.3,293.9 557.3,293.9 557.4,293.9 560.2,294 566.9,294.2 573.4,294.5 576.3,294.5 				"/>
				<polygon fill="none" stroke="#2D2D2D" stroke-miterlimit="10" points="542.8,285 542.8,285 542.8,285 542.5,293.3 542.5,293.4 
					542.7,287.3 542.8,286.1 543,286.1 543.1,285.5 543.1,285 543.1,285 				"/>
				<polygon fill="none" stroke="#2D2D2D" stroke-miterlimit="10" points="542.8,283.9 539.9,283.8 539.8,288.2 526.8,287.7 
					526.8,287.7 526.8,287.7 527,283.3 526.9,283.3 524.1,283.2 524,284.3 524,284.3 523.9,284.3 523.7,284.3 523.7,285.4 
					523.9,285.4 523.9,285.4 523.9,285.4 523.9,286.7 523.7,292.7 523.7,292.7 523.7,292.7 526.6,292.8 526.6,292.8 539.6,293.3 
					539.6,293.3 542.5,293.3 				"/>
				<polygon fill="none" stroke="#2D2D2D" stroke-miterlimit="10" points="667.7,461.6 667.7,461.2 665.9,461.2 665.7,466.7 
					667.5,466.8 667.6,466.8 672.8,466.9 672.8,465.9 673.1,465.9 673.1,464.5 673.2,461.8 672.9,461.8 				"/>
				<polygon fill="none" stroke="#2D2D2D" stroke-miterlimit="10" points="665.8,461.8 654,461.4 653.4,461.4 653.7,448.9 
					653.7,448.9 653.8,448.9 654.5,448.9 654.5,447.5 653.8,447.5 653.8,447.5 652.3,447.4 651.9,447.4 651.3,465.4 651.7,465.4 
					651.7,466.2 653.2,466.2 653.2,466.2 653.9,466.3 665.7,466.7 				"/>
				<polygon fill="none" stroke="#2D2D2D" stroke-miterlimit="10" points="651.8,447.4 651.4,461.5 651.9,447.4 				"/>
				<polygon fill="none" stroke="#2D2D2D" stroke-miterlimit="10" points="651.4,461.5 651.4,461.5 651.3,461.5 651.1,465.3 
					651.3,465.3 651.3,465.4 				"/>
				<polyline fill="none" stroke="#2D2D2D" stroke-miterlimit="10" points="705.3,305.7 704.4,305.7 702.6,361.9 703.5,361.9 
					707,362.1 708.2,362.1 709,362.1 710.1,362.2 710.2,362.2 711.9,305.9 731.5,306.3 731.5,306.3 731.5,304.6 731.5,304.6 
					731.6,304.6 733.1,304.6 733.2,304.6 733.4,304.6 733.4,304.6 733.4,302.6 733.3,302.6 733.4,297.5 731.8,297.5 731.8,297.5 
					712.2,297.1 711.2,297.1 711.3,294.9 708,294.8 708,294.2 704.8,294.1 695.2,293.7 695.2,293.7 695.2,293.7 695.4,289.3 
					695.3,289.3 692.5,289.2 692.4,290.3 692.4,290.3 692.3,290.3 692.1,290.3 692,291.4 692.3,291.4 692.3,291.4 692.3,291.8 
					692.3,292.6 692.1,298.7 692.1,298.7 692.1,298.7 695,298.8 695,298.8 704.6,299.1 704.4,305.7 				"/>
				<path fill="none" stroke="#2D2D2D" stroke-miterlimit="10" d="M709.1,305.8"/>
				<polygon fill="none" stroke="#2D2D2D" stroke-miterlimit="10" points="704.4,305.7 702.7,357 704.4,305.7 				"/>
				<polygon fill="none" stroke="#2D2D2D" stroke-miterlimit="10" points="702.7,357 700.1,356.9 700,356.9 677.2,356.2 
					675.7,356.1 675.3,356.1 675.2,359.6 675.6,359.6 677.1,359.6 677.1,358.1 699.9,358.8 699.8,361.8 700,361.8 702.5,361.9 
					702.6,361.9 702.7,357 				"/>
				
					<rect x="675.6" y="359.6" transform="matrix(-0.9995 -3.261456e-02 3.261456e-02 -0.9995 1340.5632 741.7101)" fill="none" stroke="#2D2D2D" stroke-miterlimit="10" width="1.4" height="0.6"/>
				<polygon fill="none" stroke="#2D2D2D" stroke-miterlimit="10" points="676.5,377.1 684.1,377.4 684.1,376 676.5,375.7 				"/>
				<polygon fill="none" stroke="#2D2D2D" stroke-miterlimit="10" points="675.6,373.8 675.5,373.8 675.4,377.1 675.5,377.1 
					676.5,377.1 676.6,373.9 				"/>
				<polygon fill="none" stroke="#2D2D2D" stroke-miterlimit="10" points="674.7,373.8 674.6,375.6 674.1,375.6 674,375.6 
					674,375.6 670.3,375.5 670.3,375.5 670.3,375.5 670.2,377.3 670.3,377.3 670.3,377.3 674,377.4 673.9,378.9 674,378.9 
					674.5,378.9 675,378.9 675.3,378.9 675.5,373.8 675.1,373.8 				"/>
				<polygon fill="none" stroke="#2D2D2D" stroke-miterlimit="10" points="669.7,394.6 669.7,394.6 669.7,394.6 673.4,394.7 
					673.4,394.7 673.5,394.7 674,394.8 674.5,394.8 674.8,394.8 674.9,394.8 674.9,393.1 674.9,393.1 674.5,393.1 674,393.1 
					673.5,393.1 673.5,393.3 673.5,393.3 673.4,393.3 669.8,393.2 670,383.7 670.2,377.3 				"/>
				<polygon fill="none" stroke="#2D2D2D" stroke-miterlimit="10" points="670.3,375.5 670.3,375.5 668.4,375.4 665.2,375.3 
					664.3,404.4 667.5,404.5 666.3,447.9 667.7,404.5 667.7,404.5 666.2,449.3 666.2,450.9 667.9,450.9 667.9,450.9 668,450.9 
					668,450.9 668.1,446.3 668.1,446.3 668.9,420.2 669.4,404.6 669,404.6 669.3,404.6 669.3,404.6 669.4,404.6 669.5,398.2 
					669.6,394.6 669.6,394.6 669.7,394.6 				"/>
				<polygon fill="none" stroke="#2D2D2D" stroke-miterlimit="10" points="665.1,375.3 660.6,375.1 660.6,375.1 660.5,375.1 
					660.5,375.4 660.5,378.6 660.4,380.2 664.9,380.3 664.5,399.3 665.2,375.3 				"/>
				<polygon fill="none" stroke="#2D2D2D" stroke-miterlimit="10" points="664.5,399.3 664.3,399.3 659.8,399.2 659.8,399.2 
					659.8,399.2 654.3,399.1 648.5,398.9 648.4,398.9 648.4,398.9 644.1,398.8 644.6,379.8 644.6,379.8 644.7,379.8 649,380 
					649.1,380 649.1,380 649.1,378.3 649.2,375.1 644.9,375 644.7,375 642.9,374.9 642,403.9 643.8,403.9 643.9,403.9 648.2,404 
					648.3,404 648.3,404 654.1,404.2 659.6,404.3 659.6,404.3 659.6,404.3 664.1,404.4 664.3,404.4 				"/>
				<polygon fill="none" stroke="#2D2D2D" stroke-miterlimit="10" points="642.9,374.9 642.7,374.9 633.6,374.7 631.4,374.7 
					631.3,374.7 628.9,374.6 628.8,374.6 628.7,374.6 626.7,374.5 626.7,374.5 626.6,374.5 626.6,374.5 599.7,373.7 599.6,375.2 
					626.6,376.1 626.6,376.1 626.6,376.1 626.6,376.1 626.6,376.1 626.3,386.4 626.1,389.7 626.2,389.7 626.2,389.7 628.2,389.8 
					628.3,389.8 628.6,376.6 628.6,376.6 628.8,376.6 628.9,376.6 631.3,376.6 631.3,376.6 633.5,376.7 642.7,376.9 642.1,400.4 
									"/>
				<polygon fill="none" stroke="#2D2D2D" stroke-miterlimit="10" points="641.9,400.4 632.8,400.1 630.5,400.1 630.4,403.6 
					630.4,403.6 630.5,401.8 630.4,403.6 630.1,411.3 628.3,460.4 620,460.1 619.6,460.1 619.3,460.1 619,460.1 618.9,462.7 
					618.9,463.4 618.9,464.1 618.9,464.1 619.1,464.1 619.1,465 619.5,465 619.8,465 628.2,465.3 628.3,465.4 628.4,465.4 
					630.6,465.4 630.7,465.4 633.9,465.6 633.9,464.8 634.2,464.8 634.3,464.8 634.4,464.8 634.4,464.8 634.5,463.6 634.5,463.4 
					634.5,460.9 635.2,437.9 635.1,437.9 634.8,437.9 631.6,437.8 631.7,437.3 632.6,403.7 641.8,403.9 642,403.9 642.1,400.4 				
					"/>
				<polygon fill="none" stroke="#2D2D2D" stroke-miterlimit="10" points="630.5,400.1 630.5,400.1 628.1,400 628.1,399.7 
					628,399.7 627.9,399.6 625.9,399.6 625.8,399.6 625.8,399.6 625.8,399.6 625.7,401.7 625.8,401.7 625.8,401.7 625.8,401.7 
					627.8,401.7 628,401.7 628.1,401.7 630.4,401.8 630.5,401.8 				"/>
				<polygon fill="none" stroke="#2D2D2D" stroke-miterlimit="10" points="599.3,385.5 599.6,375.2 599.2,387.5 				"/>
				
					<rect x="591.8" y="379.8" transform="matrix(3.262830e-02 -0.9995 0.9995 3.262830e-02 198.8647 966.5341)" fill="none" stroke="#2D2D2D" stroke-miterlimit="10" width="13.8" height="1.4"/>
				<polygon fill="none" stroke="#2D2D2D" stroke-miterlimit="10" points="666.1,447.9 665.6,447.9 665.5,449.3 666,449.3 
					666.2,449.3 666.3,447.9 				"/>
				<polygon fill="none" stroke="#2D2D2D" stroke-miterlimit="10" points="557.6,457.9 557.5,462.8 567,463.2 567,462.3 
					567.3,462.3 567.4,458.2 567.1,458.2 				"/>
				<polygon fill="none" stroke="#2D2D2D" stroke-miterlimit="10" points="557.3,460.5 557.2,461.2 557.2,461.9 557.3,461.9 
					557.5,461.9 557.6,457.9 557.4,457.9 				"/>
				<polygon fill="none" stroke="#2D2D2D" stroke-miterlimit="10" points="509.2,283.8 509.2,283.8 508.9,292.2 508.9,292.2 
					509.2,284.9 509.4,284.9 509.5,283.8 509.2,283.8 				"/>
				<polyline fill="none" stroke="#2D2D2D" stroke-miterlimit="10" points="489,449.7 492.3,379.4 492.4,379.4 493.3,379.4 
					495,379.5 495,379.5 496.1,379.5 496.5,370.3 496.4,370.3 495.3,370.3 495.3,370.3 493.6,370.2 492.7,370.1 492.7,370.1 
					496.1,291.7 497.8,291.8 497.9,291.8 498.9,291.8 499,291.8 501,291.9 501,291.9 506,292.1 508.9,292.2 509.2,282.7 
					506.3,282.6 506.2,287 501.2,286.8 499.2,286.8 499.1,286.8 498.1,286.7 498,286.7 496.3,286.7 495.4,286.7 495.4,286.7 
					494.3,286.6 				"/>
				<polygon fill="none" stroke="#2D2D2D" stroke-miterlimit="10" points="489.7,460.4 489.8,460.4 490.6,460.5 492.3,460.5 
					492.4,460.5 493.4,460.6 493.5,460.6 495.5,460.6 500.5,460.8 503.4,460.9 503.4,460.9 503.4,460.9 503.7,460.9 505.3,461 
					505.4,460.1 505.7,460.1 505.8,456 505.5,456 503.9,456 503.6,456 503.6,456 503.5,456 500.6,455.9 495.6,455.7 495.7,452.9 
					493.8,452.7 493.7,452.7 492.6,452.7 492.7,449.9 491,449.8 490.1,449.8 490,449.8 489,449.7 488.6,460.4 				"/>
				<polygon fill="none" stroke="#2D2D2D" stroke-miterlimit="10" points="486.4,525 488.2,460.4 486.1,525 				"/>
				<polyline fill="none" stroke="#2D2D2D" stroke-miterlimit="10" points="493.9,286.6 488.7,286.5 481.4,487.5 481.3,487.5 
					481.2,487.4 480,524.8 480.2,524.8 481,524.8 486.1,525 				"/>
				<polygon fill="none" stroke="#2D2D2D" stroke-miterlimit="10" points="560.7,371 560.3,380.3 560.4,380.3 567.2,380.5 
					567.5,371.3 567.5,371.3 				"/>
			</g>
		</g>
	</g>
</g>
<!--<g id="Desks">
	<g id="First_2_">
		<g>
			<polygon fill="none" stroke="#A56752" stroke-width="0.5" points="521.3,398.7 544.2,399.1 544.4,387.5 521.5,387.1 			"/>
			<polygon fill="none" stroke="#A56752" stroke-width="0.5" points="498.3,398.3 521.3,398.7 521.5,387.1 498.5,386.7 			"/>
			<polygon fill="none" stroke="#A56752" stroke-width="0.5" points="521.5,387.1 544.4,387.5 544.6,376 521.7,375.6 			"/>
			<polygon fill="none" stroke="#A56752" stroke-width="0.5" points="498.5,386.7 521.5,387.1 521.7,375.6 498.8,375.2 			"/>
		</g>
		<g>
			<polygon fill="none" stroke="#A56752" stroke-width="0.5" points="518.5,441.6 541.4,442 541.6,430.5 518.7,430.1 			"/>
			<polygon fill="none" stroke="#A56752" stroke-width="0.5" points="495.6,441.2 518.5,441.6 518.7,430.1 495.8,429.7 			"/>
			<polygon fill="none" stroke="#A56752" stroke-width="0.5" points="518.7,430.1 541.6,430.5 541.9,419 518.9,418.6 			"/>
			<polygon fill="none" stroke="#A56752" stroke-width="0.5" points="495.8,429.7 518.7,430.1 518.9,418.6 496,418.2 			"/>
			<polygon fill="none" stroke="#A56752" stroke-width="0.5" points="541.4,442 564.4,442.4 564.6,430.9 541.6,430.5 			"/>
			<polygon fill="none" stroke="#A56752" stroke-width="0.5" points="541.6,430.5 564.6,430.9 564.8,419.4 541.9,419 			"/>
		</g>
		<g>
			<polygon fill="none" stroke="#A56752" stroke-width="0.5" points="553,320.4 553.5,297.4 542,297.2 541.5,320.1 			"/>
			<polygon fill="none" stroke="#A56752" stroke-width="0.5" points="552.5,343.3 553,320.4 541.5,320.1 540.9,343.1 			"/>
			<polygon fill="none" stroke="#A56752" stroke-width="0.5" points="541.5,320.1 542,297.2 530.5,296.9 530,319.8 			"/>
			<polygon fill="none" stroke="#A56752" stroke-width="0.5" points="540.9,343.1 541.5,320.1 529.9,319.8 529.4,342.8 			"/>
		</g>
		<g>
			<polygon fill="none" stroke="#A56752" stroke-width="0.5" points="598.7,321.4 599.3,298.5 587.7,298.2 587.2,321.2 			"/>
			<polygon fill="none" stroke="#A56752" stroke-width="0.5" points="598.2,344.4 598.7,321.4 587.2,321.2 586.7,344.1 			"/>
			<polygon fill="none" stroke="#A56752" stroke-width="0.5" points="587.2,321.2 587.7,298.2 576.2,298 575.7,320.9 			"/>
			<polygon fill="none" stroke="#A56752" stroke-width="0.5" points="586.7,344.1 587.2,321.2 575.7,320.9 575.2,343.8 			"/>
		</g>
		<g>
			<polygon fill="none" stroke="#A56752" stroke-width="0.5" points="644.5,322.5 645,299.6 633.5,299.3 633,322.2 			"/>
			<polygon fill="none" stroke="#A56752" stroke-width="0.5" points="643.9,345.4 644.5,322.5 632.9,322.2 632.4,345.2 			"/>
			<polygon fill="none" stroke="#A56752" stroke-width="0.5" points="633,322.2 633.5,299.3 622,299 621.4,322 			"/>
			<polygon fill="none" stroke="#A56752" stroke-width="0.5" points="632.4,345.2 633,322.2 621.4,322 620.9,344.9 			"/>
		</g>
	</g>
</g>-->
</svg>
