<?xml version="1.0" encoding="utf-8"?>
<!-- Generator: Adobe Illustrator 18.1.1, SVG Export Plug-In . SVG Version: 6.00 Build 0)  -->
<svg version="1.2" baseProfile="tiny" xmlns="http://www.w3.org/2000/svg" xmlns:xlink="http://www.w3.org/1999/xlink" x="0px"
	 y="0px" width="930px" height="410px" viewBox="167 215.9 930 410" xml:space="preserve">
<g id="New_Layouts">
	<g id="Ground_2_">
		<g id="Layer_8">
			<g>
				<path fill="none" stroke="#2D2D2D" stroke-miterlimit="10" d="M708,427l0.7-22.5l0.9-31l0.4-11.3l1.7-56.2l19.5,0.4l0.3-8.8
					l-19.5-0.4l-1,0l0.1-2.2l-3.3-0.1l0-0.7l-3.2-0.1l-9.6-0.3l-0.2,5h0 M694.8,298.9l-0.2,3.5l-0.6,18.2l0.1,0l9.3,0.3l-1.5,52.4
					l-0.1,3.3l0.1-3.3l-3.1,94.6l0.1,0l0.9,0l2.4,0.1l1.2,0.1l1.2,0l0.8,0l0.5,0l0.3,0l3.1-94.6l-0.3,0l0.7,0l-0.3,0l-2,60.6
					l0.6-5.9l0.1-0.6l-0.7,6.4l0.5,0"/>
				<polygon fill="none" stroke="#2D2D2D" stroke-miterlimit="10" points="706.6,468.1 706.7,468.1 706.8,464.4 707.3,434.1 
					706.2,468.1 				"/>
				<polygon fill="none" stroke="#2D2D2D" stroke-miterlimit="10" points="701.8,376.6 701.8,376.6 699.2,376.5 698.1,376.4 
					697.9,383.7 698.9,383.7 701.6,383.8 699,461.9 699,462.7 696.4,462.6 695.4,462.6 690.6,462.4 690.4,467.6 695.2,467.7 
					696.2,467.7 698.8,467.9 698.9,467.9 698.9,467.9 701.9,376.6 				"/>
				<polygon fill="none" stroke="#2D2D2D" stroke-miterlimit="10" points="690.1,466.4 690.4,466.4 690.6,462.4 690.3,462.4 				"/>
				<polygon fill="none" stroke="#2D2D2D" stroke-miterlimit="10" points="672.7,465.9 673,465.9 673,464.5 673.1,461.8 
					672.8,461.8 				"/>
				<polygon fill="none" stroke="#2D2D2D" stroke-miterlimit="10" points="667.6,461.2 665.7,461.1 665.7,461.8 653.9,461.4 
					653.9,461.4 653.3,461.4 653.5,451.3 653.6,448.9 653.7,448.9 654.3,449 654.4,447.5 653.7,447.5 653.7,447.5 652.2,447.4 
					651.8,447.4 651.2,465.4 651.6,465.4 651.5,466.2 653.1,466.2 653.1,466.2 653.8,466.3 665.6,466.7 667.4,466.7 672.6,466.9 
					672.8,461.8 667.6,461.6 				"/>
				<polygon fill="none" stroke="#2D2D2D" stroke-miterlimit="10" points="651.7,447.4 651.3,461.5 651.8,447.4 				"/>
				<polygon fill="none" stroke="#2D2D2D" stroke-miterlimit="10" points="651.2,461.5 651.1,461.5 651,464.6 651,465.4 
					651.1,465.4 651.2,465.4 651.3,461.5 				"/>
				<polygon fill="none" stroke="#2D2D2D" stroke-miterlimit="10" points="731.4,304.7 732.9,304.7 733,304.7 733.2,304.7 
					733.2,304.7 733.2,302.7 733.1,302.7 733.2,297.6 731.6,297.6 731.6,297.6 731.3,304.7 				"/>
				<polygon fill="none" stroke="#2D2D2D" stroke-miterlimit="10" points="731.3,306.4 731.3,304.7 731.3,306.4 				"/>
				<polygon fill="none" stroke="#2D2D2D" stroke-miterlimit="10" points="667.9,446.3 668.8,420.2 668.4,430.5 				"/>
				<polygon fill="none" stroke="#2D2D2D" stroke-miterlimit="10" points="634.1,464.8 634.2,464.8 634.3,464.8 634.3,463.6 
					634.3,463.4 634.4,460.9 635.1,437.7 635,437.7 634.7,437.7 633.8,464.8 				"/>
				<polygon fill="none" stroke="#2D2D2D" stroke-miterlimit="10" points="631.1,437.5 632.3,403.7 632.2,403.7 				"/>
				<polygon fill="none" stroke="#2D2D2D" stroke-miterlimit="10" points="630.3,465.4 633.8,465.5 634.7,437.7 631.2,437.5 
					631.1,437.5 630.2,465.4 				"/>
				<polygon fill="none" stroke="#2D2D2D" stroke-miterlimit="10" points="618.9,460.1 618.8,462.7 618.8,463.4 618.7,464.1 
					618.7,464.1 618.8,464.1 619,464.1 619.2,460.1 619.2,460.1 				"/>
				<polygon fill="none" stroke="#2D2D2D" stroke-miterlimit="10" points="637.3,299.1 637.4,297.2 637.4,296.9 640.7,297 
					640.8,294.2 641.3,294.2 641.3,291.9 640.8,291.9 637.6,291.7 637.6,291.7 632,291.5 631.8,298.9 				"/>
				<polygon fill="none" stroke="#2D2D2D" stroke-miterlimit="10" points="631.8,296.7 631.8,297.4 631.7,298.9 631.8,298.9 
					631.8,297 				"/>
				<polygon fill="none" stroke="#2D2D2D" stroke-miterlimit="10" points="631.8,296.7 632,291.5 628.8,291.4 628.6,296.6 				"/>
				<polygon fill="none" stroke="#2D2D2D" stroke-miterlimit="10" points="628.7,293.7 628.8,291.4 628.7,291.4 628.5,291.4 
					628.4,293.7 628.7,293.7 				"/>
				<polygon fill="none" stroke="#2D2D2D" stroke-miterlimit="10" points="628.6,296.6 628.6,296.6 628.7,293.7 				"/>
				<polygon fill="none" stroke="#2D2D2D" stroke-miterlimit="10" points="571.2,289.1 565.6,288.9 565.4,296.3 571,296.5 
					571,294.6 571.1,294.3 573.8,294.4 574,289.2 571.2,289.1 				"/>
				<polygon fill="none" stroke="#2D2D2D" stroke-miterlimit="10" points="565.4,294.1 565.4,294.8 565.3,296.3 565.4,296.3 
					565.4,294.4 				"/>
				<polygon fill="none" stroke="#2D2D2D" stroke-miterlimit="10" points="562.9,288.8 561,288.7 561,291.1 562.8,291.1 
					562.8,291.1 562.7,294 565.4,294.1 565.6,288.9 				"/>
				<polygon fill="none" stroke="#2D2D2D" stroke-miterlimit="10" points="670.9,293 669.3,293 668.8,292.9 668.7,295.9 
					668.7,295.9 669.2,295.9 669.1,298.1 670.7,298.1 671.2,298.1 671.3,293 				"/>
				<polygon fill="none" stroke="#2D2D2D" stroke-miterlimit="10" points="642.6,342.2 642.6,340.2 642.6,340.2 667.2,341.3 
					667.3,341.3 667.8,341.3 669.3,341.4 669.8,341.4 669.8,341.4 670.7,341.4 672.6,298.1 672.7,297.3 672.8,293.1 672.8,293.1 
					672.3,293.1 671.3,293 671.2,298.2 671.2,298.1 671.1,299.5 669.3,339.8 667.8,339.7 667.3,339.7 667.3,339.7 642.7,338.7 
					640.8,338.7 640.7,342.1 				"/>
				<polygon fill="none" stroke="#2D2D2D" stroke-miterlimit="10" points="640.7,342.1 640.7,342.1 640.8,340.1 				"/>
				<polygon fill="none" stroke="#2D2D2D" stroke-miterlimit="10" points="620.4,340.5 620.5,339.5 640.8,340.1 640.8,338.7 
					640.8,338.7 620.6,337.9 620.5,337.9 619.1,337.8 619,340.4 619.1,340.4 				"/>
				<polygon fill="none" stroke="#2D2D2D" stroke-miterlimit="10" points="557.4,509.5 556.9,509.5 556.8,512.8 557.3,512.8 
					557.3,514.2 564.6,514.4 564.7,513.1 565.2,513.1 565.2,513.1 565.2,512.4 565.2,512 565.3,509.8 564.8,509.7 				"/>
				<polygon fill="none" stroke="#2D2D2D" stroke-miterlimit="10" points="597.5,504.3 597.6,503.8 593.6,503.7 593.5,506.7 
					589.3,506.6 589.1,510.5 582.9,510.3 582.4,510.3 582.3,513.6 582.8,513.6 582.8,515 589,515.3 593.2,515.4 597.2,515.5 
					598.1,515.6 598.5,504.4 598.5,504.3 				"/>
				<polygon fill="none" stroke="#2D2D2D" stroke-miterlimit="10" points="565,456.3 559.3,456.1 559.1,462 564.8,462.2 				"/>
				<polygon fill="none" stroke="#2D2D2D" stroke-miterlimit="10" points="602,459.2 600.1,459.2 599.1,459.1 597.3,459.1 
					595.2,459 594.8,469.7 594.9,469.7 597,469.8 598.8,469.8 598.8,469.3 599.8,469.4 600,464 601.8,464.1 601.9,462.6 602,462.6 
					602.1,459.3 602,459.2 				"/>
				<polygon fill="none" stroke="#2D2D2D" stroke-miterlimit="10" points="597.3,459.1 598.1,436.7 598.1,436.7 596,436.6 
					595.2,459 595.3,459 				"/>
				<polygon fill="none" stroke="#2D2D2D" stroke-miterlimit="10" points="598,424.7 598.5,424.7 598.5,424 614.4,424.6 
					614.5,422.8 598.6,422.3 598.1,422.2 598.1,422.2 598,424.7 				"/>
				<polygon fill="none" stroke="#2D2D2D" stroke-miterlimit="10" points="597.6,399.2 597.1,399.2 596.3,423.9 596.3,423.9 
					596.8,424 596.7,424.7 598,424.7 598.8,399.2 				"/>
				<polygon fill="none" stroke="#2D2D2D" stroke-miterlimit="10" points="675.6,375.6 675.6,377.4 683.1,377.7 683.1,377.7 
					683.1,375.9 				"/>
				<polygon fill="none" stroke="#2D2D2D" stroke-miterlimit="10" points="670.5,375.5 670.4,377.3 674.1,377.4 674.1,378.8 
					675.5,378.8 675.6,375.6 674.2,375.6 				"/>
				<polygon fill="none" stroke="#2D2D2D" stroke-miterlimit="10" points="670.2,375.5 668.3,375.4 665.1,375.3 664.9,375.3 
					660.4,375.2 660.4,375.2 660.4,375.2 660.3,378.6 660.3,380.3 664.8,380.4 664.3,399.1 664.3,399.4 664.2,399.4 659.7,399.2 
					659.6,399.2 659.6,399.2 648.6,398.8 648.6,398.8 644.2,398.7 644.8,379.7 644,403.8 644.1,403.8 648.4,403.9 648.5,403.9 
					659.4,404.3 659.5,404.3 659.5,404.3 664,404.4 664.2,404.4 667.3,404.5 669.2,404.6 667.5,404.6 667.3,404.5 666.2,446.2 
					666.1,447.9 665.9,447.9 665.4,447.9 665.4,449.3 665.9,449.3 666.1,449.4 666.1,449.4 666,450.9 667.7,450.9 667.8,450.9 
					668.8,420.2 669.1,411 669.6,394.6 669.8,394.6 673.6,394.7 673.6,394.7 675,394.7 675.1,393.2 675.1,393.1 673.6,393 
					673.6,393.3 673.6,393.3 669.9,393.2 670.5,375.5 670.2,375.5 				"/>
				<polygon fill="none" stroke="#2D2D2D" stroke-miterlimit="10" points="644.8,379.7 649.2,379.8 649.3,379.8 649.3,378.4 
					649.4,375.1 649.4,375 645,374.8 644.9,374.8 644.8,379.7 				"/>
				<polygon fill="none" stroke="#2D2D2D" stroke-miterlimit="10" points="643,374.8 642.1,403.8 644,403.8 644.9,374.8 				"/>
				<polygon fill="none" stroke="#2D2D2D" stroke-miterlimit="10" points="642.9,374.8 641.5,374.7 641.4,374.7 641.4,373.6 
					642.2,352.8 642.1,352.8 640.3,352.8 640,362.2 633.6,362 631.6,361.9 631.6,361.9 631.3,361.9 631.3,361.9 629.5,361.9 
					629.4,361.9 629.3,361.9 628.8,376.4 628.9,376.4 629,376.4 630.8,376.4 630.8,376.4 631.1,376.4 631.2,376.4 633.2,376.5 
					639.5,376.7 639.6,376.7 641.3,376.7 641.4,376.7 642.8,376.7 642.2,400.2 643,374.8 				"/>
				<polygon fill="none" stroke="#2D2D2D" stroke-miterlimit="10" points="642.1,400.2 640.7,400.2 640.5,400.2 638.8,400.1 
					638.7,400.1 632.4,399.9 630.4,399.8 630.4,399.8 630.1,399.8 630,399.8 628.2,399.8 628.3,399.4 628.2,399.4 628.1,399.4 
					626.3,399.4 626.3,399.4 626.3,399.4 626.2,399.4 626.2,400.2 625.6,400.1 615.2,399.8 599.3,399.3 598.9,399.2 598.8,399.2 
					598.1,422.2 598.8,401 599.3,401 615.1,401.5 615.1,401.5 625.6,401.9 626.2,401.9 626.2,401.9 626.2,401.9 626.2,401.9 
					626.2,401.9 628,402 628.1,402 628.2,402 630,402.1 629.7,411.3 628.3,458.2 628.2,460.4 628.1,460.4 619.9,460.1 619.5,460.1 
					619.2,460.1 619,465 619.4,465 619.7,465 627.9,465.3 628.1,465.3 628.3,465.3 630.2,465.4 632.2,403.7 630.3,403.6 
					632.3,403.7 632.3,403.4 638.6,403.6 638.7,403.6 640.4,403.7 640.6,403.7 642,403.8 642.1,403.8 642.2,400.2 				"/>
				<polygon fill="none" stroke="#2D2D2D" stroke-miterlimit="10" points="628.5,389.6 628.8,376.4 628.4,389.6 				"/>
				<polygon fill="none" stroke="#2D2D2D" stroke-miterlimit="10" points="627.5,361.8 627.5,361.8 627.5,361.8 627.5,361.8 
					619.7,361.5 600.2,360.9 600.1,360.9 598.5,360.8 598.4,360.8 598.1,373.4 599.7,373.5 600.1,362.6 619.6,363.3 627.4,363.6 
					627.4,363.6 627.5,363.6 627.5,363.6 627.4,365.4 627.2,372.4 626.6,389.6 626.6,389.6 628.4,389.6 629.3,361.9 				"/>
				<polygon fill="none" stroke="#2D2D2D" stroke-miterlimit="10" points="524.1,287.3 521.8,287.2 520.9,312.5 523.3,312.6 
					524.2,292.4 525.4,292.5 525.6,287.3 524.4,287.3 				"/>
				<polygon fill="none" stroke="#2D2D2D" stroke-miterlimit="10" points="521.6,287.2 520.3,287.1 520.3,287.4 519.6,287.4 
					519.5,289.4 519.6,289.4 520.2,289.4 521.6,289.5 521.7,289.5 521.8,287.2 				"/>
				<polyline fill="none" stroke="#2D2D2D" stroke-miterlimit="10" points="489.5,449.5 493,379.2 493.1,379.2 493.3,379.2 
					495.5,379.3 495.5,379.3 495.9,379.3 496.3,379.4 496.6,379.4 497,370.5 496.9,370.5 496.5,370.5 496.2,370.4 495.9,370.4 
					495.8,370.4 493.5,370.3 493.4,370.3 493.4,369.4 494,355.4 496.3,355.4 496.3,355.4 496.7,355.4 497,355.5 497.4,355.5 
					497.5,355.5 501.6,355.6 503.3,355.6 503.8,355.7 503.9,355.7 504.4,355.7 504.4,355.7 512.1,355.9 512.3,355.9 514.5,356 
					516.2,312.3 518.8,312.4 518.8,312.4 519.5,312.4 520.8,312.5 520.9,312.5 521.7,289.5 521.1,305 519.7,305 519,304.9 
					516.5,304.9 516.1,304.8 514,304.7 512.8,336 504.9,341.5 504.8,341.5 504.4,341.8 504.2,341.9 503.7,342.3 502,343.5 
					497.9,343.3 497.8,343.3 497.4,343.3 497.1,343.3 497.1,342.2 499.1,290.3 499.5,290.4 499.6,290.4 503.7,290.5 505.4,290.6 
					505.9,290.6 506,290.6 506.2,286.6 506,286.6 505.5,286.6 503.8,286.5 499.8,286.4 499.6,286.4 499.3,286.4 498.9,286.4 
					498.6,286.4 498.5,286.4 496.3,286.3 496.1,286.3 496,286.3 494.8,286.2 				"/>
				<polygon fill="none" stroke="#2D2D2D" stroke-miterlimit="10" points="506.6,286.9 506.6,286.9 506.2,286.9 506,290.6 
					506.5,290.6 				"/>
				<polyline fill="none" stroke="#2D2D2D" stroke-miterlimit="10" points="489.1,460.5 490.3,460.5 490.4,460.5 490.6,460.6 
					492.9,460.6 493.3,449.7 493.2,449.7 491,449.6 490.8,449.6 490.7,449.6 489.5,449.5 				"/>
				<polyline fill="none" stroke="#2D2D2D" stroke-miterlimit="10" points="494.8,286.2 493.8,286.2 493.2,286.2 493.2,286.2 
					488.7,286.1 479.8,522.8 481,522.8 485.5,523 485.8,511.8 485.9,511.8 486.5,511.8 487.5,511.8 488.7,511.9 488.8,511.9 
					489,511.9 491.2,511.9 491.3,511.9 491.6,511.9 491.9,512 492.3,512 492.5,512 496.5,512.1 498.2,512.2 498.2,510.8 
					498.7,510.8 498.8,507.6 498.3,507.6 498.3,507.6 496.7,507.5 492.6,507.3 492.5,507.3 492.1,507.2 491.8,507.2 491.4,507.2 
					491.3,507.2 489.1,507.1 488.9,507.1 488.8,507.1 487.6,507 486.7,507 486.1,507 486.1,505.6 488.1,460.5 489.1,460.5 				"/>
				<polygon fill="none" stroke="#2D2D2D" stroke-miterlimit="10" points="560.6,371.1 560.2,380.3 560.2,380.3 567.1,380.6 
					567.4,371.4 567.4,371.4 				"/>
			</g>
		</g>
		<g id="Layer_10">
			<polygon fill="none" stroke="#000000" stroke-width="0.25" points="543.2,375.5 542.4,398.5 548.9,398.7 549.6,375.6 			"/>
			<polygon fill="none" stroke="#000000" stroke-width="0.25" points="559.6,420.3 558.9,443.4 565.3,443.6 566.1,420.5 			"/>
			<polygon fill="none" stroke="#000000" stroke-width="0.25" points="558.2,464.6 557.4,487.7 563.9,487.9 564.6,464.8 			"/>
			<!--<path fill="none" stroke="#000000" stroke-width="0.25" d="M570.1,355.3l-54-1.7 M516.2,353.5l-0.1,2.1 M516.1,355.7l53.9,1.7
				 M570,357.4l0.1-2.1"/>
			<path fill="none" stroke="#000000" stroke-width="0.25" d="M569.4,355.3l0.7,0 M570.1,355.3l-0.1,2.1 M570,357.4L570,357.4
				 M570,357.4l-0.7,0"/>
			<path fill="none" stroke="#000000" stroke-width="0.25" d="M516.1,355.7l0.1-2.1 M516.2,353.5l0.7,0 M516.8,355.7L516.8,355.7
				 M516.8,355.7l-0.7,0"/>-->
			<path fill="none" stroke="#000000" stroke-width="0.25" d="M618.4,459.9l-15.5-0.6"/>
			<g id="_x30__11_">
				<g>
					<path fill="none" stroke="#000000" stroke-width="0.25" d="M698.1,376.4l-0.6,0 M697.6,376.4l-0.1,1.4 M697.5,377.8l0.6,0"/>
				</g>
				<g>
					<path fill="none" stroke="#000000" stroke-width="0.25" d="M697.1,390.8l-0.6,0 M696.5,390.8l0.4-13 M697,377.8l0.5,0
						 M697.5,377.8L697.5,377.8 M697.5,377.8l-0.4,13"/>
				</g>
				<g>
					<path fill="none" stroke="#000000" stroke-width="0.25" d="M683.9,376l0.6,0 M684.5,376l0,1.4 M684.5,377.4l-0.6,0"/>
				</g>
				<g>
					<path fill="none" stroke="#000000" stroke-width="0.25" d="M698.1,376.4l-0.1,1.4"/>
				</g>
				<g>
					<path fill="none" stroke="#000000" stroke-width="0.25" d="M683.9,376l0,1.4"/>
				</g>
				<g>
					<path fill="none" stroke="#000000" stroke-width="0.25" d="M697.1,390.8l-3.4-0.5 M693.7,390.3l-3.1-1.4 M690.7,388.9l-2.6-2.1
						 M688,386.7l-2-2.7 M686,384l-1.2-3.2 M684.8,380.8l-0.3-3.4"/>
				</g>
			</g>
			<g id="_x36_25_x5F_01_x5F_fitt_x5F_01_-_731_x5F_Worktops_x5F_Surfaces_4_">
				<g>
					<path fill="none" stroke="#2D2D2D" stroke-width="0.25" d="M599.8,371.5l27.3,0.9"/>
				</g>
			</g>
			<g id="_x32_40_x5F_Stairs_x5F_Ramps_x5F_Lift_Shafts_11_">
				<g>
					<path fill="none" stroke="#000000" stroke-width="0.25" d="M668.7,426.3l0.1-3.9 M668.8,422.5L684,423 M684,423l-0.1,3.9
						 M683.9,426.8l-15.2-0.5"/>
				</g>
				<g>
					<path fill="none" stroke="#000000" stroke-width="0.25" d="M668.9,418.4l0.1-4.1 M669.1,414.3l15.2,0.5 M684.3,414.8l-0.1,4.1
						 M684.2,418.9L684.2,418.9 M684.2,418.9l-15.2-0.5"/>
				</g>
				<g>
					<path fill="none" stroke="#000000" stroke-width="0.25" d="M684.2,446.1l-0.9,0 M683.3,446.1l1.1-35.2 M684.4,410.9l0.9,0
						 M685.3,410.9L685.3,410.9"/>
				</g>
				<g>
					<path fill="none" stroke="#000000" stroke-width="0.25" d="M683.3,446.1L683.3,446.1"/>
				</g>
				<g>
					<path fill="none" stroke="#000000" stroke-width="0.25" d="M683.3,446.8L683.3,446.8 M683.3,446.8l0-0.7 M683.3,446.1
						L683.3,446.1 M683.4,446.1l0,0.7"/>
				</g>
				<g>
					<path fill="none" stroke="#000000" stroke-width="0.25" d="M684.2,446.1l-0.8,0 M683.4,446l1.1-35.1 M684.5,411l0.7,0"/>
				</g>
				<g>
					<path fill="none" stroke="#000000" stroke-width="0.25" d="M684.2,446.1L684.2,446.1"/>
				</g>
				<g>
					<path fill="none" stroke="#000000" stroke-width="0.25" d="M684.2,446.1L684.2,446.1 M684.1,446.1l0-0.4 M684.1,445.6
						L684.1,445.6 M684.2,445.6l0,0.4"/>
				</g>
				<g>
					<path fill="none" stroke="#000000" stroke-width="0.25" d="M685.2,410.9l0-0.4 M685.2,410.5L685.2,410.5 M685.1,410.5l0,0.4
						 M685.1,410.9L685.1,410.9"/>
				</g>
				<g>
					<path fill="none" stroke="#000000" stroke-width="0.25" d="M685.2,411l-1.1,34.6 M684.1,445.6L684.1,445.6 M684.2,445.6
						l1.1-34.7"/>
				</g>
				<g>
					<path fill="none" stroke="#000000" stroke-width="0.25" d="M686.5,434.1l13.3,0.4 M699.8,434.6l-0.1,3.9 M699.7,438.4
						l-13.3-0.4"/>
				</g>
				<g>
					<path fill="none" stroke="#000000" stroke-width="0.25" d="M686.2,442.1l13.3,0.4 M699.5,442.5l-0.1,3.9 M699.4,446.3
						l-14.1-0.4"/>
				</g>
				<g>
					<path fill="none" stroke="#000000" stroke-width="0.25" d="M685.6,438l14.1,0.5 M699.7,438.4l-0.1,4.1 M699.5,442.5l-14-0.4"/>
				</g>
				<g>
					<path fill="none" stroke="#000000" stroke-width="0.25" d="M685.6,438l-1.2,0 M684.4,437.9l0.1-3.9 M684.6,434.1l1.2,0"/>
				</g>
				<g>
					<path fill="none" stroke="#000000" stroke-width="0.25" d="M685.4,445.9l-1.2-0.1 M684.2,445.9l0.1-3.9 M684.3,442l1.2,0.1"/>
				</g>
				<g>
					<path fill="none" stroke="#000000" stroke-width="0.25" d="M685.5,442.1l-1.2-0.1 M684.3,442l0.1-4.1 M684.4,437.9l1.2,0"/>
				</g>
				<g>
					<path fill="none" stroke="#000000" stroke-width="0.25" d="M685.8,434.1l-1.2,0 M684.6,434.1l0.1-3.9 M684.7,430.2l1.2,0"/>
				</g>
				<g>
					<path fill="none" stroke="#000000" stroke-width="0.25" d="M686.6,430.3l13.3,0.4 M699.9,430.7l-0.1,3.9 M699.8,434.6l-14-0.5"
						/>
				</g>
				<g>
					<path fill="none" stroke="#000000" stroke-width="0.25" d="M686.9,422.4l13.3,0.4 M700.2,422.8l-0.1,3.9 M700.1,426.6
						l-13.3-0.4"/>
				</g>
				<g>
					<path fill="none" stroke="#000000" stroke-width="0.25" d="M685.9,430.3l-1.2,0 M684.7,430.2l0.1-4.1 M684.8,426.1l1.2,0.1"/>
				</g>
				<g>
					<path fill="none" stroke="#000000" stroke-width="0.25" d="M686,426.2l-1.2-0.1 M684.8,426.1l0.1-3.9 M684.9,422.3l1.2,0.1"/>
				</g>
				<g>
					<path fill="none" stroke="#000000" stroke-width="0.25" d="M686,426.2l14.1,0.4 M700.1,426.6l-0.1,4.1 M699.9,430.7l-14-0.5"/>
				</g>
				<g>
					<path fill="none" stroke="#000000" stroke-width="0.25" d="M686.5,410.5l14,0.5 M700.6,411l-0.1,3.9 M700.5,414.9l-13.3-0.4"/>
				</g>
				<g>
					<path fill="none" stroke="#000000" stroke-width="0.25" d="M686.4,414.4l14.1,0.5 M700.5,414.9l-0.1,4.1 M700.3,418.9
						l-13.3-0.4"/>
				</g>
				<g>
					<path fill="none" stroke="#000000" stroke-width="0.25" d="M686.2,422.3l-1.2-0.1 M684.9,422.3l0.1-3.9 M685.1,418.4l1.2,0.1"
						/>
				</g>
				<g>
					<path fill="none" stroke="#000000" stroke-width="0.25" d="M686.4,414.4l-1.2,0 M685.2,414.4l0.1-3.9 M685.3,410.5l1.2,0"/>
				</g>
				<g>
					<path fill="none" stroke="#000000" stroke-width="0.25" d="M686.3,418.5l-1.2-0.1 M685.1,418.4l0.1-4.1 M685.2,414.4l1.2,0"/>
				</g>
				<g>
					<path fill="none" stroke="#000000" stroke-width="0.25" d="M686.3,418.5l14.1,0.4 M700.3,418.9l-0.1,3.9 M700.2,422.8l-14-0.4"
						/>
				</g>
				<g>
					<path fill="none" stroke="#000000" stroke-width="0.25" d="M683.9,426.8L683.9,426.8 M683.9,426.8l-0.1,4.1 M683.8,431
						L683.8,431 M683.8,431l-7.7-0.2"/>
				</g>
				<g>
					<path fill="none" stroke="#000000" stroke-width="0.25" d="M676.1,430.7l7.7,0.2 M683.8,431l-0.1,4.1 M683.7,435l-1.2,0"/>
				</g>
				<g>
					<path fill="none" stroke="#000000" stroke-width="0.25" d="M684.2,418.9L684,423"/>
				</g>
				<g>
					<path fill="none" stroke="#000000" stroke-width="0.25" d="M669.1,414.3l0.1-3.9 M669.2,410.4l15.2,0.5 M684.4,410.9l-0.1,3.9"
						/>
				</g>
				<g>
					<path fill="none" stroke="#000000" stroke-width="0.25" d="M676,430.7l-7.6-0.2 M668.4,430.5l-0.1,4.1"/>
				</g>
				<g>
					<path fill="none" stroke="#000000" stroke-width="0.25" d="M682.5,435l1.2,0 M683.7,435l-0.1,3.9 M683.5,438.9l-1.2,0"/>
				</g>
				<g>
					<path fill="none" stroke="#000000" stroke-width="0.25" d="M682.2,442.9l1.2,0.1 M683.4,443l-0.1,3.9 M683.3,446.8l-1.2-0.1"/>
				</g>
				<g>
					<path fill="none" stroke="#000000" stroke-width="0.25" d="M682.3,438.9l1.2,0 M683.5,438.9l-0.1,4.1 M683.4,443l-1.2-0.1"/>
				</g>
				<g>
					<path fill="none" stroke="#000000" stroke-width="0.25" d="M681.6,438.8l-13.3-0.4 M668.3,438.4l0.1-3.9 M668.4,434.5l13.3,0.4
						"/>
				</g>
				<g>
					<path fill="none" stroke="#000000" stroke-width="0.25" d="M682.1,446.8l-14.1-0.4 M668,446.3l0.1-3.9 M668.2,442.5l13.3,0.4"
						/>
				</g>
				<g>
					<path fill="none" stroke="#000000" stroke-width="0.25" d="M682.2,442.9l-14-0.4 M668.2,442.5l0.1-4.1 M668.3,438.4l14,0.5"/>
				</g>
				<g>
					<path fill="none" stroke="#000000" stroke-width="0.25" d="M682.5,435l-14.1-0.5"/>
				</g>
				<g>
					<path fill="none" stroke="#000000" stroke-width="0.25" d="M672.8,293.1l22.2,0.8"/>
				</g>
				<g>
					<path fill="none" stroke="#000000" stroke-width="0.25" d="M672.7,297.3l22.2,0.9"/>
				</g>
				<g>
					<path fill="none" stroke="#000000" stroke-width="0.25" d="M672.5,301.5l22.2,0.9"/>
				</g>
				<g>
					<path fill="none" stroke="#000000" stroke-width="0.25" d="M513.6,313l-15.3-0.6"/>
				</g>
				<g>
					<path fill="none" stroke="#000000" stroke-width="0.25" d="M513.4,316.5l-15.3-0.6"/>
				</g>
				<g>
					<path fill="none" stroke="#000000" stroke-width="0.25" d="M513.3,319.9l-15.3-0.6"/>
				</g>
				<g>
					<path fill="none" stroke="#000000" stroke-width="0.25" d="M513.2,323.3l-15.3-0.6"/>
				</g>
				<g>
					<path fill="none" stroke="#000000" stroke-width="0.25" d="M513,326.7l-15.3-0.6"/>
				</g>
				<g>
					<path fill="none" stroke="#000000" stroke-width="0.25" d="M512.9,330.2l-15.3-0.6"/>
				</g>
				<g>
					<path fill="none" stroke="#000000" stroke-width="0.25" d="M512.8,333.6l-15.3-0.6"/>
				</g>
				<g>
					<path fill="none" stroke="#000000" stroke-width="0.25" d="M511.1,337l-13.7-0.6"/>
				</g>
				<g>
					<path fill="none" stroke="#000000" stroke-width="0.25" d="M506.7,340.2l-9.5-0.4"/>
				</g>
				<g>
					<path fill="none" stroke="#000000" stroke-width="0.25" d="M700.6,411l0.1,0 M700.7,411l-1.1,35.3 M699.5,446.3l-0.1,0
						 M699.4,446.3l1.1-35.3"/>
				</g>
				<g>
					<path fill="none" stroke="#000000" stroke-width="0.25" d="M669.1,411l0.1,0 M669.2,411l-1.2,35.3 M668,446.3L668,446.3
						 M667.9,446.3l1.1-35.4"/>
				</g>
			</g>
			<!--<g>
				<path fill="none" stroke="#000000" stroke-width="0.25" d="M558,341l-0.5,2.1 M557.5,343.2l-1.4,1.7 M556.1,344.9l-2,0.9
					 M554.1,345.8l-2.2,0 M551.9,345.8l-2-1 M549.9,344.9l-1.4-1.7 M548.6,343.2l-0.5-2.1 M548.1,341l0.5-2.1 M548.6,338.9l1.4-1.7
					 M549.9,337.1l2-0.9 M551.9,336.2l2.2,0 M554.1,336.2l2,1 M556.1,337.1l1.4,1.7 M557.5,338.9l0.5,2.1"/>
			</g>
			<g>
				<path fill="none" stroke="#000000" stroke-width="0.25" d="M551.1,316.8l-0.5,2.1 M550.6,318.9l-1.4,1.7 M549.2,320.6l-2,0.9
					 M547.3,321.6l-2.2,0 M545.1,321.6l-2-1 M543.1,320.6l-1.4-1.7 M541.7,318.9l-0.5-2.1 M541.2,316.8l0.5-2.1 M541.7,314.6
					l1.4-1.7 M543.1,312.9l2-0.9 M545.1,311.9l2.2,0 M547.3,311.9l2,1 M549.2,312.9l1.4,1.7 M550.6,314.6l0.5,2.1"/>
			</g>
			<g>
				<path fill="none" stroke="#000000" stroke-width="0.25" d="M530,321.5l-3.2-5.8"/>
			</g>
			<g>
				<path fill="none" stroke="#000000" stroke-width="0.25" d="M527.9,312.3l3.7-2"/>
			</g>
			<g>
				<path fill="none" stroke="#000000" stroke-width="0.25" d="M535.1,311.3l3.1,5.8"/>
			</g>
			<g>
				<path fill="none" stroke="#000000" stroke-width="0.25" d="M535.1,311.3l-0.9-0.9 M534.2,310.3l-1.3-0.4 M532.9,310l-1.3,0.3"/>
			</g>
			<g>
				<path fill="none" stroke="#000000" stroke-width="0.25" d="M526.9,315.7l-0.3-1.3 M526.6,314.5l0.4-1.3 M526.9,313.2l1-0.9"/>
			</g>
			<g>
				<path fill="none" stroke="#000000" stroke-width="0.25" d="M538.2,317.1L538.2,317.1 M538.2,317.1L538.2,317.1 M538.2,317.2
					L538.2,317.2 M538.1,317.2L538.1,317.2 M538.1,317.2L538.1,317.2 M538.1,317.2L538.1,317.2 M538.1,317.3L538.1,317.3 M538,317.3
					L538,317.3 M538,317.3L538,317.3 M538,317.3L538,317.3 M538,317.4L538,317.4 M537.9,317.4L537.9,317.4 M537.9,317.4L537.9,317.4
					 M537.9,317.5L537.9,317.5 M537.8,317.5L537.8,317.5 M537.8,317.5L537.8,317.5 M537.8,317.6L537.8,317.6 M537.7,317.6
					L537.7,317.6 M537.7,317.6L537.7,317.6 M537.7,317.6L537.7,317.6 M537.7,317.7L537.7,317.7 M537.6,317.7L537.6,317.7
					 M537.6,317.7L537.6,317.7 M537.6,317.8L537.6,317.8 M537.5,317.8L537.5,317.8 M537.5,317.8L537.5,317.8 M537.4,317.9
					L537.4,317.9 M537.4,317.9L537.4,317.9 M537.4,317.9L537.4,317.9 M537.3,318L537.3,318 M537.3,318L537.3,318 M537.3,318
					L537.3,318 M537.2,318.1l-0.1,0.1 M537.1,318.2L537.1,318.2 M537.1,318.2L537.1,318.2 M537.1,318.2L537.1,318.2 M537.1,318.2
					L537.1,318.2 M537,318.2L537,318.2 M537,318.3L537,318.3 M537,318.3L537,318.3 M537,318.3L537,318.3 M536.9,318.4L536.9,318.4
					 M536.9,318.4L536.9,318.4 M536.8,318.4L536.8,318.4 M536.8,318.5L536.8,318.5 M536.8,318.5L536.8,318.5 M536.7,318.5
					L536.7,318.5 M536.7,318.5L536.7,318.5 M536.7,318.6L536.7,318.6 M536.7,318.6L536.7,318.6 M536.6,318.6L536.6,318.6
					 M536.6,318.7L536.6,318.7 M536.5,318.7L536.5,318.7 M536.4,318.8L536.4,318.8 M536.4,318.8L536.4,318.8 M536.4,318.8
					L536.4,318.8 M536.4,318.8L536.4,318.8 M536.3,318.8L536.3,318.8 M536.3,318.9L536.3,318.9 M536.3,318.9L536.3,318.9
					 M536.2,318.9L536.2,318.9 M536.2,318.9L536.2,318.9 M536.2,319L536.2,319 M536.1,319L536.1,319 M536.1,319.1L536.1,319.1
					 M536,319.1L536,319.1 M536,319.1L536,319.1 M536,319.1L536,319.1 M535.9,319.2L535.9,319.2 M535.9,319.2L535.9,319.2
					 M535.8,319.2L535.8,319.2 M535.8,319.3L535.8,319.3 M535.7,319.3L535.7,319.3 M535.7,319.3L535.7,319.3 M535.7,319.4
					L535.7,319.4 M535.6,319.4L535.6,319.4 M535.5,319.5L535.5,319.5 M535.5,319.5L535.5,319.5 M535.4,319.5L535.4,319.5
					 M535.3,319.6l-0.1,0.1 M535.2,319.7L535.2,319.7 M535.2,319.7L535.2,319.7 M535.1,319.7L535.1,319.7 M535.1,319.8L535.1,319.8
					 M535.1,319.8L535.1,319.8 M535.1,319.8L535.1,319.8 M535,319.8L535,319.8 M535,319.8L535,319.8 M535,319.8L535,319.8
					 M535,319.8L535,319.8 M534.9,319.9L534.9,319.9 M534.9,319.9L534.9,319.9 M534.9,319.9L534.9,319.9 M534.8,319.9L534.8,319.9
					 M534.8,319.9L534.8,319.9 M534.8,320L534.8,320 M534.8,320L534.8,320 M534.8,320L534.8,320 M534.7,320L534.7,320 M534.7,320
					L534.7,320 M534.6,320.1L534.6,320.1 M534.6,320.1L534.6,320.1 M534.5,320.1L534.5,320.1 M534.5,320.1L534.5,320.1 M534.5,320.1
					L534.5,320.1 M534.5,320.1L534.5,320.1 M534.4,320.2L534.4,320.2 M534.4,320.2L534.4,320.2 M534.4,320.2L534.4,320.2
					 M534.4,320.2L534.4,320.2 M534.3,320.2L534.3,320.2 M534.3,320.2L534.3,320.2 M534.2,320.3L534.2,320.3 M534.2,320.3
					L534.2,320.3 M534.2,320.3L534.2,320.3 M534.1,320.3L534.1,320.3 M534.1,320.3L534.1,320.3 M534.1,320.4L534.1,320.4
					 M534.1,320.4L534.1,320.4 M534,320.4L534,320.4 M534,320.4L534,320.4 M533.9,320.4L533.9,320.4 M533.9,320.4L533.9,320.4
					 M533.8,320.5L533.8,320.5 M533.8,320.5L533.8,320.5 M533.7,320.5L533.7,320.5 M533.7,320.5l-0.1,0.1 M533.5,320.6L533.5,320.6
					 M533.5,320.6L533.5,320.6 M533.5,320.6L533.5,320.6 M533.5,320.7L533.5,320.7 M533.5,320.7L533.5,320.7 M533.4,320.7
					L533.4,320.7 M533.4,320.7L533.4,320.7 M533.4,320.7L533.4,320.7 M533.3,320.7L533.3,320.7 M533.3,320.7L533.3,320.7
					 M533.3,320.7L533.3,320.7 M533.3,320.7L533.3,320.7 M533.2,320.8L533.2,320.8 M533.2,320.8L533.2,320.8 M533.2,320.8
					L533.2,320.8 M533.1,320.8L533.1,320.8 M533.1,320.8L533.1,320.8 M533.1,320.8L533.1,320.8 M533.1,320.8L533.1,320.8 M533,320.8
					L533,320.8 M533,320.8L533,320.8 M533,320.8L533,320.8 M532.9,320.9L532.9,320.9 M532.9,320.9L532.9,320.9 M532.8,320.9
					L532.8,320.9 M532.8,320.9L532.8,320.9 M532.7,320.9l-0.1,0.1 M532.6,321L532.6,321 M532.6,321L532.6,321 M532.6,321L532.6,321
					 M532.6,321L532.6,321 M532.5,321L532.5,321 M532.5,321L532.5,321 M532.5,321L532.5,321 M532.4,321L532.4,321 M532.4,321
					L532.4,321 M532.4,321L532.4,321 M532.4,321.1L532.4,321.1 M532.3,321.1L532.3,321.1 M532.3,321.1L532.3,321.1 M532.2,321.1
					L532.2,321.1 M532.2,321.1L532.2,321.1 M532.1,321.1L532.1,321.1 M532.1,321.1L532.1,321.1 M532,321.1L532,321.1 M532,321.1
					L532,321.1 M532,321.1L532,321.1 M532,321.2L532,321.2 M531.9,321.2L531.9,321.2 M531.9,321.2L531.9,321.2 M531.8,321.2
					L531.8,321.2 M531.7,321.2L531.7,321.2 M531.7,321.2L531.7,321.2 M531.7,321.2L531.7,321.2 M531.6,321.3L531.6,321.3
					 M531.5,321.3L531.5,321.3 M531.4,321.3L531.4,321.3 M531.4,321.3l-0.1,0 M531.2,321.3l-1.2,0.2"/>
			</g>
			<g>
				<path fill="none" stroke="#000000" stroke-width="0.25" d="M528.5,337.2l-3.5,5.6"/>
			</g>
			<g>
				<path fill="none" stroke="#000000" stroke-width="0.25" d="M525.8,346.3l3.6,2.3"/>
			</g>
			<g>
				<path fill="none" stroke="#000000" stroke-width="0.25" d="M532.9,347.7l3.5-5.6"/>
			</g>
			<g>
				<path fill="none" stroke="#000000" stroke-width="0.25" d="M532.9,347.7l-1,0.9 M531.9,348.6l-1.3,0.3 M530.6,348.9l-1.3-0.4"/>
			</g>
			<g>
				<path fill="none" stroke="#000000" stroke-width="0.25" d="M525,342.8l-0.4,1.2 M524.6,344l0.3,1.3 M524.9,345.3l0.9,0.9"/>
			</g>
			<g>
				<path fill="none" stroke="#000000" stroke-width="0.25" d="M536.4,342.1L536.4,342.1 M536.4,342.1L536.4,342.1 M536.3,342.1
					L536.3,342.1 M536.3,342.1L536.3,342.1 M536.3,342.1L536.3,342.1 M536.3,342L536.3,342 M536.2,342L536.2,342 M536.2,342
					L536.2,342 M536.2,341.9L536.2,341.9 M536.2,341.9L536.2,341.9 M536.1,341.9L536.1,341.9 M536.1,341.8L536.1,341.8 M536.1,341.8
					L536.1,341.8 M536,341.8L536,341.8 M536,341.7L536,341.7 M536,341.7L536,341.7 M536,341.7L536,341.7 M535.9,341.7L535.9,341.7
					 M535.9,341.6L535.9,341.6 M535.9,341.6L535.9,341.6 M535.9,341.5L535.9,341.5 M535.8,341.5L535.8,341.5 M535.8,341.5
					L535.8,341.5 M535.7,341.4L535.7,341.4 M535.7,341.4L535.7,341.4 M535.7,341.4L535.7,341.4 M535.7,341.3L535.7,341.3
					 M535.6,341.3L535.6,341.3 M535.6,341.3L535.6,341.3 M535.6,341.2L535.6,341.2 M535.5,341.2L535.5,341.2 M535.5,341.2
					L535.5,341.2 M535.4,341.1L535.4,341.1 M535.4,341L535.4,341 M535.3,341L535.3,341 M535.3,341L535.3,341 M535.3,340.9
					L535.3,340.9 M535.3,340.9L535.3,340.9 M535.2,340.9L535.2,340.9 M535.2,340.9L535.2,340.9 M535.2,340.8L535.2,340.8
					 M535.2,340.8L535.2,340.8 M535.1,340.8L535.1,340.8 M535.1,340.8L535.1,340.8 M535.1,340.7L535.1,340.7 M535,340.7L535,340.7
					 M535,340.6L535,340.6 M535,340.6L535,340.6 M535,340.6L535,340.6 M534.9,340.6L534.9,340.6 M534.9,340.5L534.9,340.5
					 M534.9,340.5L534.9,340.5 M534.8,340.5L534.8,340.5 M534.7,340.4L534.7,340.4 M534.7,340.4L534.7,340.4 M534.7,340.4
					L534.7,340.4 M534.6,340.3L534.6,340.3 M534.6,340.3L534.6,340.3 M534.6,340.3L534.6,340.3 M534.6,340.2L534.6,340.2
					 M534.5,340.2L534.5,340.2 M534.5,340.2L534.5,340.2 M534.5,340.2L534.5,340.2 M534.4,340.1L534.4,340.1 M534.4,340.1
					L534.4,340.1 M534.3,340L534.3,340 M534.3,340L534.3,340 M534.3,340L534.3,340 M534.2,339.9L534.2,339.9 M534.2,339.9
					L534.2,339.9 M534.1,339.9L534.1,339.9 M534.1,339.8L534.1,339.8 M534,339.8L534,339.8 M534,339.8L534,339.8 M534,339.7
					L534,339.7 M533.9,339.7L533.9,339.7 M533.8,339.6L533.8,339.6 M533.8,339.6L533.8,339.6 M533.7,339.5L533.7,339.5 M533.7,339.5
					l-0.1-0.1 M533.5,339.4L533.5,339.4 M533.5,339.3L533.5,339.3 M533.5,339.3L533.5,339.3 M533.4,339.3L533.4,339.3 M533.4,339.3
					L533.4,339.3 M533.4,339.3L533.4,339.3 M533.4,339.3L533.4,339.3 M533.4,339.2L533.4,339.2 M533.3,339.2L533.3,339.2
					 M533.3,339.2L533.3,339.2 M533.3,339.2L533.3,339.2 M533.3,339.2L533.3,339.2 M533.2,339.2L533.2,339.2 M533.2,339.1
					L533.2,339.1 M533.2,339.1L533.2,339.1 M533.1,339.1L533.1,339.1 M533.1,339.1L533.1,339.1 M533.1,339L533.1,339 M533.1,339
					L533.1,339 M533,339L533,339 M533,339L533,339 M533,338.9L533,338.9 M532.9,338.9L532.9,338.9 M532.9,338.9L532.9,338.9
					 M532.9,338.9L532.9,338.9 M532.8,338.9L532.8,338.9 M532.8,338.9L532.8,338.9 M532.8,338.9L532.8,338.9 M532.8,338.8
					L532.8,338.8 M532.7,338.8L532.7,338.8 M532.7,338.8L532.7,338.8 M532.7,338.8L532.7,338.8 M532.6,338.7L532.6,338.7
					 M532.6,338.7L532.6,338.7 M532.5,338.7L532.5,338.7 M532.5,338.7L532.5,338.7 M532.5,338.7L532.5,338.7 M532.5,338.6
					L532.5,338.6 M532.4,338.6L532.4,338.6 M532.4,338.6L532.4,338.6 M532.4,338.6L532.4,338.6 M532.3,338.6L532.3,338.6
					 M532.3,338.5L532.3,338.5 M532.2,338.5L532.2,338.5 M532.2,338.5L532.2,338.5 M532.1,338.4L532.1,338.4 M532.1,338.4l-0.1-0.1
					 M531.9,338.3L531.9,338.3 M531.9,338.3L531.9,338.3 M531.9,338.3L531.9,338.3 M531.9,338.3L531.9,338.3 M531.9,338.3
					L531.9,338.3 M531.8,338.3L531.8,338.3 M531.8,338.3L531.8,338.3 M531.8,338.3L531.8,338.3 M531.8,338.3L531.8,338.3
					 M531.7,338.2L531.7,338.2 M531.7,338.2L531.7,338.2 M531.7,338.2L531.7,338.2 M531.6,338.2L531.6,338.2 M531.6,338.2
					L531.6,338.2 M531.6,338.2L531.6,338.2 M531.5,338.2L531.5,338.2 M531.5,338.2L531.5,338.2 M531.5,338.1L531.5,338.1
					 M531.5,338.1L531.5,338.1 M531.4,338.1L531.4,338.1 M531.4,338.1L531.4,338.1 M531.4,338.1L531.4,338.1 M531.4,338.1
					L531.4,338.1 M531.3,338L531.3,338 M531.3,338L531.3,338 M531.2,338L531.2,338 M531.1,338l-0.1,0 M531,337.9L531,337.9
					 M531,337.9L531,337.9 M531,337.9L531,337.9 M531,337.9L531,337.9 M531,337.9L531,337.9 M530.9,337.9L530.9,337.9 M530.9,337.9
					L530.9,337.9 M530.9,337.9L530.9,337.9 M530.8,337.9L530.8,337.9 M530.8,337.9L530.8,337.9 M530.8,337.8L530.8,337.8
					 M530.7,337.8L530.7,337.8 M530.7,337.8L530.7,337.8 M530.7,337.8L530.7,337.8 M530.6,337.8l-0.1,0 M530.5,337.7L530.5,337.7
					 M530.5,337.7L530.5,337.7 M530.5,337.7L530.5,337.7 M530.5,337.7L530.5,337.7 M530.4,337.7L530.4,337.7 M530.4,337.7
					L530.4,337.7 M530.4,337.7L530.4,337.7 M530.3,337.7L530.3,337.7 M530.2,337.6L530.2,337.6 M530.2,337.6L530.2,337.6
					 M530.1,337.6L530.1,337.6 M530.1,337.6L530.1,337.6 M530,337.6L530,337.6 M530,337.6L530,337.6 M529.9,337.6L529.9,337.6
					 M529.8,337.5l-0.2,0 M529.7,337.5l-1.2-0.3"/>
			</g>-->
			<g>
				<path fill="none" stroke="#000000" stroke-width="0.25" d="M548.2,300l4.2,0.2 M552.4,300.1l0.2-4.2 M552.6,295.9l-4.3-0.2
					 M548.3,295.7l-0.2,4.3"/>
			</g>
			<g>
				<path fill="none" stroke="#000000" stroke-width="0.25" d="M543.9,299.8l4.3,0.2 M548.2,300l0.2-4.3 M548.3,295.7l-4.2-0.2
					 M544.1,295.5l-0.2,4.3"/>
			</g>
			<g>
				<path fill="none" stroke="#000000" stroke-width="0.25" d="M531.8,299.3l4.3,0.2 M536.1,299.4l0.2-4.3 M536.3,295.2L532,295
					 M532,295l-0.2,4.2"/>
			</g>
			<g>
				<path fill="none" stroke="#000000" stroke-width="0.25" d="M602.2,310.6l51,1.7 M653.2,312.3l-0.4,11.3 M652.8,323.6l-51-1.7
					 M601.8,321.9l0.4-11.3"/>
			</g>
			<g>
				<path fill="none" stroke="#000000" stroke-width="0.25" d="M623.7,303l-5.1-0.2 M618.6,302.8l0.2-5.1 M618.8,297.7l5.1,0.2
					 M623.9,298l-0.2,5.1"/>
			</g>
			<g>
				<path fill="none" stroke="#000000" stroke-width="0.25" d="M613.1,302.6l-5.1-0.2 M608,302.4l0.2-5.1 M608.2,297.3l5.1,0.2
					 M613.3,297.5l-0.2,5.1"/>
			</g>
			<g>
				<path fill="none" stroke="#000000" stroke-width="0.25" d="M608,302.4l-5.1-0.2 M602.9,302.1l0.2-5.1 M603.1,297l5.1,0.2
					 M608.2,297.3l-0.2,5.1"/>
			</g>
			<g>
				<path fill="none" stroke="#000000" stroke-width="0.25" d="M601.7,302.1l-5.1-0.2 M596.6,301.9l0.2-5.1 M596.8,296.8l5.1,0.2
					 M601.9,297l-0.2,5.1"/>
			</g>
			<g>
				<path fill="none" stroke="#000000" stroke-width="0.25" d="M585.1,301.4l-5.1-0.2 M580,301.2l0.2-5.1 M580.2,296.1l5.1,0.2
					 M585.3,296.3l-0.2,5.1"/>
			</g>
			<g>
				<path fill="none" stroke="#000000" stroke-width="0.25" d="M559.9,348.6L559.9,348.6 M559.8,348.6L559.8,348.6 M559.8,348.6
					L559.8,348.6 M559.8,348.6L559.8,348.6 M559.8,348.6L559.8,348.6 M559.8,348.6L559.8,348.6 M559.8,348.6L559.8,348.6
					 M559.8,348.6L559.8,348.6 M559.8,348.6L559.8,348.6 M559.8,348.6L559.8,348.6 M559.8,348.6L559.8,348.6 M559.8,348.6
					L559.8,348.6 M559.8,348.6L559.8,348.6 M559.8,348.6L559.8,348.6 M559.8,348.6L559.8,348.6 M559.8,348.6L559.8,348.6
					 M559.8,348.6L559.8,348.6 M559.8,348.6L559.8,348.6 M559.8,348.6L559.8,348.6 M559.8,348.6L559.8,348.6 M559.8,348.6
					L559.8,348.6 M559.8,348.6L559.8,348.6 M559.8,348.6L559.8,348.6 M559.8,348.6L559.8,348.6 M559.8,348.6L559.8,348.6
					 M559.8,348.6L559.8,348.6 M559.8,348.6L559.8,348.6 M559.8,348.6L559.8,348.6 M559.8,348.6L559.8,348.6 M559.8,348.6
					L559.8,348.6 M559.8,348.6L559.8,348.6 M559.8,348.6L559.8,348.6 M559.8,348.6L559.8,348.6 M559.8,348.6L559.8,348.6
					 M559.8,348.6L559.8,348.6 M559.8,348.6L559.8,348.6 M559.8,348.6L559.8,348.6 M559.8,348.6L559.8,348.6 M559.8,348.6
					L559.8,348.6 M559.8,348.6L559.8,348.6 M559.8,348.6L559.8,348.6 M559.8,348.6L559.8,348.6"/>
			</g>
			<g>
				<path fill="none" stroke="#000000" stroke-width="0.25" d="M560.9,314.7L560.9,314.7 M560.9,314.7L560.9,314.7 M560.9,314.7
					L560.9,314.7 M560.9,314.7L560.9,314.7 M560.9,314.7L560.9,314.7 M560.9,314.7L560.9,314.7 M560.9,314.7L560.9,314.7
					 M560.9,314.7L560.9,314.7 M560.9,314.7L560.9,314.7 M560.9,314.7L560.9,314.7 M560.9,314.7L560.9,314.7 M560.9,314.7
					L560.9,314.7 M560.9,314.7L560.9,314.7 M560.9,314.7L560.9,314.7 M560.9,314.7L560.9,314.7 M560.9,314.7L560.9,314.7
					 M560.9,314.7L560.9,314.7 M560.9,314.7L560.9,314.7 M560.9,314.7L560.9,314.7 M560.9,314.7L560.9,314.7 M560.9,314.7
					L560.9,314.7 M560.9,314.7L560.9,314.7 M560.9,314.7L560.9,314.7 M560.9,314.7L560.9,314.7 M560.9,314.7L560.9,314.7
					 M560.9,314.7L560.9,314.7 M560.9,314.7L560.9,314.7 M560.9,314.7L560.9,314.7 M560.9,314.7L560.9,314.7 M560.9,314.7
					L560.9,314.7 M560.9,314.7L560.9,314.7 M560.9,314.7L560.9,314.7 M560.9,314.7L560.9,314.7 M560.9,314.7L560.9,314.7
					 M560.9,314.7L560.9,314.7 M560.9,314.7L560.9,314.7 M560.9,314.7L560.9,314.7 M560.9,314.7L560.9,314.7 M560.9,314.7
					L560.9,314.7 M560.9,314.7L560.9,314.7 M560.9,314.7L560.9,314.7 M560.9,314.7L560.9,314.7 M560.9,314.7L560.9,314.7"/>
			</g>
			<g>
				<path fill="none" stroke="#000000" stroke-width="0.25" d="M571.5,315l0.2,0.1 M571.7,315.1l0.1,0.2"/>
			</g>
			<g>
				<path fill="none" stroke="#000000" stroke-width="0.25" d="M570.6,348.8l-0.1,0.2 M570.6,348.9l-0.2,0.1"/>
			</g>
			<g>
				<path fill="none" stroke="#000000" stroke-width="0.25" d="M560.8,314.9L560.8,314.9 M560.8,314.8L560.8,314.8 M560.8,314.8
					L560.8,314.8 M560.8,314.8L560.8,314.8 M560.8,314.8L560.8,314.8 M560.9,314.7L560.9,314.7 M560.9,314.7L560.9,314.7
					 M560.9,314.7L560.9,314.7"/>
			</g>
			<g>
				<path fill="none" stroke="#000000" stroke-width="0.25" d="M559.8,348.6L559.8,348.6 M559.8,348.6L559.8,348.6 M559.8,348.6
					L559.8,348.6 M559.8,348.6L559.8,348.6 M559.8,348.6L559.8,348.6 M559.8,348.6L559.8,348.6 M559.7,348.5L559.7,348.5
					 M559.7,348.5L559.7,348.5 M559.7,348.4L559.7,348.4"/>
			</g>
<!--			<g>
				<path fill="none" stroke="#000000" stroke-width="0.25" d="M571.5,315l-1.9-0.1l-0.5,0l-0.2,0l-0.1,0l-1.7-0.1l-0.2,0l-5.4-0.2
					l-0.1,0l-0.5,0l0,0l-0.1,0.2l-1.1,33.6l0.1,0.2l0,0l0.5,0l0.1,0l5.4,0.2l4.5,0.2l0.2-0.2l1.1-33.6L571.5,315z"/>
			</g>-->
			<g id="G-wc_PROP_x24_0_x24__x5F_TMD-Floor_9_">
				<g>
					<path fill="none" stroke="#2D2D2D" stroke-width="0.25" d="M631.9,420.3l-0.1,1.8"/>
				</g>
				<g>
					<path fill="none" stroke="#2D2D2D" stroke-width="0.25" d="M631.8,422.4l-0.1,3.5"/>
				</g>
			</g>
			<g id="_x31_-first_PROP_x24_0_x24__x5F_TMD-building_outline_11_">
				<g>
					<path fill="none" stroke="#2D2D2D" stroke-width="0.25" d="M565.6,560.6l0.4,0"/>
				</g>
				<g>
					<path fill="none" stroke="#2D2D2D" stroke-width="0.25" d="M461.2,545.3l59.8-0.6"/>
				</g>
				<g>
					<path fill="none" stroke="#2D2D2D" stroke-width="0.25" d="M521.1,544.7l4.2,0.5 M525.2,545.2l3.9,1.4 M529.2,546.6l3.5,2.3
						 M532.6,549l2.8,3.1 M535.5,552.1l2,3.7 M537.4,555.8l1.1,4 M538.5,559.8l0,4.2 M538.5,564l-1,4.1 M537.6,568.1l-1.9,3.7
						 M535.6,571.8l-2.7,3.1 M532.9,575l-3.4,2.4 M529.4,577.4l-3.9,1.5 M525.5,578.9l-4.2,0.5"/>
				</g>
				<g>
					<path fill="none" stroke="#2D2D2D" stroke-width="0.25" d="M550.4,566.9l18.2-2.2"/>
				</g>
				<g>
					<path fill="none" stroke="#2D2D2D" stroke-width="0.25" d="M565.8,560.7l-16,1.9"/>
				</g>
				<g>
					<path fill="none" stroke="#2D2D2D" stroke-width="0.25" d="M568.6,564.7l14.9-0.1"/>
				</g>
				<g>
					<path fill="none" stroke="#2D2D2D" stroke-width="0.25" d="M549.9,562.6l0.5,4.2"/>
				</g>
				<g>
					<path fill="none" stroke="#2D2D2D" stroke-width="0.25" d="M453,518.3l-0.7,13.4 M452.2,531.7l8.9,0.5 M461.1,532.1l0.1,13.2"
						/>
				</g>
				<g>
					<path fill="none" stroke="#2D2D2D" stroke-width="0.25" d="M440,486l-1.7,31.4 M438.2,517.4l14.7,0.8"/>
				</g>
				<g>
					<path fill="none" stroke="#2D2D2D" stroke-width="0.25" d="M598.2,518.7l-43.2,13 M555.1,531.7l8.7,29.3"/>
				</g>
				<g>
					<path fill="none" stroke="#2D2D2D" stroke-width="0.25" d="M555.1,531.7l43.2-13 M598.2,518.7l74.3-24.5 M672.5,494.2l0.2-5.7
						 M672.7,488.5l28.9,0.9 M701.6,489.4l0.7-21.5"/>
				</g>
				<g>
					<path fill="none" stroke="#2D2D2D" stroke-width="0.25" d="M586.9,569.3l0.5,0"/>
				</g>
				<g>
					<path fill="none" stroke="#2D2D2D" stroke-width="0.25" d="M583.4,564.6l0,4.7"/>
				</g>
				<g>
					<path fill="none" stroke="#2D2D2D" stroke-width="0.25" d="M583.5,569.3l-0.5,0"/>
				</g>
				<g>
					<path fill="none" stroke="#2D2D2D" stroke-width="0.25" d="M300.4,528.8l1.1,0 M301.5,528.8l-0.1-2.1 M301.4,526.8l0.1-2.8
						 M301.6,524l-1.1-0.1 M300.5,523.9l0.4-7.5 M300.8,516.4l1.1,0.1 M301.9,516.5l1.8-37.5 M303.7,479l-1.1-0.1 M302.6,478.9
						l0.4-7.5 M303,471.4l1.1,0.1 M304.1,471.5l1.8-37.5 M305.9,434l-1.1-0.1 M304.8,433.9l0.4-7.5 M305.1,426.4l1.1,0.1
						 M306.3,426.5l1.8-37.5 M308.1,389l-1.1-0.1 M306.9,388.9l0.4-7.5 M307.3,381.4l1.1,0.1 M308.4,381.4l1.8-37.5 M310.2,344
						l-1.1-0.1 M309.1,343.9l0.4-7.5 M309.4,336.4l1.1,0.1 M310.6,336.4l0.1-3.1 M310.7,333.3l2.7-8.2 M313.4,325.1l4.3-8.7
						 M317.6,316.3l6.4-9.1 M324.1,307.3l5-5.3 M329,302l6.9-5.7 M335.9,296.3l8.3-5 M344.2,291.3l8.1-3.4 M352.2,287.9l4.3-1.4
						 M356.6,286.5l4.7-1.1 M361.3,285.4l3.1,0.1 M364.4,285.5l0.1-1.1 M364.5,284.4l7.4,0.3 M371.8,284.7l0,1.1 M371.8,285.8
						l31.4,1.2 M403.3,287.1l0-1.1 M403.3,285.9l7.4,0.3 M410.7,286.2l-0.1,1.1 M410.6,287.3l31.4,1.2 M442,288.6l0-1.1
						 M442.1,287.4l7.4,0.3 M449.5,287.7l-0.1,1.1 M449.4,288.8l4,0.2 M453.4,289l-0.2,6.6 M453.1,295.7l23.1,0.9 M476.2,296.6
						l0.2-6.7 M476.4,289.9l4,0.2 M480.4,290.1l0.1-1.1 M480.5,288.9l7.4,0.3 M487.8,289.2l0,0.7 M487.8,289.9l0.7,0 M488.5,289.9
						l0.1-3.4 M488.7,286.6l-6.3,174.3 M482.3,460.9l-1,26.6 M481.4,487.5L440,486"/>
				</g>
				<g>
					<path fill="none" stroke="#2D2D2D" stroke-width="0.25" d="M701.7,487L600,483.7 M600,483.7l0.6-19 M600.6,464.7l101.6,3.3
						 M702.3,468l-0.6,19"/>
				</g>
				<g>
					<path fill="none" stroke="#2D2D2D" stroke-width="0.25" d="M619.3,465.3l-0.6,19"/>
				</g>
			</g>
			<g id="_x36_25_x5F_site_x5F_00_-_0075_x5F_Existing_Buildings_11_">
				<g>
					<path fill="none" stroke="#2D2D2D" stroke-width="0.25" d="M453,518.3l-14.7-0.8 M438.2,517.4L440,486"/>
				</g>
				<g>
					<path fill="none" stroke="#2D2D2D" stroke-width="0.25" d="M453,518.3l-0.7,13.4 M452.2,531.7l8.9,0.5 M461.1,532.1l0.1,13.2"
						/>
				</g>
			</g>
			<g id="_x36_25_x5F_01_x5F_fitt_x5F_01_-_800_x5F_Loose_Furniture_and_Equipment_11_">
				<g>
					<path fill="none" stroke="#000000" stroke-width="0.25" d="M619,460.1L619,460.1"/>
				</g>
			</g>
			<g id="_x32_10_x5F_Ext_Walls_11_">
				<g>
					<path fill="none" stroke="#000000" stroke-width="0.25" d="M699,462.7l-8.7-0.3"/>
				</g>
				<g>
					<path fill="none" stroke="#000000" stroke-width="0.25" d="M673.1,461.8l-5.5-0.2"/>
				</g>
				<g>
					<path fill="none" stroke="#000000" stroke-width="0.25" d="M619,465l14.8,0.5"/>
				</g>
				<g>
					<path fill="none" stroke="#000000" stroke-width="0.25" d="M651.5,466.2l21.1,0.7"/>
				</g>
				<g>
					<path fill="none" stroke="#000000" stroke-width="0.25" d="M669.6,394.6l-1.8,56.4"/>
				</g>
				<g>
					<path fill="none" stroke="#000000" stroke-width="0.25" d="M690.3,462.4l-0.1,2.6"/>
				</g>
				<g>
					<path fill="none" stroke="#000000" stroke-width="0.25" d="M673.1,461.8l-0.1,2.7"/>
				</g>
				<g>
					<path fill="none" stroke="#000000" stroke-width="0.25" d="M667.6,461.2l-1.9-0.1"/>
				</g>
				<g>
					<path fill="none" stroke="#000000" stroke-width="0.25" d="M667.8,450.9l-1.7-0.1"/>
				</g>
				<g>
					<path fill="none" stroke="#000000" stroke-width="0.25" d="M667.6,461.2l0,0.4"/>
				</g>
				<g>
					<path fill="none" stroke="#000000" stroke-width="0.25" d="M690.4,466.4l0,1.1"/>
				</g>
				<g>
					<path fill="none" stroke="#000000" stroke-width="0.25" d="M673,464.5l-0.1,1.4"/>
				</g>
				<g>
					<path fill="none" stroke="#000000" stroke-width="0.25" d="M672.7,465.9l-0.1,1.1"/>
				</g>
				<g>
					<path fill="none" stroke="#000000" stroke-width="0.25" d="M660.3,380.3l0.1-5.1"/>
				</g>
				<g>
					<path fill="none" stroke="#000000" stroke-width="0.25" d="M660.3,380.3l4.5,0.1 M664.8,380.4l-0.4,19"/>
				</g>
				<g>
					<path fill="none" stroke="#000000" stroke-width="0.25" d="M695,293.8l12.8,0.4"/>
				</g>
				<g>
					<path fill="none" stroke="#000000" stroke-width="0.25" d="M690.4,466.4l-0.3,0"/>
				</g>
				<g>
					<path fill="none" stroke="#000000" stroke-width="0.25" d="M673,465.9l-0.3,0"/>
				</g>
				<g>
					<path fill="none" stroke="#000000" stroke-width="0.25" d="M651.3,461.5l-0.2,0"/>
				</g>
				<g>
					<path fill="none" stroke="#000000" stroke-width="0.25" d="M665.7,461.8l0-0.7"/>
				</g>
				<g>
					<path fill="none" stroke="#000000" stroke-width="0.25" d="M653.3,461.4l0.4-12.5"/>
				</g>
				<g>
					<path fill="none" stroke="#000000" stroke-width="0.25" d="M653.3,461.4l12.5,0.4"/>
				</g>
				<g>
					<path fill="none" stroke="#000000" stroke-width="0.25" d="M653.6,448.9l0.7,0"/>
				</g>
				<g>
					<path fill="none" stroke="#000000" stroke-width="0.25" d="M666,450.9l0.1-1.5"/>
				</g>
				<g>
					<path fill="none" stroke="#000000" stroke-width="0.25" d="M651.7,447.4l2.7,0.1"/>
				</g>
				<g>
					<path fill="none" stroke="#000000" stroke-width="0.25" d="M665.4,449.3l0.1-1.4"/>
				</g>
				<g>
					<path fill="none" stroke="#000000" stroke-width="0.25" d="M654.3,449l0.1-1.4"/>
				</g>
				<g>
					<path fill="none" stroke="#000000" stroke-width="0.25" d="M665.4,447.9l0.7,0"/>
				</g>
				<g>
					<path fill="none" stroke="#000000" stroke-width="0.25" d="M665.4,449.3l0.7,0"/>
				</g>
				<g>
					<path fill="none" stroke="#000000" stroke-width="0.25" d="M651.5,466.2l0-0.8"/>
				</g>
				<g>
					<path fill="none" stroke="#000000" stroke-width="0.25" d="M651.6,465.4l-0.5,0"/>
				</g>
				<g>
					<path fill="none" stroke="#000000" stroke-width="0.25" d="M651,465.4l0.1-3.8"/>
				</g>
				<g>
					<path fill="none" stroke="#000000" stroke-width="0.25" d="M701.6,383.8l-2.6,78.9"/>
				</g>
				<g>
					<path fill="none" stroke="#000000" stroke-width="0.25" d="M651.3,461.5l0.4-14.1"/>
				</g>
				<g>
					<path fill="none" stroke="#000000" stroke-width="0.25" d="M567.4,371.3l-6.9-0.2"/>
				</g>
				<g>
					<path fill="none" stroke="#000000" stroke-width="0.25" d="M560.5,371.1l-0.3,9.2"/>
				</g>
				<g>
					<path fill="none" stroke="#000000" stroke-width="0.25" d="M560.2,380.3l6.9,0.2"/>
				</g>
				<g>
					<path fill="none" stroke="#000000" stroke-width="0.25" d="M567.1,380.6l0.3-9.2"/>
				</g>
				<g>
					<path fill="none" stroke="#000000" stroke-width="0.25" d="M618.7,464.1l0.3,0 M619,464.1l0,0.9"/>
				</g>
				<g>
					<path fill="none" stroke="#000000" stroke-width="0.25" d="M634.3,464.8l-0.5,0 M633.8,464.8l0,0.8"/>
				</g>
				<g>
					<path fill="none" stroke="#000000" stroke-width="0.25" d="M666.1,447.9l1.2-43.4"/>
				</g>
				<g>
					<path fill="none" stroke="#000000" stroke-width="0.25" d="M667.3,404.5l-35.1-1.1"/>
				</g>
				<g>
					<path fill="none" stroke="#000000" stroke-width="0.25" d="M632.3,403.4l-1.2,34.1"/>
				</g>
				<g>
					<path fill="none" stroke="#000000" stroke-width="0.25" d="M631.1,437.5l4,0.1"/>
				</g>
				<g>
					<path fill="none" stroke="#000000" stroke-width="0.25" d="M635.1,437.7l-0.7,23.3"/>
				</g>
				<g>
					<path fill="none" stroke="#000000" stroke-width="0.25" d="M634.4,460.9l-0.1,2.7"/>
				</g>
				<g>
					<path fill="none" stroke="#000000" stroke-width="0.25" d="M634.3,463.6l-0.1,1.2"/>
				</g>
				<g>
					<path fill="none" stroke="#000000" stroke-width="0.25" d="M660.4,375.2l14.1,0.4"/>
				</g>
				<g>
					<path fill="none" stroke="#000000" stroke-width="0.25" d="M690.4,467.6l16.3,0.6 M706.7,468.1l0.6-34"/>
				</g>
				<g>
					<path fill="none" stroke="#000000" stroke-width="0.25" d="M690.1,466.4l0.1-1.4 M690.2,465l-0.1,1.4"/>
				</g>
				<g>
					<path fill="none" stroke="#000000" stroke-width="0.25" d="M683.1,377.7l-7.6-0.3 M675.6,377.4l-0.1,1.4 M675.5,378.8l-1.4,0
						 M674.1,378.8l0.1-1.4 M674.1,377.4l-3.7-0.1 M670.4,377.3l-0.5,15.9 M669.9,393.2l3.8,0.1 M673.6,393.3l0-0.3 M673.6,393
						l1.4,0.1 M675.1,393.1l-0.1,1.7 M675,394.7l-5.4-0.1"/>
				</g>
				<g>
					<path fill="none" stroke="#000000" stroke-width="0.25" d="M701.9,376.6l-3.7-0.1 M698.1,376.4l-0.2,7.2 M697.9,383.7l3.6,0.1"
						/>
				</g>
				<g>
					<path fill="none" stroke="#000000" stroke-width="0.25" d="M731.3,306.4l0-1.7 M731.3,304.7l1.8,0 M733.2,304.7l0-2
						 M733.2,302.7l-0.1,0 M733.1,302.7l0.1-5.1"/>
				</g>
				<g>
					<path fill="none" stroke="#000000" stroke-width="0.25" d="M711.1,297.2l0.1-2.2 M711.1,295l-3.3-0.1 M707.8,294.9l0-0.7"/>
				</g>
				<g>
					<path fill="none" stroke="#000000" stroke-width="0.25" d="M627.5,363.6L627.5,363.6 M627.5,363.6L627.5,363.6 M627.5,363.6
						l-27.3-0.9 M600.1,362.6l-0.4,10.9 M599.7,373.5l-1.6-0.1 M598.1,373.4l0.4-12.6"/>
				</g>
				<g>
					<path fill="none" stroke="#000000" stroke-width="0.25" d="M709.7,373.5l0.4-11.3"/>
				</g>
				<g>
					<path fill="none" stroke="#000000" stroke-width="0.25" d="M708,427l1.6-53.5"/>
				</g>
				<g>
					<path fill="none" stroke="#000000" stroke-width="0.25" d="M710,362.2l1.7-56.2 M711.8,306l19.6,0.4"/>
				</g>
				<g>
					<path fill="none" stroke="#000000" stroke-width="0.25" d="M701.9,376.6l1.6-55.7"/>
				</g>
				<g>
					<path fill="none" stroke="#000000" stroke-width="0.25" d="M703.4,320.9l-9.4-0.3"/>
				</g>
				<g>
					<path fill="none" stroke="#000000" stroke-width="0.25" d="M683.1,377.7l0-1.8 M683.1,375.9l-22.7-0.7"/>
				</g>
				<g>
					<path fill="none" stroke="#000000" stroke-width="0.25" d="M672.6,298.1l0.2-5 M672.8,293.1l-4-0.2 M668.8,292.9l-0.1,3
						 M668.7,295.9l0.5,0 M669.2,295.9l-0.1,2.1 M669.1,298.1l2,0.1"/>
				</g>
				<g>
					<path fill="none" stroke="#000000" stroke-width="0.25" d="M641.3,291.9l-0.1,2.3 M641.3,294.2l-0.5,0 M640.8,294.2l-0.1,2.8
						 M640.7,297l-3.3-0.1 M637.4,296.9l-0.1,2.2 M637.3,299.1l-5.6-0.2 M631.7,298.9l0.1-2.2 M631.8,296.7l-3.2-0.1 M628.6,296.6
						l0.1-2.9 M628.7,293.7l-0.3,0 M628.4,293.7l0.1-2.3 M628.5,291.4l12.9,0.5"/>
				</g>
				<g>
					<path fill="none" stroke="#000000" stroke-width="0.25" d="M574,289.2l-0.2,5.2 M573.8,294.4l-2.7-0.1 M571.1,294.3l-0.1,2.2
						 M571,296.5l-5.6-0.2 M565.3,296.3l0.1-2.2 M565.4,294.1l-2.7-0.1 M562.7,294l0.1-2.8 M562.8,291.1l-1.9-0.1 M561,291.1
						l0.1-2.3 M561,288.7l12.9,0.5"/>
				</g>
				<g>
					<path fill="none" stroke="#000000" stroke-width="0.25" d="M626.2,401.9l3.8,0.1"/>
				</g>
				<g>
					<path fill="none" stroke="#000000" stroke-width="0.25" d="M627.5,363.6l-0.9,26 M626.6,389.6l1.9,0 M628.5,389.6l0.3-13.2
						 M628.8,376.4l14,0.4 M642.8,376.7l-0.6,23.5 M642.2,400.2l-14-0.4 M628.2,399.8l0-0.4 M628.3,399.4l-2-0.1 M626.2,399.4l0,0.8
						"/>
				</g>
				<g>
					<path fill="none" stroke="#000000" stroke-width="0.25" d="M642.2,352.8l-0.9,21.9 M641.3,374.7l8,0.2 M649.4,375l-0.1,4.9
						 M649.3,379.8l-4.5-0.1 M644.8,379.7l-0.5,19 M644.2,398.7l20.1,0.7"/>
				</g>
				<g>
					<path fill="none" stroke="#000000" stroke-width="0.25" d="M672.6,298.1l-1.9,43.3 M670.7,341.4l-28.1-1.2 M642.6,340.2l-0.1,2
						 M642.6,342.2l-1.8-0.1 M640.7,342.1l0.1-2 M640.8,340.1l-20.3-0.7 M620.5,339.5l-0.1,1 M620.4,340.5l-1.4-0.1 M619,340.4
						l0.1-2.6 M619.1,337.8l50.2,2 M669.3,339.8l1.8-41.7"/>
				</g>
				<g>
					<path fill="none" stroke="#000000" stroke-width="0.25" d="M493.4,370.3l0.7-14.9 M494,355.4l20.4,0.6 M514.5,356l1.7-43.7
						 M516.2,312.3l7.1,0.3 M523.3,312.6l0.9-19.7"/>
				</g>
				<g>
					<path fill="none" stroke="#000000" stroke-width="0.25" d="M694.1,320.6l1-26.7 M695,293.9L695,293.9"/>
				</g>
				<g>
					<path fill="none" stroke="#000000" stroke-width="0.25" d="M642.2,352.8l-1.9-0.1 M640.3,352.8l-0.4,9.5 M640,362.2l-20.3-0.7
						 M619.7,361.5l-21.3-0.7 M598.4,360.8l0,0.2"/>
				</g>
				<g>
					<path fill="none" stroke="#000000" stroke-width="0.25" d="M630,402.1l-1.7,58.3"/>
				</g>
				<g>
					<path fill="none" stroke="#000000" stroke-width="0.25" d="M628.2,460.4l-9.3-0.3 M618.9,460.1l-0.2,4"/>
				</g>
				<g>
					<path fill="none" stroke="#000000" stroke-width="0.25" d="M524.2,292.8l0-0.5 M524.2,292.4l1.2,0.1 M525.4,292.5l0.2-5.1
						 M525.6,287.3l-5.3-0.2 M520.3,287.1l0,0.3 M520.3,287.4l-0.7,0 M519.6,287.4l-0.1,2 M519.5,289.4l2.1,0.1 M521.7,289.5
						l-0.6,15.6 M521.1,305l-7.1-0.3 M514,304.7l-1.2,31.2 M512.8,336l-10.8,7.5 M502,343.5l-4.9-0.2 M497.1,343.3l2.1-52.9
						 M499.1,290.3l7.4,0.3 M506.5,290.6l0.2-3.7 M506.6,286.9l-0.5,0 M506.2,286.9l0-0.3 M506.2,286.6l-13.5-0.4 M492.6,286.2
						l-4-0.1 M488.7,286.1l0,0.5"/>
				</g>
				<g>
					<path fill="none" stroke="#000000" stroke-width="0.25" d="M493.4,370.3l3.7,0.2 M497,370.5l-0.4,8.9 M496.6,379.4l-3.6-0.2
						 M493,379.2l-3.5,70.4 M489.5,449.5l3.8,0.2 M493.3,449.7l-0.4,10.9 M492.9,460.6l-4.7,0"/>
				</g>
				<g>
					<path fill="none" stroke="#000000" stroke-width="0.25" d="M564.8,462.2l-5.8-0.2 M559.1,462l0.2-5.9 M559.3,456.1l5.8,0.2
						 M565,456.3l-0.2,5.9"/>
				</g>
				<g>
					<path fill="none" stroke="#000000" stroke-width="0.25" d="M488.1,460.5l-2.1,46.4 M486.1,507l12.8,0.6 M498.8,507.6l-0.1,3.2
						 M498.7,510.8l-0.5,0 M498.2,510.8l-0.1,1.4 M498.2,512.2l-12.3-0.4 M485.8,511.8l-0.4,11.2 M485.5,523l-5.7-0.2 M479.8,522.8
						l2.5-61.9"/>
				</g>
				<g>
					<path fill="none" stroke="#000000" stroke-width="0.25" d="M565.3,509.8l-0.1,3.3 M565.2,513.1l-0.5,0 M564.7,513.1l0,1.4
						 M564.6,514.4l-7.4-0.2 M557.3,514.2l0-1.5 M557.3,512.8l-0.5,0 M556.8,512.8l0.1-3.3 M556.9,509.5l8.4,0.3"/>
				</g>
				<g>
					<path fill="none" stroke="#000000" stroke-width="0.25" d="M598.5,504.4l-0.4,11.2 M598.1,515.6l-15.4-0.5 M582.8,515l0.1-1.4
						 M582.8,513.6l-0.5,0 M582.3,513.6l0.1-3.3 M582.4,510.3l6.7,0.2 M589.1,510.5l0.2-3.9 M589.3,506.6l4.2,0.2 M593.5,506.7
						l0.1-3 M593.6,503.7l4,0.1 M597.6,503.8l0,0.5 M597.5,504.3l1,0.1"/>
				</g>
				<g>
					<path fill="none" stroke="#000000" stroke-width="0.25" d="M601.8,464.1L600,464 M600,464l-0.2,5.4 M599.8,469.4l-1,0
						 M598.8,469.3l0,0.5 M598.8,469.8l-4-0.1 M594.8,469.7l0.4-10.7 M595.2,459l6.9,0.3 M602.1,459.3l-0.1,3.3 M602,462.6l-0.1,0
						 M601.9,462.6l-0.1,1.5"/>
				</g>
				<g>
					<path fill="none" stroke="#000000" stroke-width="0.25" d="M626.2,400.2l-29.1-1 M597.1,399.2l-0.9,24.8 M596.3,423.9l0.5,0
						 M596.8,424l0,0.7 M596.7,424.7l1.8,0.1 M598.5,424.7l0-0.7 M598.5,424l15.8,0.6 M614.4,424.6l0.1-1.8 M614.5,422.8l-16.4-0.6
						 M598.1,422.2l0.7-21.2 M598.8,401l27.3,0.9"/>
				</g>
				<g>
					<path fill="none" stroke="#000000" stroke-width="0.25" d="M597.3,459.1l0.8-22.4 M598.1,436.7l-2.1-0.1 M596,436.6l-0.7,22.4"
						/>
				</g>
				<g>
					<path fill="none" stroke="#000000" stroke-width="0.25" d="M482.3,460.9l6.3-174.8"/>
				</g>
			</g>
			<g id="_x33_14_x5F_Windows_1_">
				<g>
					<path fill="none" stroke="#000000" stroke-width="0.25" d="M690.3,462.4l-17.1-0.6"/>
				</g>
				<g>
					<path fill="none" stroke="#000000" stroke-width="0.25" d="M673,464.5l17.1,0.6"/>
				</g>
				<g>
					<path fill="none" stroke="#000000" stroke-width="0.25" d="M651.1,461.5l-16.7-0.6"/>
				</g>
				<g>
					<path fill="none" stroke="#000000" stroke-width="0.25" d="M634.3,463.4l16.7,0.5"/>
				</g>
				<g>
					<path fill="none" stroke="#000000" stroke-width="0.25" d="M556.9,509.5l-58.1-1.9"/>
				</g>
				<g>
					<path fill="none" stroke="#000000" stroke-width="0.25" d="M556.9,511.4l-58.1-1.8"/>
				</g>
				<g>
					<path fill="none" stroke="#000000" stroke-width="0.25" d="M556.8,512.1l-58.1-1.7"/>
				</g>
				<g>
					<path fill="none" stroke="#000000" stroke-width="0.25" d="M556.8,512.8l-58.1-1.7"/>
				</g>
				<g>
					<path fill="none" stroke="#000000" stroke-width="0.25" d="M557.3,514.2l-59.1-2.1"/>
				</g>
				<g>
					<path fill="none" stroke="#000000" stroke-width="0.25" d="M582.4,510.3l-17.1-0.5"/>
				</g>
				<g>
					<path fill="none" stroke="#000000" stroke-width="0.25" d="M582.4,512.2l-17.1-0.5"/>
				</g>
				<g>
					<path fill="none" stroke="#000000" stroke-width="0.25" d="M582.3,512.9l-17.1-0.5"/>
				</g>
				<g>
					<path fill="none" stroke="#000000" stroke-width="0.25" d="M582.3,513.6l-17.1-0.5"/>
				</g>
				<g>
					<path fill="none" stroke="#000000" stroke-width="0.25" d="M582.8,515l-18.1-0.6"/>
				</g>
				<g>
					<path fill="none" stroke="#000000" stroke-width="0.25" d="M599.8,469.4l-1.3,35"/>
				</g>
				<g>
					<path fill="none" stroke="#000000" stroke-width="0.25" d="M594.8,469.7l-1.2,34"/>
				</g>
				<g>
					<path fill="none" stroke="#000000" stroke-width="0.25" d="M597.4,469.8l-1.2,34"/>
				</g>
				<g>
					<path fill="none" stroke="#000000" stroke-width="0.25" d="M598.1,469.8l-1.2,34"/>
				</g>
				<g>
					<path fill="none" stroke="#000000" stroke-width="0.25" d="M598.8,469.9l-1.2,34"/>
				</g>
				<g>
					<path fill="none" stroke="#000000" stroke-width="0.25" d="M574,289.2l54.5,2.1"/>
				</g>
				<g>
					<path fill="none" stroke="#000000" stroke-width="0.25" d="M628.4,293.7l-54.5-2.1"/>
				</g>
				<g>
					<path fill="none" stroke="#000000" stroke-width="0.25" d="M525.6,287.3l35.5,1.4"/>
				</g>
				<g>
					<path fill="none" stroke="#000000" stroke-width="0.25" d="M525.5,289.7l35.5,1.4"/>
				</g>
				<g>
					<path fill="none" stroke="#000000" stroke-width="0.25" d="M641.3,291.9l27.5,1.1"/>
				</g>
				<g>
					<path fill="none" stroke="#000000" stroke-width="0.25" d="M637.4,297.2l33.7,1.3"/>
				</g>
				<g>
					<path fill="none" stroke="#000000" stroke-width="0.25" d="M571,294.6l60.8,2.4"/>
				</g>
				<g>
					<path fill="none" stroke="#000000" stroke-width="0.25" d="M524.2,292.8l41.3,1.6"/>
				</g>
			</g>
			<g id="_x31_-first_PROP_x24_0_x24__x5F_TMD-window_-_extg_12_">
				<g>
					<path fill="none" stroke="#000000" stroke-width="0.25" d="M633.8,465.5l17.8,0.6"/>
				</g>
				<g>
					<path fill="none" stroke="#000000" stroke-width="0.25" d="M672.6,466.9l17.8,0.6"/>
				</g>
				<g>
					<path fill="none" stroke="#000000" stroke-width="0.25" d="M634.1,464.8l-0.3,0"/>
				</g>
			</g>
			<g id="_x31_-first_PROP_x24_0_x24__x5F_TMD-wall_-_extg_11_">
				<g>
					<path fill="none" stroke="#2D2D2D" stroke-width="0.25" d="M672.7,465.9l0.3,0"/>
				</g>
				<g>
					<path fill="none" stroke="#2D2D2D" stroke-width="0.25" d="M690.1,466.4l0.3,0"/>
				</g>
			</g>
			<g id="_x31_-first_PROP_x24_0_x24__x5F_TMD-door_-_extg_9_">
				<g>
					<path fill="none" stroke="#2D2D2D" stroke-width="0.25" d="M649.3,378.4l11,0.3"/>
				</g>
				<g>
					<path fill="none" stroke="#2D2D2D" stroke-width="0.25" d="M674.8,393.2l7.1,0.2 M681.9,393.4L681.9,393.4 M681.9,393.4
						l-0.3-2.2 M681.6,391.1l-0.9-2 M680.7,389.1l-1.5-1.6 M679.1,387.5l-2-1.1 M677.2,386.5l-2.2-0.4 M675,386.1L675,386.1
						 M675,386.1l2.2-0.3 M677.2,385.8l2-0.9 M679.2,384.8l1.6-1.5 M680.8,383.3l1.1-2 M681.9,381.3l0.4-2.2 M682.3,379.1l-7.1-0.2"
						/>
				</g>
				<g>
					<path fill="none" stroke="#2D2D2D" stroke-width="0.25" d="M666,450.9l-3.2,0.4 M662.8,451.3l-2.9,1.4 M659.9,452.6l-2.4,2.2
						 M657.5,454.8l-1.6,2.8 M655.9,457.7l-0.7,3.2 M655.3,460.8l10.5,0.3"/>
				</g>
				<g>
					<path fill="none" stroke="#2D2D2D" stroke-width="0.25" d="M665.4,447.9l0.4-11 M665.8,436.9L665.8,436.9 M665.8,436.9
						l-2.9,0.3 M662.9,437.1l-2.7,1 M660.2,438.2l-2.4,1.7 M657.9,439.8l-1.8,2.2 M656,442.1l-1.2,2.6 M654.8,444.7l-0.5,2.8"/>
				</g>
				<g>
					<path fill="none" stroke="#2D2D2D" stroke-width="0.25" d="M660.4,375.4l-11-0.3"/>
				</g>
			</g>
			<polyline fill="none" stroke="#2D2D2D" stroke-width="0.25" points="1063.9,303.8 740.9,298.9 712,297.2 			"/>
			<polyline fill="none" stroke="#2D2D2D" stroke-width="0.25" points="707.8,435.2 885.7,438.3 890.6,439.1 899.9,472.2 709,529.8 
				708.4,574.3 			"/>
		</g>
	</g>
</g>
<!--
<g id="Desks">
	<g id="Ground_1_">
		<g>
			<polygon fill="none" stroke="#A56752" stroke-width="0.5" points="519.2,397.7 542.1,398.5 542.5,387 519.5,386.2 			"/>
			<polygon fill="none" stroke="#A56752" stroke-width="0.5" points="496.2,397 519.2,397.7 519.5,386.2 496.6,385.5 			"/>
			<polygon fill="none" stroke="#A56752" stroke-width="0.5" points="519.5,386.2 542.5,387 542.8,375.4 519.9,374.7 			"/>
			<polygon fill="none" stroke="#A56752" stroke-width="0.5" points="496.6,385.5 519.5,386.2 519.9,374.7 497,374 			"/>
		</g>
		<g>
			<polygon fill="none" stroke="#A56752" stroke-width="0.5" points="512.9,441.9 535.8,442.6 536.2,431.1 513.3,430.4 			"/>
			<polygon fill="none" stroke="#A56752" stroke-width="0.5" points="490,441.1 512.9,441.9 513.3,430.3 490.3,429.6 			"/>
			<polygon fill="none" stroke="#A56752" stroke-width="0.5" points="513.3,430.4 536.2,431.1 536.6,419.6 513.7,418.8 			"/>
			<polygon fill="none" stroke="#A56752" stroke-width="0.5" points="490.3,429.6 513.3,430.4 513.7,418.8 490.7,418.1 			"/>
			<polygon fill="none" stroke="#A56752" stroke-width="0.5" points="535.8,442.6 558.8,443.4 559.2,431.8 536.2,431.1 			"/>
			<polygon fill="none" stroke="#A56752" stroke-width="0.5" points="536.2,431.1 559.2,431.8 559.5,420.3 536.6,419.6 			"/>
		</g>
		<g>
			<polygon fill="none" stroke="#A56752" stroke-width="0.5" points="511.5,486.1 534.4,486.9 534.8,475.4 511.8,474.6 			"/>
			<polygon fill="none" stroke="#A56752" stroke-width="0.5" points="488.5,485.4 511.5,486.1 511.8,474.6 488.9,473.9 			"/>
			<polygon fill="none" stroke="#A56752" stroke-width="0.5" points="511.8,474.6 534.8,475.4 535.2,463.8 512.2,463.1 			"/>
			<polygon fill="none" stroke="#A56752" stroke-width="0.5" points="488.9,473.9 511.8,474.6 512.2,463.1 489.3,462.4 			"/>
			<polygon fill="none" stroke="#A56752" stroke-width="0.5" points="534.4,486.9 557.3,487.6 557.7,476.1 534.8,475.4 			"/>
			<polygon fill="none" stroke="#A56752" stroke-width="0.5" points="534.8,475.4 557.7,476.1 558.1,464.6 535.2,463.9 			"/>
		</g>
	</g>
</g>-->
</svg>
