<svg xmlns="http://www.w3.org/2000/svg" version="1.2" baseProfile="tiny" x="0" y="0" width="930" height="410" viewBox="0 0 930 410" xml:space="preserve"><g stroke="#333"><rect x="558.3" y="142.1" transform="matrix(-0.3735 -0.9276 0.9276 -0.3735 609.0246 766.0271)" fill="none" stroke-width="0.4" width="9.8" height="70.5"/><line fill="none" stroke-width="0.4" x1="642.2" y1="87.2" x2="307.8" y2="87.2"/><line fill="none" stroke-width="0.4" x1="641.5" y1="87.9" x2="308.4" y2="87.9"/><line fill="none" stroke-width="0.4" x1="633.8" y1="95" x2="629.1" y2="95"/><line fill="none" stroke-width="0.4" x1="639.5" y1="89.9" x2="629.1" y2="89.9"/><line fill="none" stroke-width="0.4" x1="638.3" y1="91" x2="629.1" y2="91"/><line fill="none" stroke-width="0.4" x1="641.5" y1="87.9" x2="640.2" y2="160.1"/><line fill="none" stroke-width="0.4" x1="642.2" y1="87.2" x2="640.9" y2="160.5"/><line fill="none" stroke-width="0.4" x1="643.8" y1="85.6" x2="642.4" y2="161.4"/><line fill="none" stroke-width="0.4" x1="639.5" y1="89.9" x2="638.3" y2="158.5"/><line fill="none" stroke-width="0.4" x1="638.3" y1="91" x2="637.1" y2="157.7"/><line fill="none" stroke-width="0.4" x1="623.1" y1="91" x2="551.3" y2="91"/><line fill="none" stroke-width="0.4" x1="623.1" y1="89.9" x2="551.3" y2="89.9"/><line fill="none" stroke-width="0.4" x1="623.1" y1="95" x2="551.3" y2="95"/><line fill="none" stroke-width="0.4" x1="640.2" y1="160.1" x2="312.3" y2="292"/><line fill="none" stroke-width="0.4" x1="640.9" y1="160.5" x2="311.6" y2="293.1"/><line fill="none" stroke-width="0.4" x1="643.8" y1="85.6" x2="306.5" y2="85.6"/><line fill="none" stroke-width="0.4" x1="642.4" y1="161.4" x2="303.4" y2="297.9"/><line fill="none" stroke-width="0.4" x1="638.3" y1="158.5" x2="628.6" y2="162.4"/><line fill="none" stroke-width="0.4" x1="637.1" y1="157.7" x2="628.6" y2="161.2"/><line fill="none" stroke-width="0.4" x1="622.5" y1="159.2" x2="554.5" y2="186.6"/><line fill="none" stroke-width="0.4" x1="622.5" y1="163.6" x2="556" y2="190.4"/><line fill="none" stroke-width="0.4" x1="622.5" y1="164.9" x2="556.4" y2="191.5"/><line fill="none" stroke-width="0.4" x1="550.4" y1="192.7" x2="483.3" y2="219.6"/><line fill="none" stroke-width="0.4" x1="550.8" y1="193.7" x2="483.8" y2="220.7"/><line fill="none" stroke-width="0.4" x1="548.8" y1="188.8" x2="481.8" y2="215.8"/><line fill="none" stroke-width="0.4" x1="477.7" y1="221.9" x2="410.7" y2="248.9"/><line fill="none" stroke-width="0.4" x1="478.1" y1="223" x2="411.1" y2="250"/><line fill="none" stroke-width="0.4" x1="476.2" y1="218.1" x2="409.2" y2="245"/><line fill="none" stroke-width="0.4" x1="405.1" y1="251.1" x2="338" y2="278.1"/><line fill="none" stroke-width="0.4" x1="405.5" y1="252.2" x2="338.5" y2="279.2"/><line fill="none" stroke-width="0.4" x1="403.5" y1="247.3" x2="336.5" y2="274.3"/><line fill="none" stroke-width="0.4" x1="306.5" y1="85.6" x2="306.6" y2="107.2"/><line fill="none" stroke-width="0.4" x1="261.2" y1="112" x2="309.6" y2="111.8"/><line fill="none" stroke-width="0.4" x1="261.3" y1="108.2" x2="305.7" y2="107.9"/><line fill="none" stroke-width="0.4" x1="261.3" y1="107.5" x2="305.7" y2="107.2"/><line fill="none" stroke-width="0.4" x1="545.2" y1="91" x2="472.9" y2="91"/><line fill="none" stroke-width="0.4" x1="545.2" y1="89.9" x2="472.9" y2="89.9"/><line fill="none" stroke-width="0.4" x1="545.2" y1="95" x2="472.9" y2="95"/><line fill="none" stroke-width="0.4" x1="466.8" y1="91" x2="394.2" y2="91"/><line fill="none" stroke-width="0.4" x1="466.8" y1="89.9" x2="394.2" y2="89.9"/><line fill="none" stroke-width="0.4" x1="466.8" y1="95" x2="394.2" y2="95"/><line fill="none" stroke-width="0.4" x1="388.2" y1="91" x2="316.7" y2="91"/><line fill="none" stroke-width="0.4" x1="388.2" y1="89.9" x2="316.7" y2="89.9"/><line fill="none" stroke-width="0.4" x1="388.2" y1="95" x2="336" y2="95"/><line fill="none" stroke-width="0.4" x1="260.2" y1="163.7" x2="280.9" y2="164.2"/><line fill="none" stroke-width="0.4" x1="260.9" y1="128.8" x2="289.1" y2="129.4"/><line fill="none" stroke-width="0.4" x1="289.1" y1="128.8" x2="289.3" y2="163.4"/><line fill="none" stroke-width="0.4" x1="309.9" y1="163.3" x2="281" y2="163.4"/><line fill="none" stroke-width="0.4" x1="309.7" y1="128.7" x2="289.1" y2="128.8"/><line fill="none" stroke-width="0.4" x1="260.3" y1="158.7" x2="281" y2="159.2"/><line fill="none" stroke-width="0.4" x1="260.4" y1="153.8" x2="281.1" y2="154.2"/><line fill="none" stroke-width="0.4" x1="260.5" y1="148.8" x2="281.2" y2="149.2"/><line fill="none" stroke-width="0.4" x1="260.6" y1="143.8" x2="281.3" y2="144.2"/><line fill="none" stroke-width="0.4" x1="260.7" y1="138.8" x2="281.4" y2="139.2"/><line fill="none" stroke-width="0.4" x1="260.8" y1="133.8" x2="281.6" y2="134.2"/><line fill="none" stroke-width="0.4" x1="309.7" y1="133.6" x2="289.1" y2="133.7"/><line fill="none" stroke-width="0.4" x1="309.7" y1="138.6" x2="289.2" y2="138.7"/><line fill="none" stroke-width="0.4" x1="309.8" y1="143.5" x2="289.2" y2="143.6"/><line fill="none" stroke-width="0.4" x1="309.8" y1="148.5" x2="289.2" y2="148.6"/><line fill="none" stroke-width="0.4" x1="309.8" y1="153.4" x2="289.2" y2="153.5"/><line fill="none" stroke-width="0.4" x1="309.8" y1="158.3" x2="289.3" y2="158.4"/><line fill="none" stroke-width="0.4" x1="267.6" y1="283.2" x2="267.1" y2="306.1"/><line fill="none" stroke-width="0.4" x1="287.7" y1="251.1" x2="287.6" y2="253.6"/><line fill="none" stroke-width="0.4" x1="256.7" y1="283.1" x2="287" y2="283.4"/><line fill="none" stroke-width="0.4" x1="256.7" y1="282.7" x2="286.6" y2="283"/><line fill="none" stroke-width="0.4" x1="287.3" y1="251.5" x2="287.2" y2="253.6"/><line fill="none" stroke-width="0.4" x1="286.9" y1="267.8" x2="257.1" y2="267.2"/><line fill="none" stroke-width="0.4" x1="286.9" y1="267.4" x2="257.1" y2="266.8"/><line fill="none" stroke-width="0.4" x1="287.3" y1="269.9" x2="286.9" y2="269.9"/><line fill="none" stroke-width="0.4" x1="287.1" y1="280.9" x2="286.7" y2="280.9"/><line fill="none" stroke-width="0.4" x1="287.6" y1="253.6" x2="287.2" y2="253.6"/><line fill="none" stroke-width="0.4" x1="287" y1="265.4" x2="286.9" y2="267.4"/><line fill="none" stroke-width="0.4" x1="287.4" y1="265.4" x2="287.3" y2="269.9"/><line fill="none" stroke-width="0.4" x1="286.7" y1="280.9" x2="286.6" y2="283"/><line fill="none" stroke-width="0.4" x1="287.1" y1="280.9" x2="287" y2="283.4"/><line fill="none" stroke-width="0.4" x1="286.9" y1="267.8" x2="286.9" y2="269.9"/><line fill="none" stroke-width="0.4" x1="324.5" y1="237.4" x2="324.5" y2="279.2"/><line fill="none" stroke-width="0.4" x1="294.3" y1="237.1" x2="294.1" y2="251"/><path fill="none" stroke-width="0.4" d="M294.1 251c7.7 0.1 14-6.1 14.1-13.7"/><line fill="none" stroke-width="0.4" x1="286.9" y1="269.9" x2="276.9" y2="269.7"/><path fill="none" stroke-width="0.4" d="M276.9 269.7c-0.1 5.3 4 9.8 9.3 10.2"/><line fill="none" stroke-width="0.4" x1="287.2" y1="253.6" x2="276.6" y2="253.4"/><path fill="none" stroke-width="0.4" d="M276.6 253.4c-0.1 5.7 4.2 10.4 9.9 10.8"/><line fill="none" stroke-width="0.4" x1="261.4" y1="86.9" x2="306.5" y2="86.9"/><line fill="none" stroke-width="0.4" x1="261.4" y1="89.3" x2="306.5" y2="89.3"/><line fill="none" stroke-width="0.4" x1="261.5" y1="95.7" x2="306.5" y2="95.7"/><line fill="none" stroke-width="0.4" x1="281.7" y1="129.2" x2="280.9" y2="164.2"/><line fill="none" stroke-width="0.4" x1="633.8" y1="95" x2="632.7" y2="155.1"/><line fill="none" stroke-width="0.4" x1="632.7" y1="155.1" x2="628.6" y2="156.8"/><line fill="none" stroke-width="0.4" x1="330.9" y1="276.6" x2="315.9" y2="282.7"/><line fill="none" stroke-width="0.4" x1="332" y1="279.4" x2="312.8" y2="287"/><line fill="none" stroke-width="0.4" x1="331.7" y1="278.6" x2="312.8" y2="286.2"/><line fill="none" stroke-width="0.4" x1="331.8" y1="279" x2="312.8" y2="286.6"/><line fill="none" stroke-width="0.4" x1="287.3" y1="251.5" x2="257.4" y2="250.9"/><line fill="none" stroke-width="0.4" x1="287.7" y1="251.1" x2="257.4" y2="250.5"/><line fill="none" stroke-width="0.4" x1="294.6" y1="200.5" x2="294.5" y2="186.4"/><path fill="none" stroke-width="0.4" d="M308.7 200.5c0-7.8-6.4-14.1-14.2-14 0 0 0 0 0 0"/><line fill="none" stroke-width="0.4" x1="329" y1="227.1" x2="315" y2="228.7"/><path fill="none" stroke-width="0.4" d="M327.4 213.1c-7.7 0.9-13.3 7.9-12.4 15.7 0 0 0 0 0 0"/><polygon fill="none" stroke-width="0.4" points="323.5 253.7 323.5 272.5 314.1 272.5 314.1 253.7 "/><polygon fill="none" stroke-width="0.8" stroke-miterlimit="10" points="306.9 107.2 306.6 107.2 305.7 107.2 305.7 107.9 306.3 107.9 306.3 110.7 309.6 110.7 310 200.4 309.2 200.4 309.2 202.8 326.2 202.7 327.4 212.6 330.3 212.3 329.2 202.8 328.8 202.5 328.6 200.4 313 200.6 312.8 161.2 336.3 161.2 336 93.4 316.7 93.5 316.7 87.9 310.6 87.9 308.4 87.9 308.4 104.3 307.8 104.3 307.8 107.2 "/><rect x="388.2" y="87.9" fill="none" stroke-width="0.8" stroke-miterlimit="10" width="6.1" height="7.3"/><rect x="466.8" y="87.9" fill="none" stroke-width="0.8" stroke-miterlimit="10" width="6.1" height="7.3"/><rect x="545.2" y="87.9" fill="none" stroke-width="0.8" stroke-miterlimit="10" width="6.1" height="7.3"/><rect x="623.1" y="87.9" fill="none" stroke-width="0.8" stroke-miterlimit="10" width="6.1" height="7.3"/><polygon fill="none" stroke-width="0.8" stroke-miterlimit="10" points="622.5 156.8 622.5 165.5 628.6 163.1 628.6 156.8 "/><rect x="549.1" y="188" transform="matrix(-0.3734 -0.9277 0.9277 -0.3734 582.2755 775.318)" fill="none" stroke-width="0.8" stroke-miterlimit="10" width="7.7" height="6.1"/><rect x="476.5" y="217.2" transform="matrix(-0.3734 -0.9277 0.9277 -0.3734 455.3329 748.0826)" fill="none" stroke-width="0.8" stroke-miterlimit="10" width="7.7" height="6.1"/><rect x="404.6" y="245.6" transform="matrix(0.928 -0.3727 0.3727 0.928 -63.6125 169.8919)" fill="none" stroke-width="0.8" stroke-miterlimit="10" width="6.1" height="7.7"/><polygon fill="none" stroke-width="0.8" stroke-miterlimit="10" points="329.9 274.1 330.9 276.6 333.7 283.5 339.3 281.2 335.5 271.8 "/><polyline fill="none" stroke-width="0.8" stroke-miterlimit="10" points="261.4 86.9 261.5 100 259.7 185.1 262.2 185.1 262.1 184.4 263.6 184.4 263.6 190.2 271.4 190.2 271.4 189.3 279.1 189.3 279.1 187.2 283.2 187.2 283.2 184.3 284.6 184.3 284.6 185.1 293.1 185.1 293.2 200.5 294.1 200.5 294.1 202.9 293.2 202.9 293 234.7 294.1 234.7 294.1 237.1 257.7 236.6 256.2 310.5 270.1 304.3 273.2 311.8 299.9 301.1 296.9 293.5 309.6 288.4 309.5 286.7 310.1 286.7 310.3 237.3 309 237.3 309 234.9 326.1 235.1 325.3 229.2 329.2 228.7 329.1 227.6 331.6 227.3 332.9 237.6 312.8 237.3 312.8 276.2 315.9 276.2 315.9 281.5 312.8 281.5 312.8 287.1 310.8 287.9 312.3 292 301.8 296.7 304.2 302.6 271.5 315.8 268.5 308.8 "/><polygon fill="none" stroke-width="0.8" stroke-miterlimit="10" points="401.8 165.9 389.8 167.3 390.6 175.5 402.7 174.1 "/><rect x="471.9" y="153.1" transform="matrix(-3.572066e-02 -0.9994 0.9994 -3.572066e-02 335.816 636.36)" fill="none" stroke-width="0.8" stroke-miterlimit="10" width="6.1" height="6.1"/><rect x="547.3" y="138.2" transform="matrix(-3.572066e-02 -0.9994 0.9994 -3.572066e-02 428.8788 696.1973)" fill="none" stroke-width="0.8" stroke-miterlimit="10" width="6.1" height="6.1"/></g></svg>