<?xml-stylesheet href="../styles/svg.css" type="text/css"?>
<svg version="1.2" baseProfile="tiny" id="Layer_1" xmlns="http://www.w3.org/2000/svg" xmlns:xlink="http://www.w3.org/1999/xlink"
	 x="0px" y="0px" width="930px" height="350px" viewBox="140 240 930 350">
	<g class="scale"  stroke-width="0.25px">
		<polygon points="882.7,543.67 882.58,543.791 882.58,546.27 868.72,546.27 868.72,543.791 868.479,543.791 868.479,546.39    868.6,546.51 882.7,546.51 882.82,546.39 882.82,543.911 939.28,543.911 939.28,546.39 939.521,546.39 939.521,543.791    939.4,543.67  "/>
		<path d="M869.7,541.09c0.2-0.5,0.3-0.9,0.3-1.4s-0.1-1-0.3-1.399c-0.3-0.5-0.601-0.7-1.101-0.7s-0.899,0.2-1.1,0.7   c-0.2,0.399-0.3,0.899-0.3,1.399s0.1,0.9,0.3,1.4s0.6,0.7,1.1,0.7S869.4,541.59,869.7,541.09z M867.8,540.69   c-0.1-0.3-0.2-0.6-0.2-1c0-0.399,0.101-0.8,0.2-1.1c0.2-0.4,0.5-0.601,0.8-0.601c0.301,0,0.601,0.2,0.7,0.601   c0.101,0.3,0.2,0.7,0.2,1.1c0,0.4-0.1,0.7-0.2,1c-0.1,0.4-0.399,0.7-0.7,0.7C868.3,541.39,868,541.09,867.8,540.69z"/>
		<polygon points="883.1,541.69 883.1,537.59 882.2,537.59 881.9,538.09 882.6,538.09 882.6,541.69  "/>
		<path d="M939.2,538.89h-0.3l0.3-0.8h1.2v-0.5H938.8l-0.6,2.1h0.1c0.2-0.2,0.4-0.3,0.7-0.3s0.5,0.1,0.7,0.3   c0.2,0.101,0.3,0.4,0.3,0.601c0,0.3-0.1,0.5-0.3,0.699c-0.2,0.2-0.4,0.301-0.7,0.301c-0.2,0-0.3,0-0.5-0.101   c-0.2-0.2-0.3-0.3-0.4-0.5l-0.399,0.4c0.2,0.2,0.3,0.399,0.6,0.5c0.2,0.1,0.4,0.2,0.7,0.2c0.4,0,0.8-0.101,1.1-0.4   c0.301-0.3,0.4-0.6,0.4-1s-0.1-0.8-0.4-1.1C939.9,538.99,939.6,538.89,939.2,538.89z"/>
	</g>
	<g class="northpoint"  stroke-width="0.25px">
		<circle fill="none" cx="956.92" cy="545.58" r="8.159" stroke="#000" />
		<polygon points="957.922,545.241 955.388,537.833 955.321,537.64 953.278,538.339 953.346,538.535 955.879,545.94  "/>
	</g>
</svg>