<svg xmlns="http://www.w3.org/2000/svg" baseProfile="tiny" height="410" version="1.2" viewBox="140 220 930 410" width="930" x="0" y="0"><g stroke="#333;" stroke-width="1"><path fill="none" stroke="#333" stroke-width="0.3" d="M657.9 380l2.8 0M660.7 381.4l0-1.4M1008 511.7l0-0.7M1013.4 498.1l19.7 0M1033.1 498.1l0 9.9M1033.1 508l-19.7 0M1013.4 508l0-9.9M1047.1 407.9l1.4 59.1M1045.6 406.5l-1.2-48.8M1044.2 406.5l-1.2-48.8M994.6 511.7l1.3 0M995 511.7l13 0M943.6 419.2l2 4.3M943 419.5l2 4.3M680.3 359.6l0-0.8M1036.7 496l-1.6 0M1034.8 496.4l-0.2-0.6 0.6-0.2 0.2 0.6L1034.8 496.4zM999.7 543.1l-16.9-32.8M1000.6 541.7l-15.4-30M1036.7 496.2l-1.4 0M982.9 510.3l9.8 0M985.2 511.7l9.5 0M994.6 511.7l0-0.7M1052.4 543.1l-52.6 0M1051 541.7l-50.4 0M1052.4 511.7l0 31.4M1051 511.7l0 30M1050.3 541l0-28.6M1038.6 524.9l0 3.7M1038.2 524.9l0 3.7M1038.2 529.2l0 11.6M1020.6 524l0-11.4M1027.7 529.4l0 5.7M1034.7 529.4l0 11.4M1031.2 529.4l0 11.4M1038.2 512.4l0 11.7M1034.7 524l0-11.4M1024.1 524l0-11.4M1027.7 524l0-11.4M1031.2 524l0-11.4M1050.3 512.4l-12 0M1027.4 541l-1.3 0M1038.1 528.8l-14.2 0M1038.2 540.8l-7 0M1038.2 541l-6.9 0M1050.3 541l-12 0M1038.2 541v-0.2M1037.8 528.9l-13.9 0M1037.8 529.4l-13.7 0M1048.9 541l0-28.6M1048.7 540.8l0-28.2M1039.6 512.4l0 28.6M1039.8 512.6l0 28.2M1038.2 512.6l1.2 0M1039.8 512.6l8.9 0M1038.2 540.8l1.2 0M1039.8 540.8l8.9 0M1038.2 512.6l-30.1 0M1037.8 524.4l-29.6 0M1037.8 524l-29.6 0M1038.1 524.5l-29.9 0M1038.2 512.4l-30.1 0M1010.1 524l0-11.4M1013.6 524l0-11.4M1017.1 524l0-11.4M1044.5 518.1l-34.5 0M1051 524c0-6.8-5.5-12.3-12.3-12.3 0 0 0 0 0 0M1051 529.4c0 6.8-5.5 12.3-12.3 12.3 0 0 0 0 0 0M1008.2 524.5L1008.2 524.5M1008.2 512.6l0-0.2M1008.2 524l0 0.4M1038.6 524.5l1 0M1038.5 524.4l1 0M1039.5 512.6l0 11.8M1039.5 529l0 11.8M1038.6 528.8l1.1 0M1038.5 529l1 0M1047.5 512.4l0-0.7M1046.7 512.4l0-0.7M1041 512.4l0-0.7M1041.7 512.4l0-0.7M1047.4 541l0 0.7M1046.7 541l0 0.7M1041 541l0 0.7M1041.7 541l0 0.7M997.7 511.7c0 6.8 5.5 12.3 12.3 12.3 0 0 0 0 0 0M1044.5 535.1l0-17"/><ellipse fill="#F1E16F" stroke="#333" stroke-width="0.3" cx="1010.1" cy="518.1" rx="0.4" ry="0.4"/><path fill="none" stroke="#333" stroke-width="0.3" d="M1008.2 512.4l-21.8 0M986.3 512.4L1001 541M1001 541l30.3 0M1023.8 528.8l-13.8 0M1038.2 526.3l-28.2 0M1010.1 528.8l0-2.5M1013 524.1l-0.3 0M1013 524.4l-0.3 0M1013 524.4l0-0.3M1012.7 524.4l0-0.3M1016.5 524.1l-0.3 0M1016.5 524.4l-0.3 0M1016.5 524.4l0-0.3M1016.3 524.4l0-0.3M1020.1 524.1l-0.3 0M1020.1 524.4l-0.3 0M1020.1 524.4l0-0.3M1019.8 524.4l0-0.3M1023.6 524.1l-0.3 0M1023.6 524.4l-0.3 0M1023.6 524.4l0-0.3M1023.3 524.4l0-0.3M1027.1 524.1l-0.3 0M1027.1 524.4l-0.3 0M1027.1 524.4l0-0.3M1026.8 524.4v-0.3M1030.6 524.1l-0.3 0M1030.6 524.4l-0.3 0M1030.6 524.4v-0.3M1030.3 524.4l0-0.3M1034.1 524.1l-0.3 0M1034.1 524.4l-0.3 0M1034.1 524.4l0-0.3M1033.9 524.4v-0.3M1037.7 524.1l-0.3 0M1037.7 524.4l-0.3 0M1037.7 524.4l0-0.3M1037.4 524.4v-0.3M1035.5 529l-0.3 0M1035.5 529.3l-0.3 0M1035.5 529.3l0-0.3M1035.3 529.3V529M1032 529l-0.3 0M1032 529.3l-0.3 0M1032 529.3V529M1031.7 529.3l0-0.3M1028.5 529l-0.3 0M1028.5 529.3l-0.3 0M1028.5 529.3V529M1028.2 529.3l0-0.3M1025 529l-0.3 0M1025 529.3l-0.3 0M1025 529.3l0-0.3M1024.7 529.3l0-0.3M1037.8 524c0.5 0 0.8 0.4 0.8 0.8l0 0M1038.2 524.9c0-0.2-0.2-0.4-0.4-0.4l0 0M1037.8 528.9c0.2 0 0.4-0.2 0.4-0.4 0 0 0 0 0 0M1038.6 528.5c0 0.5-0.4 0.8-0.8 0.8M997.7 511.7l10.3 0M1050.9 508.9l-1-40.4M1049.5 508.9l-1-40.4M1049 497.5l-0.7-28.8M1036.7 496.2l0 12.7M1036.7 496.2l0 1.4M1036.7 497.3l0-1.1 0.1 0 0-0.1 0.2 0 0 0.6 0.4 0 0 0.8 -0.6 0v-0.1L1036.7 497.3 1036.7 497.3zM1048.9 497.3l0-1.1 -0.1 0 0-0.1 -0.2 0 0 0.6 -0.4 0 0 0.8 0.6 0v-0.1L1048.9 497.3 1048.9 497.3zM1048.5 496.1l-0.6 0M1048.5 484.8l0 11.3M1047.9 496.1l0-11.3M1047.9 484.8l0.6 0M1037 496c0-6.2 4.8-11.2 10.8-11.3M1036.7 496v0.2M1049 497.5l0.3 0M1035.3 496.2L1035.3 496.2M1035.3 497.6l0 11.2M1031.3 541l-7.5-12.1M1031.2 540.8l-3.5-5.7M1031.2 529.4l-3.5 5.7M1027.7 535.1l16.9 0M650.5 384.9l0 11.3M641.7 424.9L641.7 424.9M648.4 384.9l-28.5 0M623.2 438.5l0.5 1.5M622.9 438.9l0.4 1.2M633.4 435.3l0.5 1.5M633.8 435.5l0.4 1.2M645.3 432.2L645.3 432.2M623.2 438.5L588 449.7M622.9 438.9L588.1 450M623.2 438.5l10.2-3.3M577.4 423.4l-5 5.3M565.3 427.2l7.1 1.4M582.7 440.1l3.5 11M639.1 387.1l0-0.8 0 0 11.3 0 0 0.8L639.1 387.1zM611.8 387.1l-0.1-0.4M603.7 418.5c2.3 7 9.8 10.8 16.8 8.6M620.8 427l-0.3 0.1 -0.1-0.3 -0.4 0.1 -4.5-14 0.7-0.2L620.8 427 620.8 427zM618.2 414.2l1.7-0.6M633.4 435.3l8.3-2.6M633.8 435.5l7.8-2.5M639.5 388.5l0.8 0M640.2 423.7l0 3.7M640.2 427.5l-0.8 0M639.5 427.5l0-3.7M639.5 401.2l0-12.7M640.3 388.5l0 12.7M639.5 423.6l0-11.1M639.5 412.4l0-11.1M640.3 401.2l0 11.1M640.3 412.5l0 11.1M630.3 422.4l11.2 0M630.3 421.7l11.2 0M641.5 422.4l0-0.7M630.3 422.4l0-0.7M630.3 422c0-5.3 4.3-9.6 9.6-9.6 0 0 0 0 0 0M640.2 412.4c-0.2 0.1-0.5 0.1-0.8 0M640.3 412.5c-0.2-0.1-0.5-0.1-0.8 0M640.2 388.5l0-1.4M650.3 426.3l0.3 0M650.4 424.9l0-0.3M650.3 424.9l0.3 0M650.3 426.3l0-1.3M642.9 424.6l7.5 0M641.7 424.9l0 8.5M640.2 424.6l2.6 0M640.2 425.3l1.4 0"/><ellipse fill="none" stroke="#333" stroke-width="0.3" cx="641.4" cy="425.7" rx="0.1" ry="0.1"/><path fill="none" stroke="#333" stroke-width="0.3" d="M650.5 425.1v-0.2M653.1 415.4l0.3 0M653.1 415.3l0.3 0M653.3 405.7l0 9.6M653.3 415.4l0 9.6M653.1 405.6l0 9.8M653.1 415.4l0 9.8M650.5 424.6l2.6 0M650.5 425.1l0-0.5M650.5 406.1l2.6 0M650.5 405.6l0 0.5M653.1 425l0.3 0M653.1 405.7l0.3 0M625 387.1l-13.2 0M639.5 388.5l-27.6 0M611.7 386.7l-0.4 0M625 386.3l-13.8 0M618 413.5l1.7-0.6M619.7 413l0.2 0.6M618 413.5l0.2 0.6M592.9 391.6l16.6-5.3M610.3 385.1l-0.7 0M610.5 385.1l-0.2 0M609.5 385.1l-0.2 0M610.9 385.3l-0.2 0.1M603.8 418.7l-0.1-0.3M603.7 418.4l0.3-0.1M604 418.3l-0.1-0.3M603.9 418l14-4.5M617.9 413.6l0.2 0.6M618.1 414.2l-14.3 4.6M603.9 418l0.1 0.3M603.9 418.3l-0.3 0.1M603.6 418.4l0.1 0.3M603.7 418.8l-6.2 2M597.6 420.7l-0.2-0.6M597.4 420.1l6.5-2.1M565.3 427.2l14.2 2.9M566.4 430.6l14.2 2.9M567.4 434l6-1.9M571 407l4-1.3M585.4 438.3l-10.4-32.6M578.3 429.9L571 407M585 438.5l-10.3-32.2M571.6 407.3l3.2-1M578.8 430l-7.2-22.7M589.9 408.3l7.5 23.5M562.1 417.2l3.2 10.1M566.4 430.6l4.3 13.4M556 400.3l29.2-9.3M582.5 443l0.4-0.1M579.9 433.3l3 9.6M579.4 433.2l3.1 9.8M568.5 437.3l11.1-3.5M580 433.7l0.6-0.2M569.6 440.7l11.1-3.5M581 437l0.6-0.2M562.1 417.2l11.1-3.5M573.6 413.5l0.6-0.2M563.2 420.5l11.1-3.5M574.6 416.9l0.6-0.2M564.2 423.9l11.1-3.5M575.7 420.2l0.6-0.2M565.3 427.2l11.1-3.5M576.8 423.6l0.6-0.2M572.4 428.7l5-1.6M577.8 426.9l0.6-0.2M576.2 412.7l0.6-0.2M577.2 412.4l12.7-4.1M577.2 416l0.6-0.2M578.2 415.7l12.7-4.1M578.3 419.4l0.6-0.2M579.3 419.1l12.7-4.1M579.4 422.8l0.6-0.2M580.4 422.4l12.7-4.1M580.4 426.1l0.6-0.2M581.5 425.8l12.7-4.1M581.5 429.5l0.6-0.2M582.5 429.1l12.7-4.1M582.6 432.8l0.6-0.2M583.6 432.5l12.7-4.1M583.6 436.2l0.6-0.2M584.7 435.9l13.4-4.3M585 438.5l0.4-0.1M582.1 440.4l0.6-0.2M570.6 444l11.1-3.5M581.5 438.5l0.1 0.3 0.6-0.2 -0.1-0.3L581.5 438.5zM577.3 425.1l0.1 0.3 0.6-0.2 -0.1-0.3L577.3 425.1zM575.1 418.4l0.1 0.3 0.6-0.2 -0.1-0.3L575.1 418.4zM573 411.7l0.1 0.3 0.6-0.2 -0.1-0.3L573 411.7zM575.6 410.9l0.1 0.3 0.6-0.2 -0.1-0.3L575.6 410.9zM577.7 417.6l0.1 0.3 0.6-0.2 -0.1-0.3L577.7 417.6zM579.9 424.3l0.1 0.3 0.6-0.2 -0.1-0.3L579.9 424.3zM584.1 437.7l0.1 0.3 0.6-0.2 -0.1-0.3L584.1 437.7zM582 431l0.1 0.3 0.6-0.2 -0.1-0.3L582 431zM577.2 377.9l-24.7 0M568.7 382.1l8.5 0M568.7 382.1l8.5-8.4M561.5 355.6l0 1.8M561.5 355.6l16.5 0M561.8 355.9l16.1 0M561.9 356l16 0M561.9 356.1l16 0M562.1 356.9l15.8 0M561.9 357.1l16 0M561.8 357.1l16.1 0M561.8 355.9l0 1.5M561.8 355.9l-0.4-0.3M561.9 357.3l0 0.1M561.9 356l0 1.1M562.1 356.1l0 0.9M561.5 357.4l0.4 0M561.9 357.4l16.1 0M561.8 357.3L561.8 357.3M545 357.3l8.9 26.1M545.4 357.3l8.9 26.1M545.2 357.3l8.9 26.1M577.3 373.4l-26.3 0M618.1 413.4l-9-28.3M618.1 413.4l0.2-0.1M619.7 412.9l-0.2 0.1M619.7 412.9l-8.8-27.7M617.9 413.2L617.9 413.2M609.6 386.9L609.6 386.9M618 413.5l0.2 0.6M592.8 391.4l0.1 0.2M589.5 392.5l-0.8 0.3 0.1 0.2 0.8-0.3L589.5 392.5zM589.6 392.7l3.3-1.1M592.9 391.7l16.6-5.3M589.7 393l-0.1-0.2M625 387.1l0-0.8M648.4 384.9l0-1.1M637.6 385.6l0 14.1 0.8 0 0-14.1L637.6 385.6zM639 387.1c0.1-0.2 0.1-0.5 0-0.8M639.1 386.3l-14 0M625 386.3l0 0.8M625 387.1l14 0M625 386.7c0 7.2 5.8 13 13 13 0 0 0 0 0 0M589.7 393l-0.1-0.2M593 391.7L593 391.7M592.9 391.6l-3.4 1.1M592.3 392.1l8.5 26.8M609.6 386.6l-0.1-0.2M588.6 449.3l-2.4-7.5M588 448.5l-2.1-6.6M587.4 448.7l-2.6-8.3M585.8 449.7l2.4-0.8M585.6 449.3l2.4-0.8M585.8 449.7l-0.1-0.4M588.2 449l-0.1-0.4M588.3 449.5l0.3-0.1M588.4 449.2l-0.2-0.7M587.4 448.7l0.7-0.2M588.2 449.3l0.1 0.2M588.2 449.3l0.1 0M583.7 440.2l1.5-0.5M583.9 440.6l1.5-0.5M585.2 439.7l0.1 0.4M585.1 439.3l0.3-0.1M585.3 439.4l0.2 0.7M584.8 440.4l0.7-0.2M585.1 439.5l-0.1-0.2M585.1 439.5l0.1 0M588.6 449.3l-0.3 0.1M585.1 439.3l0.3-0.1M585.4 439.1l3.2 10.2M588.3 449.5l-0.1-0.2M588 448.5l-2.6-8.3M582.9 440.9l2.4-0.8M582.8 440.5l2.4-0.8M582.9 440.9l-0.1-0.4M585.3 440.2l-0.1-0.4M584.7 439.5l-2 0.6 0.1 0.3 2-0.6L584.7 439.5zM584.7 439.5l-1.9 1M584.8 439.8l-2.1 0.3M588.3 449.1l9.8-3.1M598.1 446c-1.7-5.4-7.6-8.5-13-6.7 0 0 0 0-0.1 0M617.1 363.1l0-1.1 -0.7 0 0 1.1L617.1 363.1zM617.1 375.5l0-1.1 -0.7 0 0 1.1L617.1 375.5zM616.3 380l0-22.5 -0.7 0 0 22.5L616.3 380zM615.3 380l0-22.5 -0.7 0 0 22.5L615.3 380zM614.4 377.6l0-20.1 -20.8 0 0 20.1L614.4 377.6zM613.9 377l0-19 -19.7 0 0 19C594.1 377 613.9 377 613.9 377zM616.3 362.5l-1.7 0M616.3 374.9l-1.7 0M619.9 362.5l0 12.4"/><ellipse fill="none" stroke="#333" stroke-width="0.3" cx="564.5" cy="381.3" rx="0.3" ry="0.3"/><path fill="none" stroke="#333" stroke-width="0.3" d="M564.4 381.6l0.3-0.5M564.5 381.1l-0.3 0.5M564.6 381l0-1.3M564.6 379.7l-0.3 0M564.4 379.7l0 1.4M564.7 381.1l0.2-0.3M564.9 380.8L564.9 380.8M564.8 380.7l-0.2 0.3M562 374l4.9 0M567 374l0 6.3M562 380.3l0-6.3M567 380.3l-2.3 0M564.4 380.3l-2.3 0M553.9 373.6l5.5-3.2M553.9 382.1l6.3-8.4M553.9 373.6l0 8.4M553.9 382.1l6.3 0M560.3 373.6l0 8.4M560.3 373.6c0-1.1-0.3-2.2-0.8-3.2M568.7 373.4l0 8.7M554.2 382.9l23 0M554.3 383.1l23 0M588.3 448.1l13.7-4.4M604.6 442.9l37-11.8M605.8 446.6l-5.1-15.9M603.1 447.5l-5.1-15.9M577.5 373.4l0 10M578.3 365.4l-0.6 0M578.3 358.6l0 6.8M579.1 358.4l0 14.1M578 355.3l0 2.5M579.1 355.3l0 2.5M578.9 355.3l0 2.5M578.1 355.3l0 2.5M578.9 357.6l-0.8 0M578.1 355.5l0.8 0M577.9 355.6l0 0.3M577.9 356l0 0.2M577.9 356.9l0 0.2M577.9 357.2l0 0.3M577.3 365.4l0-7.9 0.4 0 0 0.3 -0.1 0 0 0.8 0.1 0 0 6.8L577.3 365.4 577.3 365.4zM577.6 358.4l0-0.5 1.5 0 0 0.5L577.6 358.4zM577.6 372.9l0-0.5 1.5 0 0 0.5L577.6 372.9zM569.4 357.5l7.9 0M569.4 373.3l7.9 0M578.3 358.6l-0.6 0M569.4 357.5c0 4.3 3.5 7.9 7.9 7.9 0 0 0 0 0 0M569.4 373.3l7.9 0M569.4 373.3c0-4.3 3.5-7.9 7.9-7.9M578.3 372.2l0-6.8M577.3 365.4l0 7.9 0.4 0 0-0.3 -0.1 0 0-0.8 0.1 0 0-6.8L577.3 365.4 577.3 365.4zM578.3 365.4l-0.6 0M578.3 372.2l-0.6 0M579.1 357.9l-1.1 0M578 383.5l0-10.5M578.9 383.5l0-10.5M578.1 383.5l0-10.5M579.1 383.5l-0.2 0M578.1 383.5l-0.2 0M577.5 383.5l-0.3 0M577.3 373.4l0 10M579.1 383.5l0-10.5M578 373l1.1 0M577.3 373.4l0.3 0M648.5 253.6l0-17M716.8 253.6l0-17M775.2 253.6l0-17M780.1 253.6l0-17M965.3 253.7l0-17M970.2 253.7l0-17M838.5 253.6l0-17M906.8 253.6l0-17M711.8 253.6l0-17M653.4 253.6l0-17M585.1 253.6l0-17M590.7 253.6l0 0.4 -6.3 0 0-0.4L590.7 253.6zM780.8 262l57 0M717.5 262l57 0M654.1 261.9l57 0M590.7 261.9l57 0M901.9 262l62.7 0M537.9 261.9l46.5 0M538.7 253.5l44 0M906.8 357.5l63.4 0M908.1 359l62.1 0M970.4 377.3l0 39.5M970.2 357.6l0 1.4M889 354.6l-47 15M1052.9 441.3l0.7 27.1M1050.6 433.6l2.1-0.1M1052.9 441.3l-2.1 0.1M1050.8 441.4l-0.2-7.8M842 369.5l-86 27.4M953.3 386.6l14.1 0 0-8.4 -14.1 0L953.3 386.6zM923.4 386.7l14.1 0 0-8.4 -14.1 0L923.4 386.7zM1049.1 432.2l2.1-0.1M1029.8 263.2l0.3 0 0 26.2 -0.3 0L1029.8 263.2zM1033.9 332.9l0 21.8M970.9 262l57 0M906.7 360.6l1.8-0.9M904.7 358.2l1.3 2.5M1030.7 288.4l0 2.4M1035 272l7 0 0 14.1 -7 0L1035 272zM905.2 357.5l1.5 3M914.1 370.7l9.2 17.8M908.5 359.7l-1.1-2.1M914.1 370.7l-1.8 0.9M912.4 371.6l25.8 50.2M911.9 372.1l25.5 49.7M537.8 253.6l0 0.2 -2.2 0 0-0.2L537.8 253.6zM1037 253.7l0 2.7M1036.8 254l-8.8 0M1027.9 254v-0.3M1027.9 253.7l9 0M1036.8 254l0 2.4M1037 256.4l-0.2 0M648.4 359.6l0 20.4M1037 261.2l2.8 0 0-7.4 -2.8 0L1037 261.2zM898.6 359.3l42.2 82.2M648.4 380l4.9 0M539.1 341.1l17.7 51.7M943.8 432.8l-5.6-11M1050.6 407.9l-38.2 0M1051.5 442.8l-2.1 0.1M1051.5 442.8l0.6 24.3M938.3 386.7l14.1 0 0-8.4 -14.1 0L938.3 386.7zM924 389.9l15.9 30.9M970.4 416.7l-1.6 0M716.7 357.5l0 11.4M765.8 368.3l0 0.6 9.4 0 0-0.6L765.8 368.3zM756.3 368.3l0 0.6 9.4 0 0-0.6L756.3 368.3zM757.1 368.9l0 1.4 -0.5 0 0-1.4L757.1 368.9zM757.2 368.9l0 0.6 8.5 0 0-0.6L757.2 368.9zM774.9 368.9l0 1.4 -0.5 0 0-1.4L774.9 368.9zM765.8 368.9l0 0.6 8.5 0 0-0.6L765.8 368.9zM1054.3 232.9l-525.5-0.1 0 23.4 -4.9 0 -0.2 57.4 26 75.8 -4.3 1.5 24.4 71.2 48.3-15.3 3.5 10.9 34.1-10.9 -3.5-10.9 77.5-24.7 3.5 10.9 34.5-11 -3.5-10.9 122-38.9 43.8 85.2 20-10.3 35.2 68.6 -7.1 3.7 20.9 40.8 60.6 0 -7.2-293.1 2.4 0L1054.3 232.9 1054.3 232.9zM888.3 356.3l-129.8 41.3M939.9 420.9l-1.8 0.9M734.5 405.3l-0.4-1.3 -0.7 0.2 0 0 -80 25.5 0 1.5 79.1-25.2 0 0L734.5 405.3 734.5 405.3zM912.2 372l25.5 49.7M732.1 406l1.7-0.6M1036.8 254.1l-0.2-0.6 0.6-0.2 0.2 0.6L1036.8 254.1zM1041.2 253.7l0 2.7M1041.4 254l3.5 0M1045 253.7l-3.8 0M1041.4 254l0 2.4M1041.2 256.4l0.2 0M1041 254.1l-0.2-0.6 0.6-0.2 0.2 0.6L1041 254.1zM1045 253.7l0 0.3M733.5 404.1l0.6-0.2M734.5 405.3l-0.4-1.3M759.1 398.2l-0.2-0.7M732.3 406.7l-0.2-0.7M1012.4 467l0 1.4M990.1 454.2l-1.8 0M990.1 420.8l-1.8 0M957.2 359.6l11.4 0 0 0.6 -11.4 0L957.2 359.6 957.2 359.6zM962.9 376.6l5.7 0 0-0.6 -5.7 0L962.9 376.6 962.9 376.6zM756.6 368.9l-39.9 0M838.5 368.9l-58.4 0M780.1 368.9l-5.2 0M888.3 356.3l3.9 7.5M889 354.6l3.5 6.8M1011.9 466.8l-11.9 0M1011.9 467.4l-12.2 0M1002.5 479.1c5.4-1.2 9.3-6.1 9.3-11.6M590.7 334.5l-6.3 0 0 0.8 6.3 0L590.7 334.5 590.7 334.5zM590 253.6l0-17M1027.9 253.7l0-17M943.8 432.8l8.5-4.3M952.3 428.4l42.4 82.5M992.7 510.3l-41-79.9M951.7 430.3l-7.2 3.7M944.5 434l-0.6-1.3M943.8 432.8L943.8 432.8M1025.8 466l0-0.4 -0.3 0 0-0.4 -12.5 0 0 0.8C1013 466 1025.8 466 1025.8 466zM1000.4 467.6l1.9 11.4 -0.6 0.1 -2-11.8 0.3-0.1 0.1 0.3L1000.4 467.6 1000.4 467.6zM999.7 467.1l0.3 0M1000 466.8l0 0.3M999.7 467.1l0 0.3M1000 467.1l-0.3 0M999.6 467.4l0-0.3M1000 467.1l0-0.3M904.4 357.5l-12.2 6.3M904.7 358.2l-12.4 6.4M904.8 357.5l1.4 2.7M901.9 356.6l0 2.2M948.4 416.7l9.1 0M1013.2 452.3l0-29.7M1013 421.9l0 31.3M1012.3 453.5l0-31.9M1012.3 453.5l0.4 0 0-0.3 0.3 0M1013.2 452.3l1.4 0M1014.9 422.4l0 13.7M1014.6 436.1l11.5 0M1027.4 436.8l21.9 0M1027.4 438.2l21.9 0M1048.8 438.2l0 28.9M1049.1 407.9l0 24.3M1049.1 438.2l0 28.9M1049.4 442.8l-0.3-10.6M1012.6 466.9l36.1 0M1014.6 438.2l12.8 0M1014.6 436.8l12.8 0M1013.2 422.7l1.4 0M1048.8 408.1l-35.9 0M843.5 352.6l58.4 0M1029.8 289.4l-10.6 0M999.4 253.7l0-17M843.5 253.7l0-17M901.9 253.6l0-17.1M653.5 380l4.3 0 0 1.4 -4.3 0L653.5 380zM970.2 377.3l0 39.2M970.2 416.5l-1.4 0M968.8 389.9l0 26.6M968.8 377.3l0 11.3M923.3 388.5l45.5 0M924 389.9l44.7 0M970.2 377.3l-1.4 0M948.4 416.5l9.1 0M948.4 416.5l-8.5 4.4M989.9 454.4l-1.4 0M989.9 420.6l-1.4 0M1012.4 468.5l41.2 0M1049.8 407.9l0 24.3M1049.8 442.8l0 24.2M1049.8 431.1l-0.7 0M1049.8 430.4l-0.7 0M1049.8 425.5l-0.7 0M1049.8 424.8l-0.7 0M1049.8 419.8l-0.7 0M1049.8 419.1l-0.7 0M1049.8 414.2l-0.7 0M1049.8 413.5l-0.7 0M1049.8 408.6l-0.7 0M1049.8 407.9l-0.7 0M1049.8 466.4l-0.7 0M1049.8 443.9l-0.7 0M1049.8 444.6l-0.7 0M1049.8 449.5l-0.7 0M1049.8 450.2l-0.7 0M1049.8 455.1l-0.7 0M1049.8 455.8l-0.7 0M1049.8 460.8l-0.7 0M1049.8 461.5l-0.7 0M716.3 357.7l0 11.7M714.9 357.7l0 13.1M756.6 369.4l-40.3 0M756.6 370.8l-41.7 0M756.6 369.4l0 1.4M838.7 369.4l-63.8 0M838 370.8l-63.1 0M774.9 369.4l0 1.4M716.5 357.5l0 11.6M756.6 369.1l-40.1 0M780.1 369.1l-5.2 0M843.7 353.1l58 0M843.7 354.5l58 0M843.7 354.5l0-1.4M901.7 354.5l0-1.4M843.5 352.8l58.4 0M906.8 357l58.4 0M906.8 357.2l58.4 0M901.3 352.2l6.1 0M907.4 357l0-4.9M964.7 352.1l6.1 0M964.7 357.1l0-5M970.7 352.6l0-0.6M988.5 330.5l56.7 0M988.3 330.2l56.5 0M1030.7 290.8l13.5 0M1048.8 436.8l0-28.9M994.6 511l12.2 23.7M1027.9 262.1l0-7.5M1027.9 254.6l0.2 0M1028.1 261.9l0-7.3M648.4 359.6l11 0M660.8 358.2l-1.3 0M660.8 357.6l0 0.6M659.4 357.6l1.3 0M660.6 357.5l0 0.1M680.3 358.8l-20.9 0M680.3 359.6l-20.9 0M660 358.3c0.2-0.1 0.5-0.1 0.8 0M659.4 359.6l0-2.1M660.4 358.3c-0.5 0-0.9 0.4-0.9 0.9l0 0M659.5 359.6c-0.1-0.2-0.1-0.5 0-0.8M659.5 358.2L659.5 358.2M659.5 358.2L659.5 358.2M648.7 359.3l10.7 0M648.7 359.2l10.6 0M648.4 359.6l0-2M648.7 357.6l-0.3 0M648.7 359.3l0-1.9M648.9 359.2l0-1.7M648.7 359.3l-0.3 0.3M659.3 359.3l0-1.9M648.4 377.9l11 0M648.7 378.1l10.7 0M648.7 378.3l10.6 0M648.4 377.9l0 2M648.7 378.1l0 1.9M648.8 378.3l0 1.7M648.7 378.1l-0.3-0.3M648.7 379.9l-0.3 0M660.7 379.9l0-0.6M659.4 379.9l1.3 0M660.6 380l0-0.1M659.4 377.9l0 2.1M659.2 378.1l0 1.9M660.7 379.2l-1.3 0M659.5 379.3L659.5 379.3M659.5 379.2L659.5 379.2M1050.7 409.3l0.6 22.9M1052 406.5l0.7 27M1048.4 406.5l-1.2-48.8M1047 406.5l-1.2-48.8M1052 406.5l-3.6 0M1047 406.5l-34.6 0M1047.2 354.6l-2.3-95.2M1045.8 354.6l-0.6-22.7M1044.8 330.3l-1-39.6M844.2 262l42.6 0M1045.8 357.7l1.4 0M1047.2 354.6l-1.4 0M1043.4 259.4l1.7 71.1M1044.8 256.9l-0.2-0.6 0.6-0.2 0.2 0.6L1044.8 256.9zM1048.6 441.8l0 25M1048.7 441.8l0 25M1048.6 433.2l0-25M1048.7 433.2l0-25M901.9 358.8l-9.9 5.1M904.1 357.5l-2.2 0M904.7 357.8l-12.6 6.5M892 363.9l0.3 0.6M1043.6 419.2l3.4 0M1043.6 412.9l3.4 0M1043.6 412.9l0 6.3M1047 412.9l0 2.8M1047 415.9L1047 415.9M1047 416.2l0 3"/><ellipse fill="none" stroke="#333" stroke-width="0.3" cx="1047.4" cy="416.1" rx="0.3" ry="0.3"/><path fill="none" stroke="#333" stroke-width="0.3" d="M1047.7 416.1l-0.5-0.3M1047.2 416l0.5 0.3M1047.1 416l-1.3 0M1045.8 416v0.3M1045.8 416.2l1.4 0M1047.2 415.9l-0.3-0.2M1046.9 415.7L1046.9 415.7M1046.8 415.8l0.3 0.2M1046 433.5l0-25.6M1042.4 433.1l0-24.8M1046 441.5l0 25.6M1042.4 441.8l0 24.8M1042.4 408.3l6.2 0M1042.4 466.7l6.2 0M1043.6 455.6l3.4 0M1043.6 462l3.4 0M1043.6 462l0-6.3M1046.9 462l0-2.8M1046.9 459L1046.9 459M1046.9 458.7l0-3"/><ellipse fill="none" stroke="#333" stroke-width="0.3" cx="1047.4" cy="458.8" rx="0.3" ry="0.3"/><path fill="none" stroke="#333" stroke-width="0.3" d="M1047.7 458.7l-0.5 0.3M1047.2 458.8l0.5-0.3M1047.1 458.9l-1.3 0M1045.8 458.9l0-0.3M1045.8 458.7l1.4 0M1047.2 459l-0.3 0.2M1046.9 459.2L1046.9 459.2M1046.8 459.1l0.3-0.2M1029.5 438.4l0 3.1M1039.6 441.7l-7.7 7.7M1032 449.3c-2-2-3.2-4.8-3.2-7.7M1029.2 441.3l-1.7 0M1036.2 442.2l-4.7 0M1031.1 443.1l0-0.1 0-0.1 0-0.1 0-0.1 0-0.1 0-0.1 0 0 0 0 0 0 0 0M1036.7 443.1l0-0.1 0-0.1 0-0.1 0-0.1 0-0.1 0-0.1 0 0 0 0 0 0 0 0M1039.5 438.4l-10 0M1039.7 441.8l0-0.3M1039.6 441.8l0-0.3M1028.8 441.7v0.1M1029.1 441.5l-0.3 0.1M1029.2 441.3l0 0.2M1039.6 441.5l-10.6 0M1048.6 441.8l-8.9 0M1039.6 441.8l-10.8 0M1037.3 440.6l-7.2 0M1028.8 441.3l-0.4 0M1029.5 441.5l-2 0M1039.7 441.5l-0.2 0M1039.5 441.5l0-3.1M1031.4 441.8l-0.1 0.3 -0.1 0.3 -0.1 0.3 0 0 0 0.3 0 0.3 0 0.3 0 0 0 0.4 0 0.4 0 0.4 0 0 0.1 0.5 0.1 0.5 0.1 0.5 0 0 0.1 0.4 0.2 0.4 0.2 0.4 0.3 0.4 0.3 0.3 0 0 0.1 0.1 0.1 0.1 0.1 0.1 0.1 0.1 0.1 0.1 0.1 0 0.2 0 0.2 0 0.2 0 0.2 0 0.2 0 0.1 0 0.1 0 0.1-0.1 0.1-0.1 0.1-0.1 0.1-0.1 0.1-0.1 0 0 0.3-0.3 0.3-0.4 0.2-0.4 0.2-0.4 0.1-0.4 0 0 0.1-0.5 0.1-0.5 0.1-0.5 0 0 0-0.4 0-0.4 0-0.4 0 0 0-0.3 0-0.3 0-0.3 0 0 -0.1-0.3 -0.1-0.3 -0.1-0.3M1037.3 440.6l0-2.1M1030.1 440.5l0-2.1M1039.5 441.5l-10 0M1027.5 438.3l21.1 0M1042.4 441.8l0-1.4M1046.7 441.8l0-1.4M1046.7 440.4l-4.3 0M1039.7 441.5l8.9 0M1048.6 438.3l0 3.5M1029.5 436.5l0-3.1M1039.7 433.3l-7.7-7.7M1032 425.6c-2 2-3.2 4.8-3.2 7.7M1029.2 433.7l-1.7 0M1036.2 432.7l-4.7 0M1031.1 431.8l0 0.1 0 0.1 0 0.1 0 0.1 0 0.1 0 0.1 0 0 0 0 0 0 0 0M1036.7 431.8l0 0.1 0 0.1 0 0.1 0 0.1 0 0.1 0 0.1 0 0 0 0 0 0 0 0M1039.5 436.5l-10 0M1039.7 433.1l0 0.3M1039.7 433.1v0.3M1028.8 433.3l0-0.1M1029.1 433.4l-0.3-0.1M1029.2 433.7l0-0.2M1039.7 433.4l-10.6 0M1048.7 433.2l-9 0M1039.7 433.1l-10.8 0M1037.3 434.4l-7.2 0M1028.8 433.7l-0.4 0M1029.5 433.5l-0.3 0M1039.7 433.5l-0.2 0M1039.5 433.5l0 3.1M1031.4 433.1l-0.1-0.3 -0.1-0.3 -0.1-0.3 0 0 0-0.3 0-0.3 0-0.3 0 0 0-0.4 0-0.4 0-0.4 0 0 0.1-0.5 0.1-0.5 0.1-0.5 0 0 0.1-0.4 0.2-0.4 0.2-0.4 0.3-0.4 0.3-0.3 0 0 0.1-0.1 0.1-0.1 0.1-0.1 0.1-0.1 0.1-0.1 0.1 0 0.2 0 0.2 0 0.2 0 0.2 0 0.2 0 0.2 0 0.1 0 0.1 0.1 0.1 0.1 0.1 0.1 0.1 0.1 0.1 0.1 0 0 0.3 0.3 0.3 0.4 0.2 0.4 0.2 0.4 0.1 0.4 0 0 0.1 0.5 0.1 0.5 0.1 0.5 0 0 0 0.4 0 0.4 0 0.4 0 0 0 0.3 0 0.3 0 0.3 0 0 -0.1 0.3 -0.1 0.3 -0.1 0.3M1037.3 434.4l0 2.1M1030.1 434.4l0 2.1M1039.5 433.5l-12 0M1027.5 436.7l21.1 0M1042.4 433.1l0 1.4M1046.7 433.1l0 1.4M1046.7 434.6l-4.3 0M1039.7 433.5l8.9 0M1048.7 436.7l0-3.5M1046.7 433.1l0-25.2M1046.7 441.8l0 24.8"/><ellipse fill="none" stroke="#333" stroke-width="0.3" cx="1020.3" cy="433.2" rx="0.7" ry="0.7"/><path fill="none" stroke="#333" stroke-width="0.3" d="M538.7 253.5l-0.7 0 0 0.8 0.7 0 0-0.4 -0.2 0 0-0.3L538.7 253.5 538.7 253.5M565.9 253.5L565.9 253.5l0.2 0.1 0 0.3 -0.2 0 0 0.3 1.2 0 0-0.1 -0.3 0 0-0.7L565.9 253.5M582.7 253.6L582.7 253.6l0.2 0.1 0 0.3 -0.2 0 0 0.3 0.7 0 0-0.1 0.3 0 0-0.7L582.7 253.6M583.8 253.6l0 0.7 -0.3 0v0.1l0.7 0 0-0.8L583.8 253.6M583.8 253.6l0-16.9M583.8 236.7c-9.3 0-16.9 7.6-16.9 16.9 0 0 0 0 0 0M538.7 254.3l44 0M566.9 253.5l0 0.7 0.3 0v0.1l0.7 0 0-0.4 -0.2 0 0-0.3 0.2 0v-0.1L566.9 253.5M582.9 253.6l-15.3 0M582.9 253.7l-15.3 0M582.9 253.9l-15.3 0M582.9 254l-15.3 0M591.4 253.6l0-16.9M591.4 236.7c9.3 0 16.9 7.6 16.9 16.9 0 0 0 0 0 0M646.9 253.6l-54.5 0M646.9 254.3l-54.5 0M592.2 253.7l15.3 0M592.2 253.7l15.3 0M592.2 253.9l15.3 0M592.2 254l15.3 0M592.4 253.6L592.4 253.6l-0.2 0.1 0 0.3 0.2 0 0 0.3 -0.7 0 0-0.1 -0.3 0 0-0.7L592.4 253.6M591.3 253.6l0 0.7 0.3 0 0 0.1 -0.7 0 0-0.8L591.3 253.6M609.2 253.6L609.2 253.6l-0.2 0.1 0 0.3 0.2 0 0 0.3 -1.2 0v-0.1l0.3 0 0-0.7L609.2 253.6M608.3 253.6l0 0.7 -0.3 0 0 0.1 -0.7 0 0-0.4 0.2 0 0-0.3 -0.2 0v-0.1L608.3 253.6M629.5 253.7l-20.5 0M629.5 254l-20.5 0M629.5 253.7l-20.5 0M629.5 253.9l-20.5 0M630.3 253.6L630.3 253.6l-0.2 0.1 0 0.3 0.2 0 0 0.3 -1 0 0-0.3 0.2 0 0-0.3 -0.2 0v-0.1L630.3 253.6M630.1 254l17 0M630.1 253.9l17 0M647.1 253.7l-17 0M647.1 253.7l-17 0M654.1 253.6l0 0.4 -6.3 0 0-0.4L654.1 253.6zM646.9 253.6l0.7 0 0 0.8 -0.7 0 0-0.4 0.2 0 0-0.3L646.9 253.6 646.9 253.6M710.5 253.6l0-16.9M710.5 236.7c-9.3 0-16.9 7.6-16.9 16.9 0 0 0 0 0 0M655 253.6l54.5 0M655 254.3l54.5 0M709.7 253.7l-15.3 0M709.7 253.7l-15.3 0M709.7 254l-15.3 0M709.7 254l-15.3 0M709.5 253.6L709.5 253.6l0.2 0.1 0 0.3 -0.2 0 0 0.3 0.7 0v-0.1l0.3 0 0-0.7L709.5 253.6M710.6 253.6l0 0.7 -0.3 0 0 0.1 0.7 0 0-0.8L710.6 253.6M692.7 253.6L692.7 253.6l0.2 0.1 0 0.3 -0.2 0 0 0.3 1.2 0v-0.1l-0.3 0 0-0.7L692.7 253.6M693.6 253.6l0 0.7 0.3 0 0 0.1 0.7 0 0-0.4 -0.2 0 0-0.3 0.2 0v-0.1L693.6 253.6M672.3 253.7l20.5 0M672.3 254l20.5 0M672.3 253.7l20.5 0M672.3 253.9l20.5 0M671.5 253.6L671.5 253.6l0.2 0.1 0 0.3 -0.2 0 0 0.3 1 0 0-0.3 -0.2 0 0-0.3 0.2 0v-0.1L671.5 253.6M671.7 254l-17 0M671.7 253.9l-17 0M654.8 253.7l17 0M654.8 253.7l17 0M655 253.6l-0.7 0 0 0.8 0.7 0 0-0.4 -0.2 0 0-0.3L655 253.6 655 253.6M717.5 253.6l0 0.4 -6.3 0 0-0.4L717.5 253.6zM837.2 253.6l0-16.9M837.2 236.7c-9.3 0-16.9 7.6-16.9 16.9 0 0 0 0 0 0M781.7 253.6l54.5 0M781.7 254.4l54.5 0M836.4 253.7l-15.3 0M836.4 253.8l-15.3 0M836.4 254l-15.3 0M836.4 254l-15.3 0M836.2 253.6L836.2 253.6l0.2 0.1 0 0.3 -0.2 0 0 0.3 0.7 0v-0.1l0.3 0 0-0.7L836.2 253.6M837.3 253.6l0 0.7 -0.3 0v0.1l0.7 0 0-0.8L837.3 253.6M819.4 253.6L819.4 253.6l0.2 0.1 0 0.3 -0.2 0 0 0.3 1.2 0 0-0.1 -0.3 0 0-0.7L819.4 253.6M820.3 253.6l0 0.7 0.3 0v0.1l0.7 0 0-0.4 -0.2 0 0-0.3 0.2 0v-0.1L820.3 253.6M799.1 253.7l20.5 0M799.1 254l20.5 0M799.1 253.8l20.5 0M799.1 254l20.5 0M798.3 253.6L798.3 253.6l0.2 0.1 0 0.3 -0.2 0 0 0.3 1 0 0-0.3 -0.2 0 0-0.3 0.2 0v-0.1L798.3 253.6M798.5 254l-17 0M798.5 254l-17 0M781.5 253.7l17 0M781.5 253.8l17 0M774.5 253.6l0 0.4 6.3 0 0-0.4L774.5 253.6zM781.7 253.6l-0.7 0 0 0.8 0.7 0 0-0.4 -0.2 0 0-0.3L781.7 253.6 781.7 253.6M718.1 253.6l0-16.9M718.1 236.7c9.3 0 16.9 7.6 16.9 16.9 0 0 0 0 0 0M773.6 253.6l-54.5 0M773.6 254.4l-54.5 0M718.9 253.7l15.3 0M718.9 253.7l15.3 0M718.9 254l15.3 0M718.9 254l15.3 0M719.1 253.6L719.1 253.6l-0.2 0.1 0 0.3 0.2 0 0 0.3 -0.7 0v-0.1l-0.3 0 0-0.7L719.1 253.6M718 253.6l0 0.7 0.3 0v0.1l-0.7 0 0-0.8L718 253.6M735.9 253.6L735.9 253.6l-0.2 0.1 0 0.3 0.2 0 0 0.3 -1.2 0 0-0.1 0.3 0 0-0.7L735.9 253.6M735 253.6l0 0.7 -0.3 0v0.1l-0.7 0 0-0.4 0.2 0 0-0.3 -0.2 0 0-0.1L735 253.6M756.2 253.7l-20.5 0M756.2 254l-20.5 0M756.2 253.8l-20.5 0M756.2 254l-20.5 0M757 253.6L757 253.6l-0.2 0.1 0 0.3 0.2 0 0 0.3 -1 0 0-0.3 0.2 0 0-0.3 -0.2 0v-0.1L757 253.6M756.8 254l17 0M756.8 254l17 0M773.8 253.7l-17 0M773.8 253.8l-17 0M773.6 253.6l0.7 0 0 0.8 -0.7 0 0-0.4 0.2 0 0-0.3L773.6 253.6 773.6 253.6M964.6 253.7l-118.7 0M900.3 254.4l-54.5 0M845.6 253.7l15.3 0M845.6 253.8l15.3 0M845.6 254l15.3 0M845.6 254l15.3 0M862.6 253.6L862.6 253.6l-0.2 0.1 0 0.3 0.2 0 0 0.3 -1.2 0v-0.1l0.3 0 0-0.7L862.6 253.6M861.7 253.6l0 0.7 -0.3 0 0 0.1 -0.7 0 0-0.4 0.2 0 0-0.3 -0.2 0 0-0.1L861.7 253.6M844.8 236.7c9.3 0 16.9 7.6 16.9 16.9 0 0 0 0 0 0M845.8 253.6L845.8 253.6l-0.2 0.1 0 0.3 0.2 0 0 0.3 -0.7 0 0-0.1 -0.3 0 0-0.7L845.8 253.6M844.8 253.6l0-16.9M844.7 253.6l0 0.7 0.3 0v0.1l-0.7 0 0-0.8L844.7 253.6M887.1 253.7l-24.6 0M887.1 254.1l-24.6 0M887.1 253.8l-24.6 0M887.1 254l-24.6 0M837.8 253.6l0 0.4 6.3 0 0-0.4L837.8 253.6zM900.3 254.1l-12.8 0M914.2 254.1l-6.1 0M971.5 253.7l0-16.9M971.5 236.8c9.3 0 16.9 7.6 16.9 16.9 0 0 0 0 0 0M1027 253.7l-54.5 0M1027 254.4l-54.5 0M972.4 253.8l15.3 0M972.4 253.8l15.3 0M972.4 254l15.3 0M972.4 254.1l15.3 0M988.4 253.7l0 0.7 -0.3 0 0 0.1 -0.7 0 0-0.4 0.2 0 0-0.3 -0.2 0 0-0.1L988.4 253.7M989.4 253.7L989.4 253.7l-0.2 0.1 0 0.3 0.2 0 0 0.3 -1.2 0v-0.1l0.3 0 0-0.7L989.4 253.7M1009.7 253.8l-20.5 0M1009.7 254.1l-20.5 0M1009.7 253.8l-20.5 0M1009.7 254l-20.5 0M972.6 253.7L972.6 253.7l-0.2 0.1 0 0.3 0.2 0 0 0.3 -0.7 0v-0.1l-0.3 0 0-0.7L972.6 253.7M971.5 253.7l0 0.7 0.3 0 0 0.1 -0.7 0 0-0.8L971.5 253.7M962.9 253.7L962.9 253.7l0.2 0.1 0 0.3 -0.2 0 0 0.3 0.7 0 0-0.1 0.3 0 0-0.7L962.9 253.7M963.9 253.7l0-16.9M964 253.7l0 0.7 -0.3 0 0 0.1 0.7 0 0-0.8L964 253.7M963.9 236.8c-9.3 0-16.9 7.6-16.9 16.9 0 0 0 0 0 0M908.4 254.4l54.5 0M946.1 253.7L946.1 253.7l0.2 0.1 0 0.3 -0.2 0 0 0.3 1.2 0v-0.1l-0.3 0 0-0.7L946.1 253.7M925.8 253.7l20.5 0M925.8 254.1l20.5 0M925.8 253.8l20.5 0M925.8 254l20.5 0M963.1 253.8l-15.3 0M963.1 253.8l-15.3 0M963.1 254l-15.3 0M963.1 254.1l-15.3 0M947 253.7l0 0.7 0.3 0 0 0.1 0.7 0 0-0.4 -0.2 0 0-0.3 0.2 0 0-0.1L947 253.7M970.9 253.7l0 0.4 -6.3 0 0-0.4L970.9 253.7zM925 253.6L925 253.6l0.2 0.1 0 0.3 -0.2 0 0 0.3 1 0 0-0.3 -0.2 0 0-0.3 0.2 0 0-0.1L925 253.6M914.6 253.7l10.6 0M914.6 253.8l10.6 0M914.6 254l10.6 0M914.6 254.1l10.6 0M1010.5 253.7L1010.5 253.7l-0.2 0.1 0 0.3 0.2 0 0 0.3 -1 0 0-0.3 0.2 0 0-0.3 -0.2 0v-0.1L1010.5 253.7M1010.3 254.1l17 0M1010.3 254l17 0M1027.3 253.8l-17 0M1027.3 253.8l-17 0M1027 253.7l0.7 0 0 0.8 -0.7 0 0-0.4 0.2 0v-0.3L1027 253.7 1027 253.7M904.6 358.5l-12.1 6.2M904.6 358.5l1.3 2.5M892.3 364.5l0.1 0.3M901.9 356.6l-9.4 4.8M905.8 361l0.9-0.5M906 360.6l0.6-0.3M911.9 371.3l0.6-0.3 -0.2-0.3 0.1 0 0.3 0.6 -0.7 0.4L911.9 371.3M911.4 370.3L911.4 370.3l0.2 0.1 0.3-0.1 -0.1-0.2 0.3-0.2 0.3 0.6 -0.1 0 0.1 0.3 -0.6 0.3L911.4 370.3M907.9 361.8l4.2 8.2M911.6 370.4l-4.4-8.5M911.6 370.4l-4.4-8.5M911.8 370.3l-4.4-8.5M911.8 370.3l-4.4-8.5M906.7 361.2l-10 5.1M907.2 362.1l4.2 8.2M911.5 372l25.8 50.2M911.5 372l0.9-0.5M914.1 370.7l-5.7-11M911.5 372l-5.7-11M906.7 361.1l0.6-0.3 0.2 0.3 0.1 0 -0.3-0.6 -0.7 0.4L906.7 361.1M907.2 362.1L907.2 362.1l0-0.2 0.3-0.1 0.1 0.2 0.3-0.2 -0.3-0.6 -0.1 0 -0.1-0.3 -0.6 0.3L907.2 362.1M896.8 366.3c2.8 5.5 9.6 7.7 15.1 4.9 0.2-0.1 0.4-0.2 0.6-0.3M911.9 372.1l0.6-0.3M943.3 432.4l-10 5.1M933.3 437.5c-2.8-5.5-0.7-12.3 4.8-15.1 0 0 0 0 0 0M938.1 422.4l0.6-0.3 0.2 0.3 0.1 0 -0.3-0.6L938 422 938.1 422.4M938.6 423.3L938.6 423.3l0-0.2 0.3-0.1 0.1 0.2 0.3-0.2 -0.3-0.6 -0.1 0 -0.1-0.3 -0.6 0.3L938.6 423.3M939.3 423l4.2 8.2M943.3 431.5l-4.4-8.5M943 431.6l-4.4-8.5M943 431.6l-4.4-8.5M938.6 423.3l4.2 8.2M943.2 431.5l-4.4-8.5M942.8 431.5L942.8 431.5l0.2 0.1 0.3-0.1 -0.1-0.2 0.3-0.2 0.3 0.6 -0.1 0 0.1 0.3 -0.6 0.3L942.8 431.5M943.3 432.5l0.6-0.3 -0.2-0.3 0.1 0 0.3 0.6 -0.7 0.4L943.3 432.5M937.3 422.2l0.9-0.4M937.4 421.8l0.6-0.3M937.3 422.2l5.7 11M944.1 433.4l0.6 1.3M943.5 433.7l0.6 1.3M943.9 433l-0.6 0.3 0.8 1.6 0.6-0.3L943.9 433zM943.6 433.2l0.8 1.5M942.9 433.2l0.9-0.4M942.9 433.2l1 1.9M736.1 405.1L736.1 405.1l-0.2 0 -0.1-0.3 0.2-0.1 -0.1-0.3 -0.7 0.2 0 0.1 -0.3 0.1 0.2 0.6L736.1 405.1M735 405.4l-0.2-0.6 0.3-0.1 0-0.1 -0.7 0.2 0.2 0.7L735 405.4M745 402.1l-9.1 2.9M745 402.1l-9.1 2.9M735.9 404.3l19.7-6.3M744.9 401.8l-9.1 2.9M736.1 405.1l19.7-6.3M732.4 407l2.4-0.8M734.8 406.2l-0.3-0.9M756.8 399.2l-0.3-0.9M756.8 399.2l2.4-0.8M756.1 396.9l0.4 1.3M744.8 402.3L744.8 402.3l0.2-0.2 -0.1-0.3 -0.2 0.1 -0.1-0.3 1-0.3 0.1 0.3 -0.2 0.1 0.1 0.3 0.2-0.1 0 0.1L744.8 402.3 744.8 402.3zM755.8 398.8L755.8 398.8l0.2-0.1 -0.1-0.3 -0.2 0.1 -0.1-0.3 0.7-0.2 0.2 0.7L755.8 398.8 755.8 398.8zM745.6 401.9l10.4-3.3M755.8 398.3l-10.3 3.3M744.9 401.9l-9.1 2.9M765.7 369.6L765.7 369.6M948 415.1l9.4 0M948 415.1l-8.8 4.5M957.5 415.1l0 1.4M968.5 377.2l1.8 0 0-0.6 -1.8 0L968.5 377.2zM970.4 377.3l-0.2 0M968.6 359.6l1.8 0 0-0.6 -1.8 0L968.6 359.6zM970.4 359l0-6.3M970.2 352.6l0.6 0M970.2 359l0.2 0M969.2 359.8l0.6 0v-0.2l-0.6 0V359.8zM969.2 376.6l0.6 0 0-0.2 -0.6 0L969.2 376.6zM957.2 359.6c0 6.3 5.1 11.4 11.4 11.4M968.6 371c-3.1 0-5.7 2.5-5.7 5.7M970.4 359.5l0.2 0 0-0.7 -0.2 0L970.4 359.5zM970.4 377.4l0.2 0 0-0.7 -0.2 0L970.4 377.4zM968.1 414.9l0 1.8 0.6 0 0-1.8L968.1 414.9zM967.9 415.5l0 0.6 0.2 0 0-0.6L967.9 415.5zM968.2 416.7v0.2l0.7 0v-0.2L968.2 416.7zM968.8 416.5l0 0.2M948.4 416.7l-9.7 5M957.5 416.5l0 0.2M958.1 414.9l0 1.8 -0.6 0 0-1.8L958.1 414.9zM958.3 415.5l0 0.6 -0.2 0 0-0.6L958.3 415.5zM958 416.7v0.2l-0.7 0v-0.2L958 416.7zM958.1 426.7l0-10 0.6 0 0 10L958.1 426.7 958.1 426.7zM958.1 426.7c5.5 0 10-4.5 10-10 0 0 0 0 0 0M988.5 330.5l0 90.1M989.9 331.9l0 88.7M989.9 331.9l55.3 0M1012.4 406.5l0 1.4M1011.9 407.5l0-14 -0.6 0 0 14L1011.9 407.5zM991.2 407.5l0-7.3 -0.6 0 0 7.3L991.2 407.5 991.2 407.5zM990.1 408.9l0 11.9M944.1 432.4l8.2-4.2M988.5 457.9l20.4 39.7M988.5 454.4l0 3.5M989.9 454.4l0 3.2M989.9 457.6l19.8 38.7M988.2 454.2l0 3.8M990.1 454.2l0 3.3M1035.3 496.2l-25.5 0M1035.3 497.6l-26.4 0M1035 496l-25.2 0M1011.9 407.5l-21.4 0M997.8 407.5c0-7.8 6.3-14 14-14M990.4 463.8l-0.3-0.5 0.2-0.1 0.3 0.5L990.4 463.8zM990.9 464.5l-0.6-1.3 0.5-0.3 0.6 1.3L990.9 464.5zM991.1 463l-0.3 0.1 0.5 0.9 0.3-0.1L991.1 463zM975.5 471.5l-0.3-0.5 -0.2 0.1 0.3 0.5L975.5 471.5zM975.7 472.3l-0.6-1.3 -0.5 0.3 0.6 1.3L975.7 472.3zM974.4 471.6l0.3-0.1 0.5 0.9 -0.3 0.1L974.4 471.6zM952.4 428.2l22.3 43.3M975.1 472.4l11.1 21.7M988.2 457.9l2.7 5.2M991.4 464l11.1 21.7M980.9 482.4l-5.2-10.1 0.6-0.3 5.2 10.1L980.9 482.4zM992.9 469.8l-2.6-5.1 0.6-0.3 2.6 5.1L992.9 469.8zM980.9 482.4c5.6-2.9 7.8-9.7 4.9-15.3M985.8 467.1c1.4 2.8 4.9 3.9 7.6 2.5M987.1 494l-0.3-0.5 -0.2 0.1 0.3 0.5L987.1 494zM987.3 494.8l-0.6-1.3 -0.5 0.3 0.6 1.3L987.3 494.8zM992.5 504.9l-5.2-10.1 0.6-0.3 5.2 10.1L992.5 504.9zM992.5 504.9c5.6-2.9 7.8-9.7 4.9-15.3M997.4 489.6c1.4 2.8 4.9 3.9 7.6 2.5M1001.9 486.4l-0.3-0.5 0.2-0.1 0.3 0.5L1001.9 486.4zM1002.5 487l-0.6-1.3 0.5-0.3 0.6 1.3L1002.5 487zM1002.7 485.6l-0.3 0.1 0.5 0.9 0.3-0.1L1002.7 485.6zM986 494.1l0.3-0.1 0.5 0.9 -0.3 0.1L986 494.1zM1004.5 492.4l-2.6-5.1 0.6-0.3 2.6 5.1L1004.5 492.4zM1012.4 467l39.7 0M1048.3 468.6l-36 0M1014.6 452.3l0-14.1M1014.6 436.8l0-14.1M1014.8 452.6l0-13.7M1014.6 438.9l11.5 0"/><ellipse fill="none" stroke="#333" stroke-width="0.3" cx="1020.3" cy="441.7" rx="0.7" ry="0.7"/><path fill="none" stroke="#333" stroke-width="0.3" d="M537.9 254.3l-0.4 0M553.6 383.5l0.5 1.4M650.5 430.5l0 1.5M653.3 429.6l0 1.5M777.6 370.8l0-1.4M823.9 375.3l0.4 1.3M843.7 353.1l0 1.4M907.4 357.5l0.7 1.4M923.3 388.5l0.7 1.4M947.6 432.4l-0.6-1.3M975.5 473.7l-1.3 0.6M1000.6 541.7l0.7 1.4M1050.6 407.9l1.4 0M1045.2 330.5l0 1.4M988.5 331.9l1.4 0M1044.7 310.2l1.4 0M556.8 392.8l-2.9 1M650.5 432l-3.5 1.1M650.5 430.5l-5.2 1.7M634.4 435.7l0.4 1.3M634.8 437l12.3-3.9M634.4 435.7l16.2-5.1M645.3 432.2L645.3 432.2M620.8 442.2l2.1-0.7M620.6 441.5l1.7-0.6M620.5 441.9l2-0.6M647.6 433.3l-12.2 3.9M647.4 433l-12.3 3.9M647.6 433.7l-12.3 3.9M620.9 441.4L620.9 441.4M647.4 433L647.4 433M647.4 433L647.4 433M650 432.5l0.1-0.4M649.3 432.4l0.3 0.3M648.8 432.9l0.1-0.4M648.1 432.8l0.3 0.3M647.6 433.3l0.1-0.4M649.6 432.7l0.2-0.1M648.4 433l0.2-0.1M648.9 432.5l0.4-0.1M647.7 432.9l0.4-0.1M649.8 432.6l0.2-0.1M648.6 433l0.2-0.1M647.6 433.7l-0.2-0.7M620.8 442.2l-0.2-0.7M620.9 442.5l2.4-0.8M624.6 440.6L624.6 440.6l-0.2 0 -0.1-0.3 0.2-0.1 -0.1-0.3 -0.7 0.2 0 0.1 -0.3 0.1 0.2 0.6L624.6 440.6M623.6 440.9l-0.2-0.6 0.3-0.1 0-0.1 -0.7 0.2 0.2 0.7L623.6 440.9M633.5 437.6l-9.1 2.9M633.5 437.6l-9.1 2.9M624.6 440.6l8.7-2.8M624.4 439.8l8.7-2.8M633.4 437.3l-9.1 2.9M633.4 437.8L633.4 437.8l0.2-0.2 -0.1-0.3 -0.2 0.1 -0.1-0.3 0.7-0.2 0 0.1 0.3-0.1 0.2 0.6L633.4 437.8M634.4 437.4l-0.2-0.6 -0.3 0.1 0-0.1 0.7-0.2 0.2 0.7L634.4 437.4M623.6 440.9l3.4 10.7M627 451.5c5.9-1.9 9.2-8.2 7.3-14.1 -0.1-0.2-0.1-0.4-0.2-0.6M635.1 437.9l-11.8 3.8M623.3 441.7l-0.3-0.9M622.9 441.5l-0.2-0.7M635.1 437.9l-0.3-0.9M635.1 437.9l12.6-4M635.3 437.6l-0.2-0.7M633.4 437.4l-9.1 2.9M553.6 383.5l25.4 0M579.1 384.9l-25 0M544.8 253.5L544.8 253.5l0.2 0.1 0 0.3 -0.2 0 0 0.3 1 0 0-0.3 -0.2 0 0-0.3 0.2 0 0-0.1L544.8 253.5M538.5 253.7l6.5 0M545.6 253.7l20.5 0M538.5 253.6l6.5 0M545.6 253.6l20.5 0M538.5 253.9l6.5 0M545.6 253.9l20.5 0M538.5 254l6.3 0M545.8 254l20.3 0M537.9 254.3l0 64.4M553.9 393.8l19.5 61.3M586 451.1l-12.6 4M623 440.8l-0.4-1.3M1039.8 253.7l1.4 0M1039.8 261.2l1.4 0"/><ellipse fill="none" stroke="#333" stroke-width="0.3" cx="1040.5" cy="262.3" rx="0.2" ry="0.2"/><path fill="none" stroke="#333" stroke-width="0.3" d="M1039.8 230.3l0 30.8M1041.2 230.3l0 30.8M1040.1 261.2l0 10.9M1040.8 261.2l0 10.9M1039.8 230.3L1039.8 230.3M1039.8 230.3c0 0.2 0.2 0.4 0.4 0.4 0.2 0 0.4-0.2 0.4-0.4M1041.2 230.3c0-0.2-0.2-0.4-0.4-0.4 -0.2 0-0.4 0.2-0.4 0.4M584.4 352.5l11.3 0 0-0.5 -11.3 0C584.4 352 584.4 352.5 584.4 352.5zM595.7 351.6l-11.3 0 0-0.8 11.3 0C595.7 350.8 595.7 351.6 595.7 351.6zM557.5 333.2l26.9 0 0 0.4 -26.9 0L557.5 333.2zM711.1 333l0 0.8 -15.5 0 0-0.8L711.1 333zM709.7 335.1l-0.8 0 0-15.5 0.8 0L709.7 335.1zM695.6 333.4c0-7.6 6.2-13.7 13.7-13.7M711.1 333.4c0 1-0.8 1.8-1.8 1.8l0 0M584.4 351.2c0 0.4 0.3 0.7 0.7 0.7 0 0 0 0 0 0M584.4 334.9c0-0.4 0.3-0.7 0.7-0.7l0 0M590.7 334.1l-6.3 0 0-0.5 0 0 0-0.4 0-0.5 6.3 0L590.7 334.1 590.7 334.1zM695.6 334.1l-2.5 0 0-0.5 0-0.4 0-0.5 2.5 0L695.6 334.1 695.6 334.1zM590.7 333l0 0.8 15.5 0 0-0.8C606.2 333 590.7 333 590.7 333zM592.1 335.1l0.8 0 0-15.5 -0.8 0L592.1 335.1zM606.2 333.4c0-7.6-6.1-13.7-13.7-13.7M539.8 332.9l0 0.8 15.5 0 0-0.8L539.8 332.9zM555.3 333.3c0-7.6-6.1-13.7-13.7-13.7M555.4 334.1l2.5 0 0-0.5 -0.3 0 0-0.4 0.3 0 0-0.5 -2.5 0L555.4 334.1 555.4 334.1zM844.2 333l0 0.8 15.5 0 0-0.8L844.2 333zM845.6 335.2l0.8 0 0-15.5 -0.8 0L845.6 335.2zM859.7 333.4c0-7.6-6.1-13.7-13.7-13.7M861.9 333.3l17.1 0 0 0.4 -17.1 0L861.9 333.3zM859.7 334.1l2.5 0 0-0.5 -0.3 0 0-0.4 0.3 0 0-0.5 -2.5 0L859.7 334.1 859.7 334.1zM879.1 333.3l16.8 0 0 0.4 -16.8 0L879.1 333.3zM896 333.3l16.8 0 0 0.4 -16.8 0L896 333.3zM912.9 333.3l16.8 0 0 0.4 -16.8 0L912.9 333.3zM929.8 333.3l17.1 0 0 0.4 -17.1 0L929.8 333.3zM964.5 333.1l0 0.8 -15.5 0 0-0.8L964.5 333.1zM949 333.5c0-7.6 6.2-13.7 13.7-13.7M949 334.2l-2.5 0 0-0.5 0.3 0 0-0.4 -0.3 0 0-0.5 2.5 0L949 334.2 949 334.2zM963.2 335.2l-0.8 0 0-15.5 0.8 0L963.2 335.2zM964.5 333.5c0 1-0.8 1.8-1.8 1.8l0 0M970.9 334.2l-6.3 0 0-0.5 0-0.4 0-0.5 6.3 0L970.9 334.2 970.9 334.2zM972.3 335.2l0.8 0 0-15.5 -0.8 0L972.3 335.2zM970.9 333.1l0 0.8 15.5 0 0-0.8L970.9 333.1zM970.9 333.5c0 1 0.8 1.8 1.8 1.8l0 0M986.4 333.5c0-7.6-6.1-13.7-13.7-13.7M988.5 334.2l-2.1 0 0-0.5 0 0 0-0.4 0 0 0-0.5 2.1 0L988.5 334.2zM988.3 330.2l0 2M988.3 333.7l0 87.1M1032.4 289.1l11.7 0M622.6 439.4l11.8-3.8M1006.8 534.6l20.6 0M1027.4 534.6l23.6 0M958.1 414.9l10 0M1030.7 290.7l0 27.9M1030.7 262.1l-2.8 0M1030.7 261.9l-2.6 0M1030.7 288.4l1.7 0M1032.4 288.4l0 0.7M1030.7 269.2l0-7.7M1032.4 269.2l0-7.7M1030.7 269.2l1.7 0M1030 288.4l2.4 0 0-0.7 -2.4 0L1030 288.4zM1030 269.2l2.4 0 0 0.7 -2.4 0L1030 269.2zM1029.8 268.2l0.3 0M1029.8 278.8l0.3 0M1019.3 289.4h-0.2c0-2.9 1.1-5.5 3.1-7.6 2-2 4.7-3.1 7.6-3.1 0 0 0 0 0 0v0.2c0 0 0 0 0 0 -2.8 0-5.4 1.1-7.4 3.1C1020.4 284 1019.3 286.6 1019.3 289.4z"/><rect x="1019.2" y="268.1" width="10.6" height="0.2"/><path d="M1029.8 278.9c-2.9 0-5.5-1.1-7.6-3.1s-3.1-4.7-3.1-7.6h0.2c0 2.8 1.1 5.4 3.1 7.4 2 2 4.6 3.1 7.4 3.1V278.9zM1030.9 265h-1v-1h1V265zM1030.2 264.7h0.5v-0.5h-0.5V264.7zM711.1 334.5l6.3 0 0 0.8 -6.3 0L711.1 334.5 711.1 334.5zM711.1 334.1l6.3 0 0-0.5 -0.3 0 0-0.4 0.3 0 0-0.5 -6.3 0L711.1 334.1 711.1 334.1zM717.4 352.5l-11.3 0 0-0.5 11.3 0L717.4 352.5zM706.1 351.6l11.3 0 0-0.8 -11.3 0L706.1 351.6zM717.4 351.2c0 0.4-0.3 0.7-0.7 0.7h0M844.2 334.6l-6.3 0 0 0.8 6.3 0L844.2 334.6 844.2 334.6zM844.2 334.1l-6.3 0 0-0.5 0 0 0-0.4 0-0.5 6.3 0L844.2 334.1 844.2 334.1zM837.8 352.5l11.3 0 0-0.5 -11.3 0L837.8 352.5zM849.2 351.6l-11.3 0 0-0.8 11.3 0L849.2 351.6 849.2 351.6zM837.8 351.2c0 0.4 0.3 0.7 0.7 0.7 0 0 0 0 0 0M539.8 318.7l0 22.3M537.9 318.7l2 0M541.6 335.1l0-15.5M539.8 333.3c0 1 0.8 1.8 1.8 1.8l0 0M539.4 341l5.6 16.3M539.8 341l5.6 16.4M539.6 341l5.6 16.3"/><rect x="1032.3" y="269.9" width="0.2" height="17.7"/><path fill="none" stroke="#333" stroke-width="0.3" d="M931.5 404.5l-2.6 1.4M924.4 390.7l-2.6 1.4M1012.3 408.9l0-1.4M1011.7 408.9l0-0.8M1012.3 407.5l-0.4 0M1011.9 408.2l-0.2 0M1011.9 408.2l0-0.6M1011.9 408.2l0-0.6M1012.3 408.9l-0.6 0M1025.8 409l0 0.4 -0.3 0 0 0.4 -12.5 0 0-0.8L1025.8 409zM1012.4 421.5l0.4 0 0 0.3 0.3 0M1012.8 408.1l0-0.2M1012.8 408.1l-0.4 0 0 0L1012.8 408.1 1012.8 408.1zM1013 408.1l-0.6 0M1013 408.9l-0.6 0M1013 409l-0.6 0M1012.4 408.1l0 0.8M1012.4 409l0 10.4M1013 408.1l0 0.8M1013 409l0 10.4M1012.4 407.9l0.4 0 0 0.2 -0.4 0L1012.4 407.9zM1012.4 407.9l0.4 0.2M1012.8 407.9l-0.4 0.2M1013 419.3l0 2.5 -0.2 0 0-0.3 -0.4 0 0-2.6M1012.3 407.6L1012.3 407.6l0.1 0.3 -0.1 0L1012.3 407.6zM990.1 408.9l0-1.4M990.7 408.9l0-0.8M990.1 407.5l0.4 0M990.5 408.2l0.2 0M990.5 408.2l0-0.6M990.1 408.9l0.6 0M990.1 407.6l-0.2 0 0 1.3 0.2 0L990.1 407.6zM991.2 400.2c3.8 0.3 6.7 3.5 6.7 7.3M1012.3 466l0.6 0M1012.3 466.9l0.6 0 0 0.2 -0.6 0L1012.3 466.9zM1012.3 466.9l0.6 0.2M1013 466.9l-0.6 0.2M1012.3 466.1L1012.3 466.1M999.6 467.4l-4.4 0M1011.9 466.8l0 0.6M1000 466.8l-5 0M1011.7 466l0.6 0 0 1.4 -0.4 0 0-0.6 -0.2 0L1011.7 466zM1012.3 467L1012.3 467l0.1 1.4 -0.1 0L1012.3 467zM1012.3 468.5l0 0.2M1012.3 467l0.1 1.4M1012.4 467l-0.1 1.4M1012.3 468.6l-0.2 0M1012.3 468.6L1012.3 468.6M1012.3 468.6L1012.3 468.6M1012.3 468.5l0 0.2M1012.1 467.5l0 1.2M1012.3 466l0.6 0M1012.3 466l0 0.8 0.6 0 0-0.8M1012.1 467.4L1012.1 467.4 1012.1 467.4M1012.3 453.5l0.3 0M1012.7 453.5l0-0.3M1012.7 453.1l0.3 0M1012.3 466l0-12.5M1013 453.2l0 12.8M995.8 467.4l-0.3 1M995.6 468.9l-0.2-0.6 0.6-0.2 0.2 0.6L995.6 468.9zM995.8 468.6l0.2 0M995.8 468.6L995.8 468.6M995.8 468.6L995.8 468.6M995.8 468.5l0 0.2M996 467.5l0 1.2M996 467.4L996 467.4 996 467.4M994.5 466.1l-0.2 0.1M995.1 466.8l0-0.8M995.1 466l-0.6 0M994.9 466.9L994.9 466.9M995 466.8L995 466.8M995 466.9l0.3 0.5M994.5 466l0.5 0.9M990.1 457.5l4.4 8.6M995.7 468.5l14.1 27.5M994.9 466.9l-0.2 0.1M994.5 466.1l0.2 0.9M994.3 466.2l0.6 0.7M995.7 468.5l-0.2 0.1M995.7 468.5l-0.2 0M995.9 468.6h-0.5l-0.7-1.3 1.2 0V468.6zM995.5 468.3h0.1v-0.8l-0.5 0L995.5 468.3z"/><rect x="994.7" y="467.8" transform="matrix(0.6321 0.7749 -0.7749 0.6321 728.7706 -599.1346)" width="1.3" height="0.2"/><path fill="none" stroke="#333" stroke-width="0.3" d="M946.4 417.8l5.5 10.6M585.5 261.8l-0.9 0 0-7.8 -0.2 0 0 8 0.8 0M589.7 261.8l0.8 0 0-7.8 0.2 0 0 8 -0.9 0M584.6 261.8l6 0M584.4 261.9l6.3 0M648.9 261.9l-1.2 0 0-8 0.2 0 0 7.8 2.2 0M651.5 261.8l2.4 0 0-7.8 0.2 0 0 8 -2.4 0M647.9 261.8l6 0M647.8 261.9l6.3 0M716.4 261.8l0.9 0 0-7.8 0.2 0 0 8 -0.7 0M712.1 261.8l-0.8 0 0-7.8 -0.2 0 0 8 0.8 0M711.3 261.8l6 0M711.1 262l6.3 0M776.5 262l-2 0 0-8 0.2 0 0 7.8 2 0M778.5 261.8l2.1 0 0-7.8 0.2 0 0 8 -1.9 0M774.7 261.8l6 0M774.5 262l6.3 0M838.7 261.8l-0.7 0 0-7.8 -0.2 0 0 8 0.3 0M843.4 261.8l0.6 0 0-7.8 0.2 0 0 8 -0.5 0M838 261.8l6 0M837.8 262l6.3 0"/><polygon points="965.2 262.2 964.4 262.2 964.4 253.9 964.9 253.9 964.9 261.7 965 261.7 965 261.9 965.2 261.9 "/><polygon points="971 262.2 970.3 262.2 970.3 262 970 262 970 261.7 970.6 261.7 970.6 253.9 971 253.9 "/><rect x="964.7" y="261.7" width="6" height="0.2"/><rect x="964.6" y="261.9" width="6.3" height="0.2"/><path fill="none" stroke="#333" stroke-width="0.3" d="M688.7 384.1l6.1 2.4 1.6-1.9 -2 4.8 1.7-2.4 6.2 2.5"/><ellipse fill="none" stroke="#333" stroke-width="0.3" cx="682.6" cy="381.4" rx="21.8" ry="21.8"/><ellipse fill="none" stroke="#333" stroke-width="0.3" cx="682.6" cy="381.4" rx="21.8" ry="21.8"/><path fill="none" stroke="#333" stroke-width="0.3" d="M682.6 374.3l0-14M682.6 374.8l0-13.3M702.3 381.4l-12.5 0M702.3 381.4l-12.5 0M688.4 378.1l0.5-0.3M701.4 373.4l0.6-0.2M701.6 373.7l0.6-0.2M701.6 389.1l0.6 0.2M703 386.9l-0.6-0.2M703.7 381.4l-0.6 0M702.5 381.4l-12.7 0M703 376l-0.6 0.2M701.8 376.3l-12.2 3.3M700.9 370.9l-0.5 0.3M699.8 371.5l-11 6.3M699.8 371.5l0.5-0.3M688.7 384.1c0.9-2 0.8-4.2-0.3-6.1M688.7 384.1c1.5-3.4 0-7.3-3.4-8.8 -0.9-0.4-1.8-0.6-2.7-0.6M702.3 389.6c4.5-10.9-0.7-23.4-11.5-27.9 -2.6-1.1-5.4-1.6-8.2-1.6M702.1 389.5c4.5-10.8-0.7-23.1-11.4-27.6 -2.6-1.1-5.3-1.6-8.1-1.6M701 389c2.4-5.7 1.9-12.2-1.1-17.6M701.5 389.3c2.4-5.9 2-12.6-1.2-18.1M689.2 384.3c0.9-2.1 0.8-4.5-0.4-6.5M701.7 386.5l-5.5-1.5M696 385l-6.5-1.7M701.8 386.6l-5.6-1.5M696 385l-6.5-1.7"/><ellipse fill="none" stroke="#333" stroke-width="0.3" cx="682.6" cy="381.4" rx="21.3" ry="21.3"/><ellipse fill="none" stroke="#333" stroke-width="0.3" cx="682.6" cy="381.4" rx="21.1" ry="21.1"/><path fill="none" stroke="#333" stroke-width="0.3" d="M682.6 360.1l0 0.2M689.3 381.4L689.3 381.4M688.3 378.1c-1.8-3.2-5.9-4.3-9.1-2.4 -3.2 1.8-4.3 5.9-2.4 9.1 1.8 3.2 5.9 4.3 9.1 2.4 1.2-0.7 2.2-1.8 2.8-3.1M682.6 374.6c-3.8 0-6.8 3.1-6.8 6.8 0 3.8 3.1 6.8 6.8 6.8 2.7 0 5.1-1.6 6.2-4.1M780.1 357.6l-0.3 0 0 11.1 0.3 0L780.1 357.6zM779.8 368.5l-0.7 0 0 0.5 0.7 0L779.8 368.5zM779.8 357.5l-0.7 0 0 0.5 0.7 0L779.8 357.5zM779.1 357.6l-0.3 0 0 11.1 0.3 0L779.1 357.6z"/><rect x="1010.8" y="408.9" width="0.2" height="57.1"/><rect x="1010.9" y="465.9" width="0.7" height="0.2"/><rect x="1011" y="408.8" width="0.7" height="0.2"/><rect x="1013.2" y="450.7" width="1.4" height="0.2"/><rect x="1013" y="452.5" width="1.9" height="0.2"/><polygon points="1027.5 452.6 1026.1 452.6 1026.1 438.2 1026.4 438.2 1026.3 452.4 1027.3 452.4 1027.3 438.2 1027.5 438.2 "/><polygon points="1027.6 452.7 1026 452.7 1026 438.2 1026.2 438.2 1026.2 452.5 1027.4 452.5 1027.4 438.2 1027.6 438.2 "/><rect x="1014.8" y="451.9" width="11.2" height="0.2"/><polygon points="1027.5 436.8 1027.3 436.8 1027.3 422.6 1026.4 422.6 1026.4 436.8 1026.1 436.8 1026.1 422.3 1027.6 422.3 "/><polygon points="1027.6 436.8 1027.4 436.8 1027.4 422.5 1026.2 422.5 1026.2 436.8 1026 436.8 1026 422.2 1027.7 422.2 "/><rect x="1014.9" y="422.8" width="11.2" height="0.2"/><rect x="1013" y="422.2" width="1.9" height="0.2"/><rect x="1013.2" y="424" width="1.4" height="0.2"/><rect x="1014.9" y="440.2" width="11.2" height="0.2"/><rect x="1014.9" y="434.5" width="11.2" height="0.2"/><path d="M1011.1 443.4l-21.4 0 0-11.5 21.4 0L1011.1 443.4zM989.9 443.2l20.9 0 0-11 -20.9 0L989.9 443.2z"/><rect x="1033.7" y="497.6" width="0.2" height="11.2"/><rect x="988" y="481.6" transform="matrix(0.4568 0.8896 -0.8896 0.4568 973.9114 -631.5376)" width="32.1" height="0.2"/><rect x="1033.6" y="482.3" transform="matrix(2.448822e-02 0.9997 -0.9997 2.448822e-02 1503.8253 -576.3449)" width="27.4" height="0.3"/><rect x="1048.3" y="495.2" transform="matrix(2.343102e-02 0.9997 -0.9997 2.343102e-02 1519.7657 -563.7274)" width="0.3" height="1.7"/><path d="M1014.7 452.4h-1.7v-1.7h1.7V452.4zM1013.3 452.2h1.2V451h-1.2V452.2zM1014.7 424.2l-1.7 0v-1.7h1.7V424.2zM1013.3 424l1.2 0v-1.2h-1.2V424zM1025.9 466h-0.2c0-3.4-1.3-6.6-3.7-9s-5.6-3.7-9-3.7v-0.2c3.5 0 6.7 1.3 9.1 3.8S1025.9 462.5 1025.9 466zM1013 421.9C1013 421.9 1013 421.9 1013 421.9l0-0.2c0 0 0 0 0 0 3.4 0 6.6-1.3 9-3.7 2.4-2.4 3.7-5.6 3.7-9h0.2c0 3.5-1.3 6.7-3.8 9.1C1019.7 420.6 1016.4 421.9 1013 421.9zM606.3 334.1l0.4 0M606.8 332.6l-0.6 0M606.3 332.6l0 1.4M606.6 334.1l0-0.3M666.5 334.1l0-0.3M666.5 332.7l0 1.2M693.1 333.2l-26.5 0 0 0.4 26.5 0L693.1 333.2zM838.5 357.5l0 11.4M838.7 357.5l0 11.9M840.1 357.5l0 12.6M838.7 369.1l-58.6 0M1061.9 480.9l-0.4-0.1 -0.2-0.1 -0.2-0.2 -0.1-0.2 -0.1-0.2 0-0.2 0-0.2 0.1-0.2 0.1-0.2 0.2-0.1 0.2-0.1 0.3 0V480.9zM1061.7 479.4l-0.2 0.1 -0.2 0.2 -0.1 0.2 0 0.2 0 0.2 0.1 0.2 0.2 0.1 0.1 0.1V479.4z"/><rect x="1055.7" y="255.1" width="6.2" height="0.2"/><path fill="none" stroke="#333" stroke-width="0.3" d="M648.5 256.5l4.9 0 0 4.9 -4.9 0L648.5 256.5zM711.8 256.5l4.9 0 0 4.9 -4.9 0L711.8 256.5zM775.2 256.5l4.9 0 0 4.9 -4.9 0L775.2 256.5zM838.5 256.5l4.9 0 0 4.9 -4.9 0L838.5 256.5zM901.9 256.5l4.9 0 0 4.9 -4.9 0L901.9 256.5zM965.2 352.6l4.9 0 0 4.9 -4.9 0L965.2 352.6z"/><rect x="909.5" y="402.7" transform="matrix(2.445736e-02 0.9997 -0.9997 2.445736e-02 1432.6976 -662.5322)" width="292.6" height="0.3"/><path fill="none" stroke="#333" stroke-width="0.3" d="M528.4 327.1l-8 2.7M520.4 329.8l48.4 141.4"/><rect x="1038.3" y="240.2" transform="matrix(2.445783e-02 0.9997 -0.9997 2.445783e-02 1268.7073 -819.4727)" width="31.8" height="0.3"/><rect x="520.3" y="232.7" width="533.7" height="0.2"/><path fill="none" stroke="#333" stroke-width="0.3" d="M528.8 232.7l0 23.4M528.8 256.1l-8.4 0M520.3 256.1l0-31.9"/><rect x="520.3" y="224.2" width="533.5" height="0.2"/><rect x="1052" y="439.9" transform="matrix(2.343102e-02 0.9997 -0.9997 2.343102e-02 1468.3811 -621.2376)" width="0.3" height="2.1"/><rect x="1047.5" y="437.4" transform="matrix(2.441338e-02 0.9997 -0.9997 2.441338e-02 1462.7313 -623.9127)" width="7" height="0.3"/><rect x="1051.9" y="432.9" transform="matrix(2.343102e-02 0.9997 -0.9997 2.343102e-02 1461.1705 -627.9321)" width="0.3" height="2.1"/><path fill="none" stroke="#333" stroke-width="0.3" d="M648.4 380l0 4.9M648.4 384.9l2.1 0M775.2 352.6l4.9 0 0 4.9 -4.9 0L775.2 352.6zM838.5 352.6l4.9 0 0 4.9 -4.9 0L838.5 352.6zM695.4 357.5l0 2.9M576.3 352.5l43.7 0M619.9 362.5l-2.8 0M617.1 362.5l0-7.2M617.1 355.3l-28.2 0M588.9 355.3l0 26.8M588.9 382.1l28.2 0M617.1 382.1l0-7.2M617.1 374.9l2.8 0M619.9 374.9l0 10M586.1 382.1l0-26.8"/><rect x="1031.1" y="354.6" width="16.5" height="0.2"/><rect x="1030.9" y="354.8" width="0.2" height="2.8"/><rect x="1031.1" y="357.5" width="16.5" height="0.2"/><path fill="none" stroke="#333" stroke-width="0.3" d="M650.5 384.9l0 20.6M650.5 425.1l0 7.2M653.4 380l0 25.6M653.3 425.1l0 6.4M648.4 436l2.6 8.1M651.9 435.6l3.4 10.7M652.3 435.8l3.4 10.7M663.1 442l3.2 10.1M620.7 441.9l3.4 10.7M612.9 458l3.2 10.1M624.1 452.6l26.8-8.5M616.1 468l50.2-16M568.9 471.2l44.1-13.3M732.2 406.4l3.4 10.7M759 397.8l3.4 10.7M763.8 400l3.4 10.7M775 406.4l3.2 10.1M764.2 400.2l3.4 10.7M729.7 411.2l3.4 10.7M724.4 422.5l3.2 10.1M778.2 416.4l-50.6 16.1M663.1 442l61.3-19.5M775 406.4l107-34.8M886.2 361.3l-122 38.9M729.7 411.2l-77.4 24.6M886.4 361l-122.5 39M762.4 408.6l-26.8 8.5"/><rect x="927.6" y="470.4" transform="matrix(0.4568 0.8896 -0.8896 0.4568 946.4805 -608.9752)" width="88.6" height="0.2"/><rect x="929" y="470.3" transform="matrix(0.4568 0.8896 -0.8896 0.4568 944.2465 -605.4601)" width="77.7" height="0.2"/><rect x="917.9" y="488.7" transform="matrix(0.4568 0.8896 -0.8896 0.4568 965.5016 -603.5942)" width="118.1" height="0.2"/><rect x="915.2" y="498.6" transform="matrix(0.4568 0.8896 -0.8896 0.4568 971.9275 -594.2892)" width="114.8" height="0.2"/><path fill="none" stroke="#333" stroke-width="0.3" d="M951.7 431.1l-20 10.3M930.1 446.2l20-10.3M950 436.3l-20 10.3M926.3 457.9l20-10.3"/><rect x="970.1" y="256.5" width="0.2" height="4.9"/><rect x="965.3" y="261.3" width="4.9" height="0.2"/><rect x="965.1" y="256.5" width="0.2" height="4.9"/><rect x="965.3" y="256.4" width="4.9" height="0.2"/><rect x="1028.5" y="256.6" width="0.2" height="2.8"/><rect x="1039.6" y="454.8" transform="matrix(2.445640e-02 0.9997 -0.9997 2.445640e-02 1482.5554 -609.4943)" width="27.9" height="0.3"/><path fill="none" stroke="#333" stroke-width="0.3" d="M585.1 261.4l0-4.9 4.9 0 0 4.9M585.1 261.4l4.9 0M965.2 439.9l4.9 0 0-4.9 -4.9 0L965.2 439.9z"/><rect x="1055.4" y="545.4" transform="matrix(2.449847e-02 0.9997 -0.9997 2.449847e-02 1579.0297 -527.0811)" width="8.5" height="0.3"/><path fill="none" stroke="#333" stroke-width="0.3" d="M576.3 352.5l0 2.8M576.3 355.3l9.9 0M732.2 406.4l-78.8 25.1M650.5 432.4l-3 1"/><rect x="1036.8" y="256.6" width="0.2" height="2.8"/><rect x="1041.1" y="256.6" width="0.2" height="2.8"/><rect x="1041.2" y="256.4" width="3.9" height="0.2"/><rect x="1028.6" y="256.4" width="8.3" height="0.2"/><rect x="1041.2" y="259.3" width="4" height="0.2"/><rect x="1033.9" y="259.3" width="3.1" height="0.2"/><rect x="1037" y="256.4" width="4.2" height="0.2"/><rect x="1037" y="259.3" width="4.2" height="0.2"/><rect x="972.1" y="526.5" transform="matrix(0.4568 0.8896 -0.8896 0.4568 1006.7464 -595.3936)" width="37.7" height="0.2"/><rect x="966.2" y="528.7" transform="matrix(0.4568 0.8896 -0.8896 0.4568 1007.6143 -592.387)" width="45.4" height="0.2"/><path fill="none" stroke="#333" stroke-width="0.3" d="M579.1 382.1l7 0M620.7 441.9l26.8-8.5M621.5 444.6l26.8-8.5M888.1 356.7l43.5 84.7M886.4 361l43.7 85.2M886.2 361.3l43.8 85.2M882 371.6l44.4 86.4M901.9 352.6l4.9 0 0 4.9 -4.9 0L901.9 352.6zM906.8 354l0.5 0M660.7 381.4c0 12.1 9.8 21.8 21.8 21.8 12.1 0 21.8-9.8 21.8-21.8s-9.8-21.8-21.8-21.8c0 0 0 0 0 0M657.9 381.4c0 13.6 11 24.6 24.6 24.6 13.6 0 24.6-11 24.6-24.6 0-8.6-4.5-16.6-11.8-21.1M657.9 380l2.8 0M657.9 381.4l0-1.4M660.7 381.4l0-1.4M682.6 359.6l0-2.1M682.6 360.3l0-0.7M648.4 352.5l68.3 0M648.4 357.5l0-4.9M648.4 357.5l5 0M648.4 380l4.9 0M653.4 357.5l29.2 0"/><ellipse fill="none" stroke="#333" stroke-width="0.3" cx="682.6" cy="381.4" rx="21.8" ry="21.8"/><path fill="none" stroke="#333" stroke-width="0.3" d="M650.5 405.6l2.8 0M650.5 425.1l2.8 0M600.8 430.7l-2.7 0.9M947.9 433.1l-40.6-79M648.2 436.5l-0.2-0.6 0.6-0.2 0.2 0.6L648.2 436.5zM648.4 436l-0.9-2.7M619.9 352.5l0 10M944.8 434.7l-39.6-77.1M574.6 407.7l-2 0.6M584.7 439.5l-2 0.6M695.4 357.5l21.3 0M716.7 352.6l0 4.9"/><rect x="535.4" y="236.5" width="509.2" height="0.2"/><rect x="1040.4" y="236.5" width="0.5" height="0.2"/><rect x="1041.4" y="233.2" width="0.2" height="3.5"/><rect x="1040.8" y="233" width="0.7" height="0.2"/><rect x="999.5" y="543.3" width="53.2" height="0.2"/><rect x="1052.6" y="511.7" width="0.2" height="31.8"/><rect x="1008" y="511.6" width="44.7" height="0.2"/><rect x="1008" y="508.7" width="43.3" height="0.2"/><rect x="982.3" y="509.8" width="9.8" height="0.2"/><rect x="982" y="502.8" transform="matrix(0.4535 0.8913 -0.8913 0.4535 988.4929 -598.2859)" width="0.2" height="8"/><rect x="981.4" y="502.6" transform="matrix(0.4535 0.8913 -0.8913 0.4535 988.1599 -597.7936)" width="0.2" height="8.4"/><rect x="999.2" y="548.9" width="60.2" height="0.2"/><rect x="1007.9" y="508.9" width="0.2" height="2.8"/><rect x="998.8" y="549.6" width="60.9" height="0.2"/><rect x="1004" y="541.2" width="55.5" height="0.2"/><rect x="1056.2" y="545.1" transform="matrix(2.446165e-02 0.9997 -0.9997 2.446165e-02 1577.2026 -525.8425)" width="3.6" height="0.3"/><rect x="1056.5" y="546.2" transform="matrix(0.5384 0.8427 -0.8427 0.5384 949.5076 -637.4321)" width="0.3" height="3.5"/><rect x="1054.7" y="542.4" transform="matrix(0.8698 0.4934 -0.4934 0.8698 405.2257 -450.617)" width="3.5" height="0.2"/><rect x="1056" y="534.2" transform="matrix(2.446165e-02 0.9997 -0.9997 2.446165e-02 1566.0513 -536.2059)" width="3.6" height="0.3"/><rect x="1053.9" y="538.8" transform="matrix(2.473694e-02 0.9997 -0.9997 2.473694e-02 1567.5259 -528.9311)" width="1.8" height="0.3"/><rect x="1056.2" y="535.3" transform="matrix(0.5384 0.8427 -0.8427 0.5384 940.203 -642.238)" width="0.3" height="3.5"/><rect x="1054" y="540.6" transform="matrix(2.419946e-02 0.9997 -0.9997 2.419946e-02 1569.9583 -526.9282)" width="1.8" height="0.3"/><rect x="1054.9" y="480.8" transform="matrix(0.5384 0.8427 -0.8427 0.5384 893.6811 -666.2608)" width="0.3" height="3.5"/><rect x="1053.4" y="487.9" transform="matrix(0.8697 0.4935 -0.4935 0.8697 378.303 -457.1439)" width="3.5" height="0.2"/><rect x="1055.1" y="491.7" transform="matrix(0.5384 0.8427 -0.8427 0.5384 902.9857 -661.456)" width="0.3" height="3.5"/><rect x="1053.6" y="498.8" transform="matrix(0.8697 0.4935 -0.4935 0.8697 383.7148 -455.8562)" width="3.5" height="0.2"/><rect x="1055.4" y="502.6" transform="matrix(0.5384 0.8427 -0.8427 0.5384 912.2902 -656.6518)" width="0.3" height="3.5"/><rect x="1053.9" y="509.7" transform="matrix(0.8699 0.4932 -0.4932 0.8699 388.7629 -454.3174)" width="3.5" height="0.2"/><rect x="1055.7" y="513.5" transform="matrix(0.5384 0.8427 -0.8427 0.5384 921.5945 -651.8472)" width="0.3" height="3.5"/><rect x="1054.2" y="520.6" transform="matrix(0.8698 0.4934 -0.4934 0.8698 394.4051 -453.1909)" width="3.5" height="0.2"/><rect x="1055.9" y="524.4" transform="matrix(0.5384 0.8427 -0.8427 0.5384 930.8992 -647.0424)" width="0.3" height="3.5"/><rect x="1054.4" y="531.5" transform="matrix(0.8699 0.4932 -0.4932 0.8699 399.5788 -451.746)" width="3.5" height="0.2"/><rect x="1055.4" y="512.4" transform="matrix(2.446165e-02 0.9997 -0.9997 2.446165e-02 1543.7476 -556.9299)" width="3.6" height="0.3"/><rect x="1053.4" y="517" transform="matrix(2.472359e-02 0.9997 -0.9997 2.472359e-02 1545.2363 -549.643)" width="1.8" height="0.3"/><rect x="1055.7" y="523.3" transform="matrix(2.446165e-02 0.9997 -0.9997 2.446165e-02 1554.8999 -546.5674)" width="3.6" height="0.3"/><rect x="1053.7" y="529.7" transform="matrix(2.418647e-02 0.9997 -0.9997 2.418647e-02 1558.8201 -537.2865)" width="1.8" height="0.3"/><rect x="1053.5" y="518.8" transform="matrix(2.419946e-02 0.9997 -0.9997 2.419946e-02 1547.6543 -547.6579)" width="1.8" height="0.3"/><rect x="1053.7" y="527.9" transform="matrix(2.473694e-02 0.9997 -0.9997 2.473694e-02 1556.3738 -539.2905)" width="1.8" height="0.3"/><rect x="1055.2" y="501.5" transform="matrix(2.446820e-02 0.9997 -0.9997 2.446820e-02 1532.5887 -567.295)" width="3.6" height="0.3"/><rect x="1053.1" y="506.1" transform="matrix(2.419946e-02 0.9997 -0.9997 2.419946e-02 1534.6431 -559.7498)" width="1.8" height="0.3"/><rect x="1052.9" y="497" transform="matrix(2.473694e-02 0.9997 -0.9997 2.473694e-02 1524.7769 -568.6404)" width="1.8" height="0.3"/><rect x="1053.2" y="507.9" transform="matrix(2.472359e-02 0.9997 -0.9997 2.472359e-02 1535.9427 -558.275)" width="1.8" height="0.3"/><rect x="1054.9" y="490.6" transform="matrix(2.446165e-02 0.9997 -0.9997 2.446165e-02 1521.443 -577.6529)" width="3.6" height="0.3"/><rect x="1052.9" y="495.2" transform="matrix(2.418647e-02 0.9997 -0.9997 2.418647e-02 1523.5049 -570.1085)" width="1.8" height="0.3"/><rect x="1052.4" y="475.3" transform="matrix(2.472359e-02 0.9997 -0.9997 2.472359e-02 1502.4872 -589.3529)" width="1.8" height="0.3"/><rect x="1052.7" y="486.1" transform="matrix(2.473694e-02 0.9997 -0.9997 2.473694e-02 1513.6246 -578.9999)" width="1.8" height="0.3"/><rect x="1054.6" y="479.7" transform="matrix(2.446165e-02 0.9997 -0.9997 2.446165e-02 1510.2906 -588.0153)" width="3.6" height="0.3"/><rect x="1052.3" y="473.4" transform="matrix(2.419946e-02 0.9997 -0.9997 2.419946e-02 1501.1866 -590.8448)" width="1.8" height="0.3"/><rect x="1052.6" y="484.3" transform="matrix(2.419946e-02 0.9997 -0.9997 2.419946e-02 1512.3391 -580.4795)" width="1.8" height="0.3"/><rect x="1053.1" y="477" transform="matrix(0.8699 0.4933 -0.4933 0.8699 372.6663 -458.2674)" width="3.5" height="0.2"/><rect x="1053.8" y="437.3" transform="matrix(0.5384 0.8427 -0.8427 0.5384 856.4638 -685.4788)" width="0.3" height="3.5"/><rect x="1052.3" y="444.3" transform="matrix(0.8698 0.4934 -0.4934 0.8698 356.5328 -462.199)" width="3.5" height="0.2"/><rect x="1054.1" y="448.2" transform="matrix(0.5384 0.8427 -0.8427 0.5384 865.7683 -680.6746)" width="0.3" height="3.5"/><rect x="1052.6" y="455.2" transform="matrix(0.8699 0.4933 -0.4933 0.8699 361.8478 -460.8402)" width="3.5" height="0.2"/><rect x="1054.3" y="459" transform="matrix(0.5384 0.8427 -0.8427 0.5384 875.0726 -675.87)" width="0.3" height="3.5"/><rect x="1052.8" y="466.1" transform="matrix(0.8697 0.4935 -0.4935 0.8697 367.4798 -459.7192)" width="3.5" height="0.2"/><rect x="1054.6" y="469.9" transform="matrix(0.5384 0.8427 -0.8427 0.5384 884.3772 -671.0652)" width="0.3" height="3.5"/><rect x="1053.8" y="447" transform="matrix(2.446820e-02 0.9997 -0.9997 2.446820e-02 1476.8281 -619.1041)" width="3.6" height="0.3"/><rect x="1054.1" y="457.9" transform="matrix(2.446165e-02 0.9997 -0.9997 2.446165e-02 1487.9869 -608.7393)" width="3.6" height="0.3"/><rect x="1054.4" y="468.8" transform="matrix(2.446165e-02 0.9997 -0.9997 2.446165e-02 1499.1393 -598.3768)" width="3.6" height="0.3"/><rect x="1052.1" y="464.4" transform="matrix(2.473694e-02 0.9997 -0.9997 2.473694e-02 1491.3213 -599.7179)" width="1.8" height="0.3"/><rect x="1052.1" y="462.5" transform="matrix(2.418647e-02 0.9997 -0.9997 2.418647e-02 1490.0485 -601.204)" width="1.8" height="0.3"/><rect x="1051.9" y="453.5" transform="matrix(2.418647e-02 0.9997 -0.9997 2.418647e-02 1480.7548 -609.8409)" width="1.8" height="0.3"/><rect x="1051.8" y="451.6" transform="matrix(2.473694e-02 0.9997 -0.9997 2.473694e-02 1478.3104 -611.803)" width="1.8" height="0.3"/><rect x="1051.6" y="442.6" transform="matrix(2.419946e-02 0.9997 -0.9997 2.419946e-02 1469.589 -620.2113)" width="1.8" height="0.3"/><rect x="1051.5" y="440.7" transform="matrix(2.472359e-02 0.9997 -0.9997 2.472359e-02 1467.173 -622.1564)" width="1.8" height="0.3"/><rect x="1053.6" y="436.1" transform="matrix(2.446165e-02 0.9997 -0.9997 2.446165e-02 1465.6832 -629.4633)" width="3.6" height="0.3"/><rect x="1052" y="433.4" transform="matrix(0.8697 0.4935 -0.4935 0.8697 351.245 -463.5827)" width="3.5" height="0.2"/><rect x="1053.3" y="425.2" transform="matrix(2.446165e-02 0.9997 -0.9997 2.446165e-02 1454.5319 -639.8267)" width="3.6" height="0.3"/><rect x="1051.8" y="422.6" transform="matrix(0.8697 0.4935 -0.4935 0.8697 345.8331 -464.8704)" width="3.5" height="0.2"/><rect x="1053.5" y="426.4" transform="matrix(0.5384 0.8427 -0.8427 0.5384 847.1595 -690.2834)" width="0.3" height="3.5"/><rect x="1051.3" y="431.7" transform="matrix(2.473694e-02 0.9997 -0.9997 2.473694e-02 1457.8667 -630.7963)" width="1.8" height="0.3"/><rect x="1051.3" y="429.9" transform="matrix(2.419946e-02 0.9997 -0.9997 2.419946e-02 1456.5787 -632.3061)" width="1.8" height="0.3"/><rect x="1052.5" y="392.6" transform="matrix(2.446165e-02 0.9997 -0.9997 2.446165e-02 1421.0759 -670.9131)" width="3.6" height="0.3"/><rect x="1052.8" y="403.5" transform="matrix(2.446165e-02 0.9997 -0.9997 2.446165e-02 1432.2283 -660.5507)" width="3.6" height="0.3"/><rect x="1053" y="414.3" transform="matrix(2.446165e-02 0.9997 -0.9997 2.446165e-02 1443.3796 -650.1892)" width="3.6" height="0.3"/><rect x="1052.7" y="393.7" transform="matrix(0.5384 0.8427 -0.8427 0.5384 819.2464 -704.6984)" width="0.3" height="3.5"/><rect x="1051.2" y="400.8" transform="matrix(0.8699 0.4933 -0.4933 0.8699 334.8013 -467.2728)" width="3.5" height="0.2"/><rect x="1053" y="404.6" transform="matrix(0.5384 0.8427 -0.8427 0.5384 828.5513 -699.894)" width="0.3" height="3.5"/><rect x="1051.5" y="411.7" transform="matrix(0.8699 0.4933 -0.4933 0.8699 340.2103 -465.9865)" width="3.5" height="0.2"/><rect x="1053.3" y="415.5" transform="matrix(0.5384 0.8427 -0.8427 0.5384 837.8552 -695.0897)" width="0.3" height="3.5"/><rect x="1050.5" y="399" transform="matrix(2.472359e-02 0.9997 -0.9997 2.472359e-02 1424.4258 -661.8683)" width="1.8" height="0.3"/><rect x="1050.5" y="397.2" transform="matrix(2.419946e-02 0.9997 -0.9997 2.419946e-02 1423.1233 -663.4001)" width="1.8" height="0.3"/><rect x="1050.8" y="409.9" transform="matrix(2.418647e-02 0.9997 -0.9997 2.418647e-02 1436.1467 -651.3027)" width="1.8" height="0.3"/><rect x="1050.7" y="408.1" transform="matrix(2.419946e-02 0.9997 -0.9997 2.419946e-02 1434.2748 -653.0358)" width="1.8" height="0.3"/><rect x="1051.1" y="420.8" transform="matrix(2.473694e-02 0.9997 -0.9997 2.473694e-02 1446.7145 -641.1558)" width="1.8" height="0.3"/><rect x="1051" y="419" transform="matrix(2.419946e-02 0.9997 -0.9997 2.419946e-02 1445.4272 -642.6705)" width="1.8" height="0.3"/><rect x="1052" y="370.8" transform="matrix(2.446165e-02 0.9997 -0.9997 2.446165e-02 1398.7722 -691.6371)" width="3.6" height="0.3"/><rect x="1052.2" y="381.7" transform="matrix(2.446165e-02 0.9997 -0.9997 2.446165e-02 1409.9236 -681.2756)" width="3.6" height="0.3"/><rect x="1050.4" y="368.1" transform="matrix(0.8699 0.4933 -0.4933 0.8699 318.5726 -471.1317)" width="3.5" height="0.2"/><rect x="1052.2" y="371.9" transform="matrix(0.5384 0.8427 -0.8427 0.5384 800.6383 -714.3074)" width="0.3" height="3.5"/><rect x="1050.7" y="379" transform="matrix(0.8699 0.4932 -0.4932 0.8699 323.8664 -469.7461)" width="3.5" height="0.2"/><rect x="1052.5" y="382.8" transform="matrix(0.5384 0.8427 -0.8427 0.5384 809.9417 -709.5032)" width="0.3" height="3.5"/><rect x="1051" y="389.9" transform="matrix(0.8699 0.4932 -0.4932 0.8699 329.2746 -468.4603)" width="3.5" height="0.2"/><rect x="1050.2" y="386.3" transform="matrix(2.473694e-02 0.9997 -0.9997 2.473694e-02 1411.4003 -673.9589)" width="1.8" height="0.3"/><rect x="1050.3" y="388.1" transform="matrix(2.418647e-02 0.9997 -0.9997 2.418647e-02 1413.8428 -672.0327)" width="1.8" height="0.3"/><rect x="1050" y="377.2" transform="matrix(2.418647e-02 0.9997 -0.9997 2.418647e-02 1402.6903 -682.3982)" width="1.8" height="0.3"/><rect x="1049.9" y="375.4" transform="matrix(2.473694e-02 0.9997 -0.9997 2.473694e-02 1400.248 -684.3183)" width="1.8" height="0.3"/><rect x="1048.9" y="333.6" transform="matrix(2.419946e-02 0.9997 -0.9997 2.419946e-02 1358.0691 -723.8616)" width="1.8" height="0.3"/><rect x="1049.2" y="344.5" transform="matrix(2.473694e-02 0.9997 -0.9997 2.473694e-02 1368.6512 -713.6682)" width="1.8" height="0.3"/><rect x="1049.5" y="355.4" transform="matrix(2.419946e-02 0.9997 -0.9997 2.419946e-02 1380.373 -703.132)" width="1.8" height="0.3"/><rect x="1049.7" y="366.3" transform="matrix(2.419946e-02 0.9997 -0.9997 2.419946e-02 1391.5255 -692.7667)" width="1.8" height="0.3"/><rect x="1051.2" y="338.1" transform="matrix(2.446165e-02 0.9997 -0.9997 2.446165e-02 1365.3162 -722.7236)" width="3.6" height="0.3"/><rect x="1052.4" y="349.9" transform="matrix(2.414226e-02 0.9997 -0.9997 2.414226e-02 1377.7551 -711.3759)" width="1.8" height="0.3"/><rect x="1051.7" y="359.9" transform="matrix(2.446165e-02 0.9997 -0.9997 2.446165e-02 1387.6199 -701.9996)" width="3.6" height="0.3"/><rect x="1049.1" y="342.7" transform="matrix(2.419946e-02 0.9997 -0.9997 2.419946e-02 1367.361 -715.2249)" width="1.8" height="0.3"/><rect x="1049.4" y="353.6" transform="matrix(2.473694e-02 0.9997 -0.9997 2.473694e-02 1377.9447 -705.0363)" width="1.8" height="0.3"/><rect x="1049.4" y="364.2" transform="matrix(2.417623e-02 0.9997 -0.9997 2.417623e-02 1389.4407 -694.7187)" width="2.3" height="0.3"/><rect x="1049.6" y="335.4" transform="matrix(0.8697 0.4935 -0.4935 0.8697 302.5399 -475.1712)" width="3.5" height="0.2"/><rect x="1051.4" y="339.2" transform="matrix(0.5384 0.8427 -0.8427 0.5384 772.7255 -728.7212)" width="0.3" height="3.5"/><rect x="1049.9" y="346.3" transform="matrix(0.8697 0.4935 -0.4935 0.8697 307.9517 -473.8835)" width="3.5" height="0.2"/><rect x="1051.7" y="350.1" transform="matrix(0.5384 0.8427 -0.8427 0.5384 782.0286 -723.9172)" width="0.3" height="3.5"/><rect x="1050.2" y="357.2" transform="matrix(0.8698 0.4934 -0.4934 0.8698 313.2503 -472.4952)" width="3.5" height="0.2"/><rect x="1052.3" y="361.2" transform="matrix(0.5384 0.8427 -0.8427 0.5384 791.3057 -719.5474)" width="0.3" height="2.6"/><rect x="1048.4" y="311.8" transform="matrix(2.472359e-02 0.9997 -0.9997 2.472359e-02 1335.2102 -744.7433)" width="1.8" height="0.3"/><rect x="1048.7" y="322.7" transform="matrix(2.473694e-02 0.9997 -0.9997 2.473694e-02 1346.3479 -734.3862)" width="1.8" height="0.3"/><rect x="1050.6" y="316.3" transform="matrix(2.446165e-02 0.9997 -0.9997 2.446165e-02 1343.0106 -743.4475)" width="3.6" height="0.3"/><rect x="1050.9" y="327.2" transform="matrix(2.446165e-02 0.9997 -0.9997 2.446165e-02 1354.163 -733.0851)" width="3.6" height="0.3"/><rect x="1048.6" y="320.9" transform="matrix(2.418647e-02 0.9997 -0.9997 2.418647e-02 1345.0712 -735.9502)" width="1.8" height="0.3"/><rect x="1048.9" y="331.8" transform="matrix(2.472359e-02 0.9997 -0.9997 2.472359e-02 1355.6559 -725.7497)" width="1.8" height="0.3"/><rect x="1049.1" y="313.6" transform="matrix(0.8699 0.4932 -0.4932 0.8699 291.4183 -477.4609)" width="3.5" height="0.2"/><rect x="1050.9" y="317.4" transform="matrix(0.5384 0.8427 -0.8427 0.5384 754.1155 -738.3306)" width="0.3" height="3.5"/><rect x="1049.4" y="324.5" transform="matrix(0.8697 0.4935 -0.4935 0.8697 297.1285 -476.4587)" width="3.5" height="0.2"/><rect x="1051.1" y="328.3" transform="matrix(0.5384 0.8427 -0.8427 0.5384 763.4204 -733.5262)" width="0.3" height="3.5"/><rect x="1047.1" y="257.3" transform="matrix(2.473694e-02 0.9997 -0.9997 2.473694e-02 1279.4376 -796.5421)" width="1.8" height="0.3"/><rect x="1047.3" y="268.2" transform="matrix(2.418647e-02 0.9997 -0.9997 2.418647e-02 1291.1686 -786.0499)" width="1.8" height="0.3"/><rect x="1047.6" y="279.1" transform="matrix(2.473694e-02 0.9997 -0.9997 2.473694e-02 1301.7411 -775.8241)" width="1.8" height="0.3"/><rect x="1047.9" y="290" transform="matrix(2.473694e-02 0.9997 -0.9997 2.473694e-02 1312.8932 -765.4646)" width="1.8" height="0.3"/><rect x="1048.1" y="300.9" transform="matrix(2.472359e-02 0.9997 -0.9997 2.472359e-02 1324.0581 -755.1029)" width="1.8" height="0.3"/><rect x="1049.3" y="261.8" transform="matrix(2.446165e-02 0.9997 -0.9997 2.446165e-02 1287.2518 -795.2589)" width="3.6" height="0.3"/><rect x="1049.6" y="272.7" transform="matrix(2.446820e-02 0.9997 -0.9997 2.446820e-02 1298.3987 -784.8986)" width="3.6" height="0.3"/><rect x="1049.8" y="283.6" transform="matrix(2.446165e-02 0.9997 -0.9997 2.446165e-02 1309.5555 -774.535)" width="3.6" height="0.3"/><rect x="1050.1" y="294.5" transform="matrix(2.446165e-02 0.9997 -0.9997 2.446165e-02 1320.7089 -764.1735)" width="3.6" height="0.3"/><rect x="1050.4" y="305.4" transform="matrix(2.446165e-02 0.9997 -0.9997 2.446165e-02 1331.8612 -753.811)" width="3.6" height="0.3"/><rect x="1047.3" y="266.4" transform="matrix(2.418647e-02 0.9997 -0.9997 2.418647e-02 1289.3118 -787.7766)" width="1.8" height="0.3"/><rect x="1047.5" y="277.3" transform="matrix(2.419946e-02 0.9997 -0.9997 2.419946e-02 1300.449 -777.4158)" width="1.8" height="0.3"/><rect x="1047.8" y="288.2" transform="matrix(2.419946e-02 0.9997 -0.9997 2.419946e-02 1311.6014 -767.0505)" width="1.8" height="0.3"/><rect x="1048.1" y="299.1" transform="matrix(2.472359e-02 0.9997 -0.9997 2.472359e-02 1322.2013 -756.8286)" width="1.8" height="0.3"/><rect x="1048.3" y="310" transform="matrix(2.419946e-02 0.9997 -0.9997 2.419946e-02 1333.9054 -746.3208)" width="1.8" height="0.3"/><rect x="1047.8" y="259.1" transform="matrix(0.8697 0.4935 -0.4935 0.8697 264.6587 -484.1852)" width="3.5" height="0.2"/><rect x="1049.5" y="262.9" transform="matrix(0.5384 0.8427 -0.8427 0.5384 707.5943 -762.3546)" width="0.3" height="3.5"/><rect x="1048" y="270" transform="matrix(0.8697 0.4935 -0.4935 0.8697 270.07 -482.8976)" width="3.5" height="0.2"/><rect x="1049.8" y="273.8" transform="matrix(0.5384 0.8427 -0.8427 0.5384 716.8996 -757.55)" width="0.3" height="3.5"/><rect x="1048.3" y="280.9" transform="matrix(0.8697 0.4935 -0.4935 0.8697 275.4818 -481.6099)" width="3.5" height="0.2"/><rect x="1050.1" y="284.7" transform="matrix(0.5384 0.8427 -0.8427 0.5384 726.2024 -752.7457)" width="0.3" height="3.5"/><rect x="1048.6" y="291.8" transform="matrix(0.8698 0.4934 -0.4934 0.8698 280.7883 -480.2174)" width="3.5" height="0.2"/><rect x="1050.3" y="295.6" transform="matrix(0.5384 0.8427 -0.8427 0.5384 735.5077 -747.941)" width="0.3" height="3.5"/><rect x="1048.8" y="302.7" transform="matrix(0.8699 0.4933 -0.4933 0.8699 286.1166 -478.8508)" width="3.5" height="0.2"/><rect x="1050.6" y="306.5" transform="matrix(0.5384 0.8427 -0.8427 0.5384 744.8123 -743.1352)" width="0.3" height="3.5"/><rect x="1050.3" y="468.7" width="3.6" height="0.2"/><rect x="1053.2" y="349" width="1.3" height="0.2"/><rect x="1050.6" y="363.1" width="4.3" height="0.2"/><rect x="1052.3" y="348.1" transform="matrix(2.538869e-02 0.9997 -0.9997 2.538869e-02 1374.5758 -713.5012)" width="1.8" height="0.3"/><rect x="1028.5" y="256.6" width="0.2" height="4.9"/><rect x="1028.6" y="256.4" width="4.9" height="0.2"/><rect x="1028.6" y="261.4" width="5.3" height="0.2"/><rect x="1033.8" y="259.4" width="0.2" height="2.1"/><rect x="1046.5" y="235.4" transform="matrix(2.472359e-02 0.9997 -0.9997 2.472359e-02 1257.0024 -817.3939)" width="1.8" height="0.3"/><rect x="1048.8" y="239.9" transform="matrix(2.446165e-02 0.9997 -0.9997 2.446165e-02 1264.8029 -816.1191)" width="3.6" height="0.3"/><rect x="1046.7" y="233.8" transform="matrix(2.444747e-02 0.9997 -0.9997 2.444747e-02 1255.6063 -818.9011)" width="1.5" height="0.3"/><rect x="1047.2" y="237.2" transform="matrix(0.8699 0.4933 -0.4933 0.8699 253.5903 -486.5863)" width="3.5" height="0.2"/><rect x="1049" y="241" transform="matrix(0.5384 0.8427 -0.8427 0.5384 688.8638 -772.0274)" width="0.3" height="3.5"/><rect x="1046.8" y="246.3" transform="matrix(2.472359e-02 0.9997 -0.9997 2.472359e-02 1268.1547 -807.0342)" width="1.8" height="0.3"/><rect x="1046.7" y="244.5" transform="matrix(2.419946e-02 0.9997 -0.9997 2.419946e-02 1266.8481 -808.6461)" width="1.8" height="0.3"/><rect x="1047.5" y="248.1" transform="matrix(0.8699 0.4933 -0.4933 0.8699 258.9998 -485.2998)" width="3.5" height="0.2"/><rect x="1047.1" y="257.2" transform="matrix(2.419946e-02 0.9997 -0.9997 2.419946e-02 1279.8574 -796.5522)" width="1.8" height="0.3"/><rect x="1047" y="255.4" transform="matrix(2.419946e-02 0.9997 -0.9997 2.419946e-02 1277.9996 -798.2817)" width="1.8" height="0.3"/><rect x="1049" y="250.8" transform="matrix(2.446165e-02 0.9997 -0.9997 2.446165e-02 1275.9542 -805.7556)" width="3.6" height="0.3"/><rect x="1049.3" y="251.9" transform="matrix(0.5384 0.8427 -0.8427 0.5384 698.1687 -767.2209)" width="0.3" height="3.5"/><rect x="998.7" y="306.9" transform="matrix(2.446153e-02 0.9997 -0.9997 2.446153e-02 1327.7485 -746.4889)" width="95.4" height="0.3"/><rect x="1034.9" y="246.5" transform="matrix(2.449311e-02 0.9997 -0.9997 2.449311e-02 1265.8374 -803.9916)" width="19.9" height="0.3"/><rect x="1047.9" y="256.2" width="6.7" height="0.2"/><rect x="1047.9" y="256.4" width="4.3" height="0.2"/><rect x="1056.8" y="470.1" transform="matrix(2.343102e-02 0.9997 -0.9997 2.343102e-02 1502.6823 -596.9233)" width="0.3" height="1.2"/><rect x="1055.1" y="404.8" transform="matrix(2.343102e-02 0.9997 -0.9997 2.343102e-02 1435.8126 -659.055)" width="0.3" height="1.3"/><rect x="1038.8" y="419.9" transform="matrix(2.444305e-02 0.9997 -0.9997 2.444305e-02 1446.8864 -642.6185)" width="27.8" height="0.3"/><rect x="1030.8" y="488.7" transform="matrix(2.446796e-02 0.9997 -0.9997 2.446796e-02 1513.8011 -573.6108)" width="40.1" height="0.3"/><rect x="1023.9" y="381.7" transform="matrix(2.445843e-02 0.9997 -0.9997 2.445843e-02 1404.312 -675.3506)" width="48.6" height="0.3"/><rect x="1048.8" y="406" width="3.6" height="0.2"/><path fill="none" stroke="#333" stroke-width="0.3" d="M584.1 387.6l14 43.9M586.2 384.9l0.9 2.7M587 387.6l13.7 43.1M535.4 236.5l0 84.6M537.3 321.2l-2 0M537.3 341.4l0-20.2"/><rect x="1005.7" y="536.3" width="47" height="0.2"/><rect x="981.9" y="526.5" transform="matrix(0.4571 0.8894 -0.8894 0.4571 1011.6689 -604.1362)" width="37.7" height="0.3"/><path fill="none" stroke="#333" stroke-width="0.3" d="M579.1 384.9l0-2.8M619.9 384.9l-33.7 0M583.2 384.9l-4.1 0M583.2 384.9l3 0M574.6 407.7l10.1 31.9M572.6 408.3l10.1 31.9"/><rect x="1039.3" y="233.2" width="0.2" height="3.5"/><path fill="none" stroke="#333" stroke-width="0.3" d="M904.3 357.5l-12.5 6.4M901.6 355l-11.3 5.8M653.9 263.4l-0.2-0.6 0.6-0.2 0.2 0.6L653.9 263.4zM666.5 332.7l-60.3 0M606.3 332.6l0 1.4M666.5 334.1l-60.3 0M666.5 332.7l0 0.5 -0.3 0 0 0.4 0.3 0 0 0.5M964.9 330.6h-0.5l0-13.2h0.5L964.9 330.6zM964.7 330.3L964.7 330.3l0-12.7h0L964.7 330.3z"/><rect x="970.6" y="263.8" width="0.2" height="17.5"/><rect x="969.7" y="317.4" width="1.2" height="0.2"/><rect x="968.9" y="263.3" width="2.2" height="0.2"/><rect x="964.6" y="317.1" width="6.2" height="0.2"/><rect x="964.6" y="263.7" width="6.2" height="0.2"/><rect x="970.6" y="299.7" width="0.2" height="17.5"/><rect x="970.6" y="281.7" width="0.2" height="17.7"/><path fill="none" stroke="#333" stroke-width="0.3" d="M838 262.2l0-0.2M844.1 262.2l0-0.2M838 263.4l6.4 0M837.6 317.5l0-54.1M837.6 263.4l0.4 0M838 317.5l-0.4 0M844.4 317.5l-6.4 0M970.9 332.9l-6.3 0 0-0.2h-0.1v-2.4l5.1 0 0-12.4 -4.9 0v-0.5l4.9 0 0-53.8 -5.1 0 0-1.5h0.1l0-0.2 6.3 0 0 0.2h0.1v1.2h0.2l0 54.3H971l0 15h-0.1V332.9zM964.8 332.6l5.8 0v-0.2h0.1l0-15h0.2l0-53.8h-0.2l0-1.2h-0.1v-0.2l-5.8 0 0 0.2h-0.1l0 1 5.1 0 0 54.3 -4.9 0 4.9 0 0 12.9 -5.1 0 0 1.9h0.1L964.8 332.6z"/><polygon points="964.3 317.7 960.9 317.7 960.9 263.3 964.4 263.3 964.4 263.6 961.2 263.6 961.1 317.4 964.3 317.4 "/><path fill="none" stroke="#333" stroke-width="0.3" d="M843.9 317.5l5.3 0 0-54.1 -5.1 0M840.2 263.4l0 54.1M844.2 332.5l0-2.1 -5.1 0 0-12.7 4.9 0 0-0.3 -4.9 0 0-54.1 5.1 0 0-1.2 -0.1 0 0-0.2 -6.1 0 0 0.2 -0.1 0 0 1.2 -0.2 0 0 54.1 0.2 0 0 15 0.1 0v0.2l6.1 0v-0.2L844.2 332.5M844.2 317.5l0 12.9 -0.3 0 0-12.9L844.2 317.5zM844.2 330.4l0-0.3M710.9 317.1l0-26.7M717.7 263.7l0 26.7M711.1 316.8l0-0.2 -0.2 0 0 0.2L711.1 316.8zM717.5 263.7l0 27 -0.4 0 0-27L717.5 263.7zM717.5 264.1l0 0.2 0.2 0 0-0.2L717.5 264.1zM716.7 317.1l-5.8 0M710.9 317.1l0 0.4M710.9 317.5l6.5 0M717 317.1l0-27M716.7 290.8l0 26.3M717 317.1l0.4 0M717.7 317.5l0-27M717.7 290.4l-0.2 0M717.4 290.4l0 26.7M717.4 317.5l0.2 0M717.7 263.7l0-0.4M717.7 263.4l-6.5 0M710.9 290.4l0-27M710.9 263.4l0.2 0M711.1 263.4l5.9 0 0-0.1 0.1 0 0 0.1 0.3 0 0-1.2 -0.1 0 0-0.2 -6.1 0 0 0.2 -0.1 0L711.1 263.4M717.4 317.5l0 15 -0.1 0 0 0.2 -6.1 0 0-0.2 -0.1 0 0-2.1 5.1 0 0-12.7 -4.9 0 0-0.3 0.1 0 0.1 0 5.5 0M717.1 263.4l0.5 0 0 54.1 -0.5 0M717.1 263.2l0 54.4 -0.1 0L717.1 263.2 717.1 263.2 717.1 263.2zM710.9 317.5l-4.5 0 0-54.1 4.5 0M664.3 272.7c0-5.8-4.7-10.5-10.5-10.5M654.1 272.4l-0.6 0.6"/><ellipse fill="none" stroke="#333" stroke-width="0.3" cx="653.8" cy="272.7" rx="0.2" ry="0.2"/><path fill="none" stroke="#333" stroke-width="0.3" d="M652 272.7c0 1 0.8 1.8 1.8 1.8"/><rect x="537.9" y="318.4" width="506.5" height="0.2"/><path fill="none" stroke="#333" stroke-width="0.3" d="M654 261.9L654 261.9 654 261.9l0 0.2 -0.6 0 0-0.2h0v0M652 272.7l12.3 0M654.1 274.5l0-12.3 -0.6 0 0 12.3L654.1 274.5zM653.5 274.5l3.8 0M653.5 274.5l0 1.1 2.7 0M656.2 332.4l0-56.9M657.3 274.5l0 57.9M656.2 332.4l0.1 0 0 0.2M657.1 332.5l0 0.2M657.2 332.4l-0.1 0M653.5 275.6l-5.7 0M647.7 332.4l0-56.9M656.2 275.6l0 0.4 -5.3 0 0-0.4L656.2 275.6zM650.9 332.1l5.3 0M650.9 275.9l0 56.2M656.2 332.4l-8.4 0M647.9 332.4v0.2M887.2 254.5l0 0.2 14.1 0 0-0.2L887.2 254.5zM964.7 261.5l-49.8 0 0-6.4 49.9 0L964.7 261.5zM915.1 261.2l49.3 0 0-5.9 -49.4 0L915.1 261.2zM774.5 255.1l0 6.2 -57 0 0-6.2L774.5 255.1 774.5 255.1zM1028.1 261.5h-0.1l-57.2 0 0-6.4h0.1l57.2 0L1028.1 261.5zM971 261.2l56.8 0 0-5.9 -56.8 0L971 261.2zM886.9 261.8l27.9 0 0 0.2 -27.9 0L886.9 261.8zM887.1 261.7l27.5 0v0.2l-27.5 0L887.1 261.7zM886.8 262l1.4 0M886.8 262l28.2 0M887.1 261.7l27.5 0 0 0.2 -27.5 0L887.1 261.7zM887.3 260.1l0.7 0 0 1.4 -0.7 0L887.3 260.1zM887.3 260.1l0.7 1.4M888 260.1l-0.7 1.4M914.8 261.8l-0.2 0 0-6.8 0.2 0L914.8 261.8zM915 262l-0.2 0 0-7.3 0.2 0L915 262zM915 254.7l-0.2 0 0 7.3 0.2 0L915 254.7zM914.8 255l-0.2 0 0 6.8 0.2 0L914.8 255zM914.4 260.1l-0.7 0 0 1.4 0.7 0L914.4 260.1zM914.4 260.1l-0.7 1.4M913.7 260.1l0.7 1.4M894.2 260.1l0.7 0 0 1.4 -0.7 0L894.2 260.1zM894.9 260.1l-0.7 1.4M894.2 260.1l0.7 1.4M907.7 260.1l-0.7 0 0 1.4 0.7 0L907.7 260.1zM907 260.1l0.7 1.4M907.7 260.1l-0.7 1.4M901.1 260.1l0.7 0 0 1.4 -0.7 0L901.1 260.1zM901.1 260.1l0.7 1.4M901.8 260.1l-0.7 1.4M887.3 255.5l0 4.7M888 260.1l13.1 0M888 261.5l13.1 0M907.7 260.1l6.1 0M907.7 261.5l6.1 0M914.4 255.5l0 4.7M907.4 254.5l0 0.2 7.1 0 0-0.2L907.4 254.5zM887.2 254.7l0.1 0 14 0 0.1 0 0-0.6 5.9 0 0 0.6 7.1 0M886.8 253.7L886.8 253.7l1-0.1v0.1l-0.3 0 0 0.7 -0.4 0 0-0.7L886.8 253.7 886.8 253.7zM886.8 254.4l0-0.3 0 0L886.8 254.4l0.3 0v0L886.8 254.4 886.8 254.4zM887.8 254.4l0-0.3 0 0L887.8 254.4l-0.3 0v0L887.8 254.4 887.8 254.4zM900.3 253.7L900.3 253.7l1-0.1v0.1l-0.3 0 0 0.7 -0.4 0 0-0.7L900.3 253.7 900.3 253.7zM900.4 254.4l0-0.3h0L900.4 254.4l0.3 0v0L900.4 254.4 900.4 254.4zM908.4 253.7L908.4 253.7l-1-0.1 0 0.1 0.3 0 0 0.7 0.4 0 0-0.7L908.4 253.7 908.4 253.7zM908.4 254.4l0-0.3h0L908.4 254.4l-0.3 0v0L908.4 254.4 908.4 254.4zM914.9 253.7L914.9 253.7l-1-0.1v0.1l0.3 0 0 0.7 0.4 0 0-0.7L914.9 253.7 914.9 253.7zM914.9 254.4l0-0.3h0L914.9 254.4l-0.3 0v0L914.9 254.4 914.9 254.4zM914 254.4l0-0.3h0L914 254.4l0.3 0 0 0L914 254.4 914 254.4zM908.5 253.7L908.5 253.7l-0.2 0.1 -0.1 0 0 0.2 0.3 0 0.1 0L908.5 253.7 908.5 253.7 908.5 253.7zM913.9 253.7L913.9 253.7l0.2 0.1 0.1 0 0 0.2 -0.3 0 -0.1 0L913.9 253.7 913.9 253.7 913.9 253.7zM907.7 254l-6.6 0 0-0.2 6.6 0L907.7 254zM907.9 254.8l0-0.6M914.4 254.7l0-0.4M900.8 254.8l0-0.6M887.3 254.8l0-0.6M913 259.4l0 0.7 1.4 0 0-0.7L913 259.4zM913 259.4l1.4 0.7M913 260.1l1.4-0.7M915 254.7L915 254.7 915 254.7l-0.2 0 -0.2 0 0-0.3 -0.1 0 0 0.4 0 0.4 0.1 0 0-0.4L915 254.7 915 254.7zM913 254.8l0 0.7 1.4 0 0-0.7L913 254.8zM913 254.8l1.4 0.7M913 255.5l1.4-0.7M914.2 254.9l0.5 0M913.8 254l-5.2 0 0-0.4 5.2 0L913.8 254zM887.8 253.7L887.8 253.7l-0.2 0.1 -0.1 0 0 0.2 0.3 0 0.1 0L887.8 253.7 887.8 253.7 887.8 253.7zM900.2 254l-12.2 0 0-0.4 12.2 0L900.2 254zM888.7 254.8l0 0.7 -1.4 0 0-0.7L888.7 254.8zM888.7 254.8l-1.4 0.7M888.7 255.5l-1.4-0.7M887 254.9l0.5 0M888.7 257.6l0 2.5M887.3 259.4l0 0.7 1.4 0 0-0.7L887.3 259.4zM887.3 259.4l1.4 0.7M887.3 260.1l1.4-0.7M900.3 253.7L900.3 253.7l0.2 0.1 0.1 0 0 0.2 -0.3 0 -0.1 0L900.3 253.7 900.3 253.7 900.3 253.7zM888.7 255.5l0 2.1M913 255.5l0 2.1M913 257.6l0 2.5M907.5 254.4l0-0.3h0L907.5 254.4l0.3 0v0L907.5 254.4 907.5 254.4zM901.3 254.4l0-0.3h0L901.3 254.4l-0.3 0v0L901.3 254.4 901.3 254.4zM901.4 253.8l0-0.1 0.2 0 0.1 0 0.2 0 0.1 0 0.1 0 0.3 0 0.3 0 0.1 0 0 0 0.6 0 0.4 0 0.1 0 0.3 0 0.2 0 0.6 0 0.3 0 0.1 0 0.3 0 0.2 0 0.5 0 0.4 0 0.1 0 0.5 0 0 0 0 0.1M914.5 254.4L914.5 254.4l0.1 0.7 -0.1 0L914.5 254.4zM914.6 255.1L914.6 255.1l0-0.4 0.4 0v0l-0.4 0L914.6 255.1 914.6 255.1zM914.4 253.6l0-0.2 -27.2 0M886.7 262l0.2 0 0-7.3 -0.2 0L886.7 262zM886.7 254.7l0.2 0 0 7.3 -0.2 0L886.7 254.7zM886.7 254.7L886.7 254.7 886.7 254.7l0.2 0 0.2 0 0-0.3 0.1 0 0 0.4 0 0.4 -0.1 0 0-0.4L886.7 254.7 886.7 254.7zM887.2 254.4L887.2 254.4l-0.1 0.7 0.1 0L887.2 254.4zM887.1 255.1L887.1 255.1l0-0.4 -0.4 0v0l0.4 0L887.1 255.1 887.1 255.1zM886.9 255l0.2 0 0 6.8 -0.2 0L886.9 255zM887.6 254.7l-0.4 0 0 0.5 0 0 0 6.3v0.1l27.2 0 0 0 0-6.8 0-0.1 -0.5 0M562.8 268.3l24.4 0 0 24.4 -24.4 0L562.8 268.3zM562.8 292.7l24.4 0 0 24.4 -24.4 0L562.8 292.7zM786.5 329.9l-9.2 0 0 4.2 9.2 0L786.5 329.9zM795.8 329.9l-9.2 0 0 4.2 9.2 0L795.8 329.9zM805.1 329.9l-9.2 0 0 4.2 9.2 0L805.1 329.9zM814.4 329.9l-9.2 0 0 4.2 9.2 0L814.4 329.9zM823.6 329.9l-9.2 0 0 4.2 9.2 0L823.6 329.9zM777.2 329.9l-9.2 0 0 4.2 9.2 0L777.2 329.9zM768 329.9l-9.2 0 0 4.2 9.2 0L768 329.9zM758.7 329.9l-9.2 0 0 4.2 9.2 0L758.7 329.9zM749.4 329.9l-9.2 0 0 4.2 9.2 0L749.4 329.9zM740.1 329.9l-9.2 0 0 4.2 9.2 0L740.1 329.9zM786.5 329.9l-9.2 0 0 4.2 9.2 0L786.5 329.9zM795.8 329.9l-9.2 0 0 4.2 9.2 0L795.8 329.9zM805.1 329.9l-9.2 0 0 4.2 9.2 0L805.1 329.9zM814.4 329.9l-9.2 0 0 4.2 9.2 0L814.4 329.9zM823.6 329.9l-9.2 0 0 4.2 9.2 0L823.6 329.9zM777.2 329.9l-9.2 0 0 4.2 9.2 0L777.2 329.9zM768 329.9l-9.2 0 0 4.2 9.2 0L768 329.9zM758.7 329.9l-9.2 0 0 4.2 9.2 0L758.7 329.9zM749.4 329.9l-9.2 0 0 4.2 9.2 0L749.4 329.9zM740.1 329.9l-9.2 0 0 4.2 9.2 0L740.1 329.9z"/><rect x="871.3" y="263.5" fill="none" stroke="#333" stroke-width="0.3" width="9.5" height="24.4"/><rect x="880.8" y="263.5" fill="none" stroke="#333" stroke-width="0.3" width="9.5" height="24.4"/><path fill="none" stroke="#333" stroke-width="0.3" d="M871.3 287.8l9.5 0 0 24.4 -9.5 0L871.3 287.8zM880.8 287.8l9.5 0 0 24.4 -9.5 0L880.8 287.8z"/><rect x="927.3" y="263.5" fill="none" stroke="#333" stroke-width="0.3" width="9.5" height="24.4"/><rect x="917.7" y="263.5" fill="none" stroke="#333" stroke-width="0.3" width="9.5" height="24.4"/><path fill="none" stroke="#333" stroke-width="0.3" d="M936.8 287.8l-9.5 0 0 24.4 9.5 0L936.8 287.8zM927.2 287.8l-9.5 0 0 24.4 9.5 0L927.2 287.8zM716.7 368.9l39.6 0 0-8.4 -39.6 0L716.7 368.9 716.7 368.9zM794.9 359.8l-14.4 0 0 8.1 14.4 0L794.9 359.8zM809.3 359.9l-14.4 0 0 8.1 14.4 0L809.3 359.9zM823.7 359.9l-14.4 0 0 8.1 14.4 0L823.7 359.9zM838.2 359.9l-14.4 0 0 8.1 14.4 0L838.2 359.9zM755.7 352l17 0M755 353l-0.6 0M755 353l0-0.3M754.8 352.8L754.8 352.8M754.4 353l0-0.3M755 352.7l-0.2 0M754.8 352.8L754.8 352.8M755 352.7l-0.2 0M755 353l0-0.2M755 353l-0.6 0M754.8 352.8L754.8 352.8M754.8 352.7l-0.5 0M738.7 353l-0.6 0M738.7 353l0-0.3M738.5 352.8L738.5 352.8M738.7 352.7l-0.2 0M738.5 352.8L738.5 352.8M738.7 352.7l-0.2 0M738.7 352.9l0-0.2M738.7 352.9l-0.6 0M738.5 352.8L738.5 352.8M738.5 352.7l-0.5 0M754.4 352.7l-15.7 0M738.1 352.7l-1.4 0 0 0.6 19.7 0 0-0.6 -1.4 0M780.4 352.1l-6.4 0 0 0.5 6.4 0L780.4 352.1zM760.1 352.7l1.5 0M773.3 352.3l-0.6 0M773.3 352.3l0-0.3M773.1 352.1L773.1 352.1M772.6 352.3l0-0.3M773.3 352.1l-0.2 0M773.1 352.1L773.1 352.1M773.3 352.1l-0.2 0M773.3 352.3l0-0.2M773.3 352.3l-0.6 0M773.1 352.1L773.1 352.1M773.1 352l-0.5 0M773.3 352.1l0.7 0 0 0.6 -2.9 0M770.5 352.7l-14.8 0 0-0.6 0.7 0M770.5 352.4l0.6 0M770.5 352.4l0 0.3M770.7 352.6L770.7 352.6M771.1 352.4l0 0.3M770.5 352.7l0.2 0M770.7 352.6L770.7 352.6M770.5 352.7l0.2 0M770.5 352.4l0 0.2M770.5 352.4l0.6 0M770.7 352.6L770.7 352.6M770.7 352.7l0.5 0M717.1 351.9l2 0 0 0.5 -2 0L717.1 351.9zM718.7 351.9l-1.2 0v0L718.7 351.9 718.7 351.9zM719.1 353.3l-2.7 0M718.9 353.1l-2.5 0M717.6 351.9l0 0.5M717.6 352.4l0 0.2M717.6 352.6l1 0M736.7 352.3l-0.6 0M736.7 352.3l0-0.3M736.5 352.1L736.5 352.1M736.1 352.3l0-0.3M736.7 352l-0.2 0M736.5 352.1L736.5 352.1M736.7 352l-0.2 0M736.7 352.2l0-0.2M736.7 352.2l-0.6 0M736.5 352.1L736.5 352.1M736.5 352l-0.5 0M719.7 351.9l-0.7 0 0 0.6 18.3 0 0-0.6 -0.7 0M736.1 352l-17 0M738.1 353l0-0.3M719.1 352.4l0 0.9M718.9 352.4l0 0.9M718.6 351.9l0 0.5M718.6 352.6l0-0.2"/><polyline fill="none" stroke="#333" stroke-miterlimit="10" stroke-dasharray="3" stroke-width="0.5" points="566.6 465.2 563.8 466.1 558 467.8 158.1 588.9 155.2 589.8 152.3 590.7 152.4 587.7 152.5 581.4 154.3 484.7 154.3 481.6 154.4 478.6 157.3 477.7 162.9 476 339.4 422.8 342.2 422 345 421.1 344.1 418.2 342.4 412.7 336.4 393.4 335.6 390.7 334.7 387.8 331.7 387.8 325.6 387.7 158 385 154.9 385 151.9 384.9 152 381.9 152.2 375.6 155.4 277.6 155.5 274.5 155.6 271.5 152.6 271.2 149.6 270.9 146.6 270.6 146.6 267.6 146.7 261.1 146.8 251.3 146.8 248.1 146.8 245.1 149.8 245.1 155.8 245.2 513.8 251.9 516.8 251.9 519.8 252 "/></g></svg>